<svg viewBox="0 0 24 24" xmlns="http://www.w3.org/2000/svg">
	<symbol id="icon-close" viewBox="0 0 24 24">
		<title>Close</title>
		<path d="M10.276 8.391c-0.521-0.521-1.365-0.521-1.886 0s-0.521 1.365 0 1.886l5.724 5.724-5.724 5.724c-0.521 0.521-0.521 1.365 0 1.886s1.365 0.521 1.886 0l5.724-5.724 5.724 5.724c0.521 0.521 1.365 0.521 1.886 0s0.521-1.365 0-1.886l-5.724-5.724 5.724-5.724c0.521-0.521 0.521-1.365 0-1.886s-1.365-0.521-1.886 0l-5.724 5.724-5.724-5.724z"></path>
	</symbol>

	<symbol id="icon-facebook" viewBox="0 0 24 24">
		<title>facebook</title>
		<path d="M16 0c-8.836 0-16 7.164-16 16s7.164 16 16 16c8.836 0 16-7.164 16-16s-7.164-16-16-16zM20 10.667h-1.8c-0.717 0-0.867 0.295-0.867 1.037v1.629h2.667l-0.279 2.667h-2.388v9.333h-4v-9.333h-2.667v-2.667h2.667v-3.077c0-2.359 1.241-3.589 4.039-3.589h2.628v4z"></path>
	</symbol>

	<symbol id="icon-twitter" viewBox="0 0 24 24">
		<title>twitter</title>
		<path d="M24 5.306c-0.881 0.394-1.833 0.656-2.827 0.773 1.017-0.609 1.795-1.575 2.166-2.723-0.952 0.563-2.006 0.975-3.127 1.195-0.9-0.956-2.18-1.552-3.595-1.552-2.719 0-4.922 2.203-4.922 4.922 0 0.384 0.042 0.759 0.127 1.12-4.092-0.206-7.72-2.166-10.148-5.147-0.422 0.727-0.666 1.575-0.666 2.475 0 1.706 0.867 3.216 2.189 4.097-0.806-0.023-1.566-0.248-2.231-0.614 0 0.019 0 0.042 0 0.061 0 2.386 1.697 4.378 3.952 4.828-0.412 0.112-0.848 0.173-1.298 0.173-0.319 0-0.623-0.033-0.928-0.089 0.628 1.955 2.447 3.38 4.598 3.422-1.688 1.322-3.806 2.109-6.117 2.109-0.398 0-0.788-0.023-1.177-0.070 2.184 1.402 4.772 2.212 7.552 2.212 9.056 0 14.011-7.505 14.011-14.011 0-0.216-0.005-0.427-0.014-0.637 0.961-0.689 1.795-1.556 2.456-2.545z"></path>
	</symbol>

	<symbol id="icon-download" viewBox="0 0 32 32">
		<path d="M16 5.334c0.736 0 1.333 0.597 1.333 1.333v11.447l4.39-4.39c0.521-0.521 1.365-0.521 1.886 0s0.521 1.365 0 1.886l-5.724 5.724c-1.041 1.041-2.73 1.041-3.771 0l-5.724-5.724c-0.521-0.521-0.521-1.365 0-1.886s1.365-0.521 1.886 0l4.391 4.391v-11.448c0-0.736 0.597-1.333 1.333-1.333zM6.666 25.334c-0.736 0-1.333 0.597-1.333 1.333s0.597 1.333 1.333 1.333h18.667c0.736 0 1.333-0.597 1.333-1.333s-0.597-1.333-1.333-1.333h-18.667z"></path>
	</symbol>


	<symbol id="icon-search" viewBox="0 0 24 24">
		<title>Search</title>
		<path d="M6.667 14.667c0-4.418 3.582-8 8-8s8 3.582 8 8c0 4.418-3.582 8-8 8s-8-3.582-8-8zM14.667 4c-5.891 0-10.667 4.776-10.667 10.667s4.776 10.667 10.667 10.667c2.122 0 4.099-0.619 5.76-1.687l3.964 3.964c0.521 0.521 1.365 0.521 1.886 0s0.521-1.365 0-1.886l-3.796-3.796c1.77-1.904 2.853-4.456 2.853-7.261 0-5.891-4.776-10.667-10.667-10.667z"></path>
	</symbol>
	
</svg>