<svg viewBox="0 0 24 24" xmlns="http://www.w3.org/2000/svg">
	<symbol id="icon-close" viewBox="0 0 24 24">
		<title>Close</title>
		<path d="M12 5c-3.866 0-7 3.134-7 7s3.134 7 7 7c3.866 0 7-3.134 7-7s-3.134-7-7-7zM12 18c-3.314 0-6-2.686-6-6s2.686-6 6-6c3.314 0 6 2.686 6 6 0 1.591-0.632 3.117-1.757 4.243s-2.651 1.757-4.243 1.757zM13.77 9.52l-1.77 1.77-1.77-1.77-0.7 0.71 1.76 1.77-1.76 1.77 0.7 0.7 1.77-1.76 1.77 1.76 0.7-0.7-1.76-1.77 1.76-1.77-0.7-0.71z"></path>
	</symbol>

	<symbol id="icon-facebook" viewBox="0 0 24 24">
		<title>facebook</title>
		<path d="M14.25 4.5h3.75v-4.5h-3.75c-2.895 0-5.25 2.355-5.25 5.25v2.25h-3v4.5h3v12h4.5v-12h3.75l0.75-4.5h-4.5v-2.25c0-0.407 0.343-0.75 0.75-0.75z"></path>
	</symbol>

	<symbol id="icon-twitter" viewBox="0 0 24 24">
		<title>twitter</title>
		<path d="M24 5.306c-0.881 0.394-1.833 0.656-2.827 0.773 1.017-0.609 1.795-1.575 2.166-2.723-0.952 0.563-2.006 0.975-3.127 1.195-0.9-0.956-2.18-1.552-3.595-1.552-2.719 0-4.922 2.203-4.922 4.922 0 0.384 0.042 0.759 0.127 1.12-4.092-0.206-7.72-2.166-10.148-5.147-0.422 0.727-0.666 1.575-0.666 2.475 0 1.706 0.867 3.216 2.189 4.097-0.806-0.023-1.566-0.248-2.231-0.614 0 0.019 0 0.042 0 0.061 0 2.386 1.697 4.378 3.952 4.828-0.412 0.112-0.848 0.173-1.298 0.173-0.319 0-0.623-0.033-0.928-0.089 0.628 1.955 2.447 3.38 4.598 3.422-1.688 1.322-3.806 2.109-6.117 2.109-0.398 0-0.788-0.023-1.177-0.070 2.184 1.402 4.772 2.212 7.552 2.212 9.056 0 14.011-7.505 14.011-14.011 0-0.216-0.005-0.427-0.014-0.637 0.961-0.689 1.795-1.556 2.456-2.545z"></path>
	</symbol>

	<symbol id="icon-download-cloud" viewBox="0 0 24 24">
		<title>Download-cloud</title>
		<path d="M9.913 16.15l1.61 1.61v-7.26h1v7.28l1.63-1.63 0.71 0.71-2.83 2.82-2.83-2.82 0.71-0.71zM17.143 9.36v-0.040c1.371 0.596 2.129 2.078 1.81 3.538s-1.626 2.492-3.12 2.462h-2.55v-1h2.54c1.042 0.008 1.935-0.743 2.107-1.771s-0.429-2.028-1.417-2.359c-0.182-0.065-0.31-0.228-0.33-0.42-0.221-2.1-1.976-3.703-4.087-3.734s-3.912 1.521-4.193 3.614c-0.032 0.231-0.218 0.409-0.45 0.43-1.171 0.055-2.075 1.049-2.020 2.22s1.049 2.075 2.22 2.020h3.090v1h-3.1c-1.6 0.012-2.949-1.188-3.124-2.778s0.881-3.055 2.444-3.392c0.489-2.429 2.632-4.17 5.11-4.15h0.070c2.502 0.051 4.608 1.888 5 4.36z"></path>
	</symbol>


	<symbol id="icon-search" viewBox="0 0 24 24">
		<title>Search</title>
		<path d="M18.263 17.498l-3.57-3.56c1.672-2.074 1.424-5.096-0.564-6.869s-5.018-1.676-6.889 0.221c-1.871 1.897-1.925 4.928-0.123 6.891s4.826 2.168 6.876 0.467l3.57 3.57 0.7-0.72zM7.923 13.608c-1.468-1.607-1.412-4.084 0.127-5.623s4.016-1.595 5.623-0.127c1.468 1.607 1.412 4.084-0.127 5.623s-4.016 1.595-5.623 0.127z"></path>
	</symbol>
	


</svg>