<svg viewBox="0 0 24 24" xmlns="http://www.w3.org/2000/svg">
	<symbol id="icon-close" viewBox="0 0 32 32">
		<title>Close</title>
		<path d="M10.276 8.391c-0.521-0.521-1.365-0.521-1.886 0s-0.521 1.365 0 1.886l5.724 5.724-5.724 5.724c-0.521 0.521-0.521 1.365 0 1.886s1.365 0.521 1.886 0l5.724-5.724 5.724 5.724c0.521 0.521 1.365 0.521 1.886 0s0.521-1.365 0-1.886l-5.724-5.724 5.724-5.724c0.521-0.521 0.521-1.365 0-1.886s-1.365-0.521-1.886 0l-5.724 5.724-5.724-5.724z"></path>
	</symbol>

	<symbol id="icon-facebook" viewBox="0 0 16 16">
		<title>facebook</title>
		<path d="M8 0c-4.418 0-8 3.582-8 8s3.582 8 8 8c4.418 0 8-3.582 8-8s-3.582-8-8-8zM10 5.333h-0.9c-0.359 0-0.433 0.147-0.433 0.519v0.815h1.333l-0.139 1.333h-1.194v4.667h-2v-4.667h-1.333v-1.333h1.333v-1.539c0-1.179 0.621-1.795 2.019-1.795h1.314v2z"></path>
	</symbol>

	<symbol id="icon-twitter" viewBox="0 0 24 24">
		<title>twitter</title>
		<path d="M24 5.306c-0.881 0.394-1.833 0.656-2.827 0.773 1.017-0.609 1.795-1.575 2.166-2.723-0.952 0.563-2.006 0.975-3.127 1.195-0.9-0.956-2.18-1.552-3.595-1.552-2.719 0-4.922 2.203-4.922 4.922 0 0.384 0.042 0.759 0.127 1.12-4.092-0.206-7.72-2.166-10.148-5.147-0.422 0.727-0.666 1.575-0.666 2.475 0 1.706 0.867 3.216 2.189 4.097-0.806-0.023-1.566-0.248-2.231-0.614 0 0.019 0 0.042 0 0.061 0 2.386 1.697 4.378 3.952 4.828-0.412 0.112-0.848 0.173-1.298 0.173-0.319 0-0.623-0.033-0.928-0.089 0.628 1.955 2.447 3.38 4.598 3.422-1.688 1.322-3.806 2.109-6.117 2.109-0.398 0-0.788-0.023-1.177-0.070 2.184 1.402 4.772 2.212 7.552 2.212 9.056 0 14.011-7.505 14.011-14.011 0-0.216-0.005-0.427-0.014-0.637 0.961-0.689 1.795-1.556 2.456-2.545z"></path>
	</symbol>

	<symbol id="icon-download" viewBox="0 0 32 32">
		<path d="M16 5.334c0.736 0 1.333 0.597 1.333 1.333v11.447l4.39-4.39c0.521-0.521 1.365-0.521 1.886 0s0.521 1.365 0 1.886l-5.724 5.724c-1.041 1.041-2.73 1.041-3.771 0l-5.724-5.724c-0.521-0.521-0.521-1.365 0-1.886s1.365-0.521 1.886 0l4.391 4.391v-11.448c0-0.736 0.597-1.333 1.333-1.333zM6.666 25.334c-0.736 0-1.333 0.597-1.333 1.333s0.597 1.333 1.333 1.333h18.667c0.736 0 1.333-0.597 1.333-1.333s-0.597-1.333-1.333-1.333h-18.667z"></path>
	</symbol>

	<symbol id="icon-search" viewBox="0 0 24 24">
		<title>Search</title>
		<path d="M5 11c0-3.314 2.686-6 6-6s6 2.686 6 6c0 3.314-2.686 6-6 6s-6-2.686-6-6zM11 3c-4.418 0-8 3.582-8 8s3.582 8 8 8c1.591 0 3.074-0.465 4.32-1.266l2.973 2.973c0.39 0.39 1.024 0.39 1.414 0s0.39-1.024 0-1.414l-2.847-2.847c1.328-1.428 2.14-3.342 2.14-5.446 0-4.418-3.582-8-8-8z"></path>
	</symbol>
	
</svg>