<?xml version="1.0" encoding="UTF-8"?>
<svg width="24px" height="24px" viewBox="0 0 24 24" version="1.1" xmlns="http://www.w3.org/2000/svg" xmlns:xlink="http://www.w3.org/1999/xlink">
    <!-- Generator: Sketch 48.1 (47250) - http://www.bohemiancoding.com/sketch -->
    <title>24x24</title>
    <desc>Created with Sketch.</desc>
    <defs></defs>
    <g id="Page-1" stroke="none" stroke-width="1" fill="none" fill-rule="evenodd">
        <g id="Add">
            <rect id="24x24" x="0" y="0" width="24" height="24"></rect>
            <path d="M12.1,19 C16,18.9 19.1,15.8 19,11.9 C18.9,8 15.8,4.9 11.9,5 C8,5.1 4.9,8.2 5,12.1 C5.1,16 8.2,19.1 12.1,19 Z M11.9,6 C15.2,6 17.9,8.6 18,11.9 C18,15.2 15.4,17.9 12.1,18 C8.8,18.1 6.1,15.4 6,12.1 C6,8.8 8.6,6 11.9,6 Z M12.5,9 L11.5,9 L11.5,11.5 L9,11.5 L9,12.5 L11.5,12.5 L11.5,15 L12.5,15 L12.5,12.5 L15,12.5 L15,11.5 L12.5,11.5 L12.5,9 Z" id="Shape" fill="#000000" fill-rule="nonzero"></path>
        </g>
    </g>
</svg>