<?xml version="1.0" encoding="UTF-8"?>
<svg width="24px" height="24px" viewBox="0 0 24 24" version="1.1" xmlns="http://www.w3.org/2000/svg" xmlns:xlink="http://www.w3.org/1999/xlink">
    <!-- Generator: Sketch 48.1 (47250) - http://www.bohemiancoding.com/sketch -->
    <title>24x24</title>
    <desc>Created with Sketch.</desc>
    <defs></defs>
    <g id="Page-1" stroke="none" stroke-width="1" fill="none" fill-rule="evenodd">
        <g id="Eye">
            <rect id="24x24" x="0" y="0" width="24" height="24"></rect>
            <path d="M16.24,9.25472027 C13.8974596,6.91509324 10.1025404,6.91509324 7.76,9.25472027 L5,12.0147203 L7.76,14.7747203 C10.1025404,17.1143473 13.8974596,17.1143473 16.24,14.7747203 L19,12.0147203 L16.24,9.25472027 Z M15.54,14.0647203 C14.6019574,15.0051373 13.3282726,15.5336581 12,15.5336581 C10.6717274,15.5336581 9.39804263,15.0051373 8.46,14.0647203 L6.41,12.0147203 L8.46,10.0147203 C9.39804263,9.07430326 10.6717274,8.54578243 12,8.54578243 C13.3282726,8.54578243 14.6019574,9.07430326 15.54,10.0147203 L17.59,12.0147203 L15.54,14.0647203 Z M12,10.0147203 C10.8954305,10.0147203 10,10.9101508 10,12.0147203 C10,13.1192898 10.8954305,14.0147203 12,14.0147203 C13.1045695,14.0147203 14,13.1192898 14,12.0147203 C14,10.9101508 13.1045695,10.0147203 12,10.0147203 Z M12,13.0147203 C11.4477153,13.0147203 11,12.567005 11,12.0147203 C11,11.4624355 11.4477153,11.0147203 12,11.0147203 C12.5522847,11.0147203 13,11.4624355 13,12.0147203 C13,12.567005 12.5522847,13.0147203 12,13.0147203 Z" id="Combined-Shape" fill="#000000" fill-rule="nonzero"></path>
        </g>
    </g>
</svg>