<?xml version="1.0" encoding="UTF-8"?>
<svg width="24px" height="24px" viewBox="0 0 24 24" version="1.1" xmlns="http://www.w3.org/2000/svg" xmlns:xlink="http://www.w3.org/1999/xlink">
    <!-- Generator: Sketch 48.1 (47250) - http://www.bohemiancoding.com/sketch -->
    <title>24x24</title>
    <desc>Created with Sketch.</desc>
    <defs></defs>
    <g id="Page-1" stroke="none" stroke-width="1" fill="none" fill-rule="evenodd">
        <g id="File-jpg">
            <rect id="24x24" x="0" y="0" width="24" height="24"></rect>
            <path d="M15.7,5 L6,5 L6,20 L19,20 L19,8.3 L15.7,5 Z M16,6.7 L17.3,8 L16,8 L16,6.7 Z M18,19 L7,19 L7,6 L15,6 L15,9 L18,9 L18,19 Z M9.57373047,11.1347656 L9.57373047,10.5 L10.2597656,10.5 L10.2597656,11.1347656 L9.57373047,11.1347656 Z M10.2597656,11.4863281 L10.2597656,13.9985352 C10.2597656,14.3289405 10.2382001,14.5620924 10.1950684,14.697998 C10.1519366,14.8339037 10.0689297,14.9401038 9.94604492,15.0166016 C9.82316019,15.0930993 9.66650486,15.1313477 9.47607422,15.1313477 C9.4077145,15.1313477 9.33406615,15.1252442 9.25512695,15.1130371 C9.17618776,15.10083 9.09114629,15.0825197 9,15.0581055 L9.11962891,14.472168 C9.15218115,14.4786784 9.18269843,14.4839681 9.21118164,14.4880371 C9.23966486,14.4921061 9.26611316,14.4941406 9.29052734,14.4941406 C9.36051467,14.4941406 9.41788715,14.4790854 9.46264648,14.4489746 C9.50740582,14.4188638 9.5371093,14.38265 9.55175781,14.340332 C9.56640632,14.2980141 9.57373047,14.1710623 9.57373047,13.9594727 L9.57373047,11.4863281 L10.2597656,11.4863281 Z M10.9580078,11.4863281 L11.5976562,11.4863281 L11.5976562,11.8671875 C11.6806645,11.7369785 11.792968,11.6311853 11.9345703,11.5498047 C12.0761726,11.4684241 12.2332348,11.4277344 12.4057617,11.4277344 C12.70687,11.4277344 12.9624013,11.5457345 13.1723633,11.7817383 C13.3823253,12.0177421 13.4873047,12.3465148 13.4873047,12.7680664 C13.4873047,13.2010113 13.3815115,13.5375151 13.1699219,13.7775879 C12.9583323,14.0176607 12.7019872,14.1376953 12.4008789,14.1376953 C12.257649,14.1376953 12.1278489,14.1092125 12.0114746,14.0522461 C11.8951003,13.9952797 11.7726243,13.8976244 11.644043,13.7592773 L11.644043,15.0654297 L10.9580078,15.0654297 L10.9580078,11.4863281 Z M11.6367188,12.7387695 C11.6367188,13.0301121 11.6944981,13.2453606 11.8100586,13.3845215 C11.9256191,13.5236823 12.0664054,13.5932617 12.2324219,13.5932617 C12.3919279,13.5932617 12.5245763,13.5293789 12.6303711,13.4016113 C12.7361659,13.2738438 12.7890625,13.0642918 12.7890625,12.7729492 C12.7890625,12.501138 12.7345383,12.2993171 12.6254883,12.1674805 C12.5164383,12.0356439 12.3813485,11.9697266 12.2202148,11.9697266 C12.0525708,11.9697266 11.913412,12.0344232 11.8027344,12.1638184 C11.6920567,12.2932135 11.6367188,12.484862 11.6367188,12.7387695 Z M13.9682617,14.25 L14.7519531,14.3452148 C14.764974,14.4363611 14.7950844,14.4990233 14.8422852,14.5332031 C14.9073896,14.5820315 15.0099277,14.6064453 15.1499023,14.6064453 C15.3289397,14.6064453 15.4632157,14.5795901 15.5527344,14.5258789 C15.612956,14.4900714 15.6585285,14.4322921 15.6894531,14.3525391 C15.7106121,14.2955726 15.7211914,14.1905932 15.7211914,14.0375977 L15.7211914,13.6591797 C15.5161123,13.939129 15.2573258,14.0791016 14.9448242,14.0791016 C14.5965152,14.0791016 14.320639,13.9318049 14.1171875,13.637207 C13.9576815,13.4044585 13.8779297,13.1147478 13.8779297,12.7680664 C13.8779297,12.3334939 13.9825022,12.001466 14.1916504,11.7719727 C14.4007986,11.5424793 14.6608057,11.4277344 14.9716797,11.4277344 C15.2923193,11.4277344 15.5568023,11.5685207 15.7651367,11.8500977 L15.7651367,11.4863281 L16.4072266,11.4863281 L16.4072266,13.8129883 C16.4072266,14.1189794 16.381999,14.3476555 16.331543,14.4990234 C16.281087,14.6503914 16.2102869,14.7692053 16.1191406,14.8554688 C16.0279943,14.9417322 15.9063321,15.0092771 15.7541504,15.0581055 C15.6019686,15.1069338 15.4095064,15.1313477 15.1767578,15.1313477 C14.7373025,15.1313477 14.4256194,15.0560717 14.2416992,14.9055176 C14.057779,14.7549634 13.9658203,14.5641288 13.9658203,14.3330078 C13.9658203,14.3102212 13.9666341,14.2825522 13.9682617,14.25 Z M14.5810547,12.7290039 C14.5810547,13.0040704 14.6343582,13.2054844 14.7409668,13.333252 C14.8475754,13.4610195 14.9790031,13.5249023 15.1352539,13.5249023 C15.302898,13.5249023 15.4444981,13.4593919 15.5600586,13.3283691 C15.6756191,13.1973464 15.7333984,13.0032565 15.7333984,12.7460938 C15.7333984,12.4775377 15.6780604,12.2781582 15.5673828,12.1479492 C15.4567052,12.0177402 15.3167326,11.9526367 15.1474609,11.9526367 C14.9830721,11.9526367 14.8475754,12.0165195 14.7409668,12.1442871 C14.6343582,12.2720547 14.5810547,12.4669583 14.5810547,12.7290039 Z" id="Shape" fill="#000000" fill-rule="nonzero"></path>
        </g>
    </g>
</svg>