<?xml version="1.0" encoding="UTF-8"?>
<svg width="24px" height="24px" viewBox="0 0 24 24" version="1.1" xmlns="http://www.w3.org/2000/svg" xmlns:xlink="http://www.w3.org/1999/xlink">
    <!-- Generator: Sketch 48.1 (47250) - http://www.bohemiancoding.com/sketch -->
    <title>24x24</title>
    <desc>Created with Sketch.</desc>
    <defs></defs>
    <g id="Page-1" stroke="none" stroke-width="1" fill="none" fill-rule="evenodd">
        <g id="File-png">
            <rect id="24x24" x="0" y="0" width="24" height="24"></rect>
            <path d="M15.7,5 L6,5 L6,20 L19,20 L19,8.3 L15.7,5 Z M16,6.7 L17.3,8 L16,8 L16,6.7 Z M18,19 L7,19 L7,6 L15,6 L15,9 L18,9 L18,19 Z M8.5,11.0537219 L9.08646377,11.0537219 L9.08646377,11.402914 C9.16257014,11.2835315 9.26553603,11.1865347 9.39536454,11.1119206 C9.52519305,11.0373065 9.66919607,11 9.82737793,11 C10.10345,11 10.3377348,11.1081888 10.5302391,11.3245696 C10.7227434,11.5409505 10.8189942,11.8423869 10.8189942,12.2288878 C10.8189942,12.6258348 10.7219973,12.9343594 10.5280007,13.1544709 C10.3340041,13.3745825 10.0989732,13.4846366 9.82290111,13.4846366 C9.69158032,13.4846366 9.57257264,13.4585221 9.4658745,13.4062922 C9.35917635,13.3540623 9.24688384,13.2645268 9.12899359,13.1376828 L9.12899359,14.3352329 L8.5,14.3352329 L8.5,11.0537219 Z M9.12227835,12.2020269 C9.12227835,12.4691453 9.17525356,12.6664966 9.28120556,12.7940867 C9.38715756,12.9216768 9.51623799,12.9854709 9.66845072,12.9854709 C9.81469433,12.9854709 9.93631346,12.9268997 10.0333118,12.8097556 C10.1303101,12.6926115 10.1788085,12.5004831 10.1788085,12.2333647 C10.1788085,11.9841536 10.1288178,11.7991135 10.0288349,11.6782386 C9.92885208,11.5573638 9.80499455,11.4969273 9.65725867,11.4969273 C9.50355365,11.4969273 9.37596548,11.5562446 9.27449033,11.674881 C9.17301517,11.7935174 9.12227835,11.9692309 9.12227835,12.2020269 Z M13.4804652,13.4309147 L12.8514717,13.4309147 L12.8514717,12.2176958 C12.8514717,11.9610233 12.8380413,11.7950095 12.8111803,11.7196492 C12.7843192,11.644289 12.7406706,11.5857178 12.6802332,11.543934 C12.6197958,11.5021501 12.5470481,11.4812584 12.4619881,11.4812584 C12.3530515,11.4812584 12.2553085,11.5111036 12.1687562,11.5707949 C12.0822039,11.6304862 12.0228866,11.7095759 11.9908025,11.8080665 C11.9587184,11.9065571 11.9426767,12.0886127 11.9426767,12.3542389 L11.9426767,13.4309147 L11.3136831,13.4309147 L11.3136831,11.0537219 L11.8979084,11.0537219 L11.8979084,11.402914 C12.1053356,11.1343033 12.366481,11 12.6813524,11 C12.8201346,11 12.9469766,11.0249953 13.0618823,11.0749868 C13.176788,11.1249782 13.2637121,11.1887723 13.3226572,11.266371 C13.3816024,11.3439696 13.4226395,11.4320129 13.4457699,11.5305035 C13.4689002,11.6289941 13.4804652,11.7700126 13.4804652,11.9535632 L13.4804652,13.4309147 Z M14.0602138,13.5876035 L14.7787438,13.6749016 C14.7906821,13.7584693 14.8182889,13.8159213 14.861565,13.8472592 C14.9212563,13.8920277 15.0152686,13.9144116 15.1436049,13.9144116 C15.3077559,13.9144116 15.4308673,13.8897893 15.5129427,13.840544 C15.5681572,13.8077138 15.6099404,13.7547386 15.6382938,13.6816168 C15.6576934,13.6293869 15.6673931,13.5331362 15.6673931,13.3928617 L15.6673931,13.045908 C15.4793656,13.3025804 15.2420964,13.4309147 14.9555783,13.4309147 C14.63623,13.4309147 14.3832921,13.2958653 14.1967569,13.0257623 C14.0505133,12.812366 13.9773926,12.5467438 13.9773926,12.2288878 C13.9773926,11.8304486 14.0732702,11.5260277 14.2650284,11.315616 C14.4567866,11.1052043 14.695175,11 14.9802008,11 C15.2741803,11 15.5166725,11.1290804 15.7076845,11.3872452 L15.7076845,11.0537219 L16.2963867,11.0537219 L16.2963867,13.1869279 C16.2963867,13.4674768 16.2732567,13.6771393 16.226996,13.8159215 C16.1807352,13.9547037 16.115822,14.0636386 16.0322542,14.1427295 C15.9486864,14.2218205 15.83714,14.2837492 15.6976117,14.3285177 C15.5580833,14.3732861 15.3816237,14.39567 15.1682274,14.39567 C14.7653113,14.39567 14.4795437,14.326653 14.3109159,14.188617 C14.142288,14.0505809 14.0579754,13.8756135 14.0579754,13.6637095 C14.0579754,13.6428176 14.0587215,13.6174492 14.0602138,13.5876035 Z M14.622055,12.1930732 C14.622055,12.4452689 14.6709265,12.6299359 14.768671,12.7470801 C14.8664154,12.8642242 14.9869154,12.9227953 15.1301744,12.9227953 C15.2838794,12.9227953 15.413706,12.8627319 15.519658,12.7426032 C15.62561,12.6224746 15.6785852,12.4445226 15.6785852,12.2087421 C15.6785852,11.9625156 15.6278484,11.7797139 15.5263732,11.6603313 C15.4248981,11.5409488 15.2965638,11.4812584 15.1413665,11.4812584 C14.990646,11.4812584 14.8664154,11.5398296 14.768671,11.6569737 C14.6709265,11.7741178 14.622055,11.9528159 14.622055,12.1930732 Z" id="Shape" fill="#000000" fill-rule="nonzero"></path>
        </g>
    </g>
</svg>