<?xml version="1.0" encoding="UTF-8"?>
<svg width="24px" height="24px" viewBox="0 0 24 24" version="1.1" xmlns="http://www.w3.org/2000/svg" xmlns:xlink="http://www.w3.org/1999/xlink">
    <!-- Generator: Sketch 48.1 (47250) - http://www.bohemiancoding.com/sketch -->
    <title>24x24</title>
    <desc>Created with Sketch.</desc>
    <defs></defs>
    <g id="Page-1" stroke="none" stroke-width="1" fill="none" fill-rule="evenodd">
        <g id="File-audio">
            <rect id="24x24" x="0" y="0" width="24" height="24"></rect>
            <path d="M15.2,4.5 L5.5,4.5 L5.5,19.5 L18.5,19.5 L18.5,7.8 L15.2,4.5 Z M15.5,6.2 L16.8,7.5 L15.5,7.5 L15.5,6.2 Z M17.5,18.5 L6.5,18.5 L6.5,5.5 L14.5,5.5 L14.5,8.5 L17.5,8.5 L17.5,18.5 Z M10.5,12.9 C10.4,12.9 10.4,12.9 10.3,12.9 C9.7,12.9 9.3,13.3 9.3,13.9 C9.3,14.5 9.7,14.9 10.3,14.9 C10.9,14.9 11.3,14.5 11.3,13.9 L11.3,11.3 L13.2,10.8 L13.2,13 C13.1,13 13.1,13 13,13 C12.4,13 12,13.4 12,14 C12,14.6 12.4,15 13,15 C13.6,15 14,14.6 14,14 L14,9.6 L10.5,10.6 L10.5,12.9 Z" id="Shape" fill="#000000" fill-rule="nonzero"></path>
        </g>
    </g>
</svg>