<?xml version="1.0" encoding="UTF-8"?>
<svg width="24px" height="24px" viewBox="0 0 24 24" version="1.1" xmlns="http://www.w3.org/2000/svg" xmlns:xlink="http://www.w3.org/1999/xlink">
    <!-- Generator: Sketch 48.2 (47327) - http://www.bohemiancoding.com/sketch -->
    <title>Font-Color</title>
    <desc>Created with Sketch.</desc>
    <defs></defs>
    <g id="SVG👌" stroke="none" stroke-width="1" fill="none" fill-rule="evenodd">
        <g id="Font-Color">
            <rect id="24x24" x="0" y="0" width="24" height="24"></rect>
            <path d="M9.8928709,17.296875 C9.60478353,17.565431 9.2861832,17.7851554 8.93706036,17.9560547 C8.58793752,18.126954 8.19121297,18.2124023 7.74687481,18.2124023 C7.3757792,18.2124023 7.03520644,18.1538092 6.72514629,18.0366211 C6.41508615,17.919433 6.14775484,17.7595225 5.92314434,17.5568848 C5.69853384,17.354247 5.52397504,17.1186537 5.3994627,16.8500977 C5.27495036,16.5815416 5.21269512,16.2959 5.21269512,15.9931641 C5.21269512,15.6708968 5.26030207,15.3852552 5.35551739,15.1362305 C5.45073271,14.8872058 5.57768456,14.6711435 5.73637676,14.4880371 C5.89506896,14.3049307 6.08061398,14.1511237 6.29301739,14.0266113 C6.50542079,13.902099 6.72758654,13.8020023 6.95952129,13.7263184 C7.19145605,13.6506344 7.42827009,13.596924 7.66997051,13.5651855 C7.91167094,13.5334471 8.14238152,13.5175781 8.36210918,13.5175781 C8.71367344,13.5175781 9.00908064,13.5285643 9.24833965,13.5505371 C9.48759866,13.5725099 9.70488165,13.6030271 9.90019512,13.6420898 L9.90751934,13.0195312 C9.90751934,12.7509752 9.86845723,12.5178233 9.79033184,12.3200684 C9.71220645,12.1223135 9.60234427,11.9587409 9.460742,11.8293457 C9.31913973,11.6999505 9.14946369,11.6035159 8.95170879,11.5400391 C8.7539539,11.4765622 8.53300884,11.4448242 8.288867,11.4448242 C8.05937366,11.4448242 7.8396493,11.4606932 7.62968731,11.4924316 C7.41972532,11.5241701 7.22319408,11.5656736 7.0400877,11.6169434 C6.85698132,11.6682131 6.68852597,11.7268063 6.53471661,11.7927246 C6.38090724,11.8586429 6.25029332,11.9282223 6.1428709,12.0014648 L5.69609356,11.0566406 C5.87675853,10.9394525 6.07451045,10.830811 6.28935528,10.7307129 C6.5042001,10.6306147 6.73002792,10.5451664 6.96684551,10.4743652 C7.2036631,10.4035641 7.4453599,10.3474123 7.69194317,10.3059082 C7.93852643,10.2644041 8.18144393,10.2436523 8.42070293,10.2436523 C8.86015826,10.2436523 9.25566211,10.2961421 9.60722637,10.401123 C9.95879063,10.506104 10.2566392,10.6684559 10.5007811,10.8881836 C10.7449229,11.1079113 10.9329093,11.3874495 11.0647459,11.7268066 C11.1965825,12.0661638 11.2624998,12.4726539 11.2624998,12.9462891 L11.2551756,16.7402344 L12.0974607,16.7402344 L12.0974607,18 L9.8928709,18 L9.8928709,17.296875 Z M8.04716778,17.0698242 C8.22783274,17.0698242 8.408495,17.0478518 8.58915997,17.0039062 C8.76982493,16.9599607 8.94072166,16.9001469 9.10185528,16.8244629 C9.2629889,16.7487789 9.41191319,16.6608892 9.54863262,16.560791 C9.68535206,16.4606929 9.800097,16.3569341 9.8928709,16.2495117 L9.90019512,14.5356445 L8.31816387,14.5356445 C8.05449068,14.5356445 7.81401457,14.5649411 7.59672832,14.6235352 C7.37944208,14.6821292 7.19145568,14.7675776 7.03276348,14.8798828 C6.87407128,14.9921881 6.7507815,15.1313468 6.66289043,15.2973633 C6.57499937,15.4633797 6.5310545,15.6538075 6.5310545,15.8686523 C6.5310545,16.0688487 6.56767522,16.2434075 6.64091778,16.392334 C6.71416033,16.5412605 6.81791906,16.665771 6.95219707,16.7658691 C7.08647509,16.8659673 7.2463856,16.9416501 7.4319334,16.9929199 C7.61748121,17.0441897 7.82255728,17.0698242 8.04716778,17.0698242 Z" id="Combined-Shape" fill="#000000"></path>
            <path d="M16.7402337,5.94403992 C16.8846281,6.17356542 17.0660864,6.46994152 17.27672,6.82671377 C17.5945141,7.36499513 17.9036116,7.91484405 18.1869493,8.45507233 C18.9929858,9.99190906 19.4642857,11.1917849 19.4642857,11.9668748 C19.4642857,13.8944464 17.9118695,15.4642857 16,15.4642857 C14.0885278,15.4642857 12.5357143,13.894256 12.5357143,11.9668748 C12.5357143,11.1914357 13.0070736,9.99120423 13.8130507,8.45448081 C14.0964498,7.91413543 14.4056504,7.36415299 14.7233031,6.82623114 C14.9344666,6.46864085 15.1190203,6.16735891 15.2594788,5.94449394 C15.4204121,5.68999844 15.6993825,5.53571429 16,5.53571429 C16.3003336,5.53571429 16.5791064,5.68988913 16.7402337,5.94403992 Z M15.5228717,7.29839095 C15.212644,7.82373924 14.9108961,8.36046532 14.6353826,8.88577551 C13.902616,10.2829116 13.4642857,11.3990405 13.4642857,11.9668748 C13.4642857,13.3836981 14.6036695,14.5357143 16,14.5357143 C17.3966995,14.5357143 18.5357143,13.3839161 18.5357143,11.9668748 C18.5357143,11.3994191 18.0974197,10.2835712 17.3646174,8.88636704 C17.0891533,8.36115089 16.7874917,7.82452981 16.4771053,7.2987956 C16.2927648,6.98655875 16.1315691,6.72211214 15.9999671,6.51141072 C15.8705722,6.71834332 15.7072524,6.98615545 15.5228717,7.29839095 Z" id="Fill-1" fill="#000000" fill-rule="nonzero"></path>
        </g>
    </g>
</svg>