<?xml version="1.0" encoding="UTF-8"?>
<svg width="24px" height="24px" viewBox="0 0 24 24" version="1.1" xmlns="http://www.w3.org/2000/svg" xmlns:xlink="http://www.w3.org/1999/xlink">
    <!-- Generator: Sketch 48.1 (47250) - http://www.bohemiancoding.com/sketch -->
    <title>24x24</title>
    <desc>Created with Sketch.</desc>
    <defs></defs>
    <g id="Page-1" stroke="none" stroke-width="1" fill="none" fill-rule="evenodd">
        <g id="Heart">
            <rect id="24x24" x="0" y="0" width="24" height="24"></rect>
            <path d="M12,18.22 L5.92,12.16 C4.62066097,10.8140604 4.63949924,8.67518828 5.96234376,7.35234376 C7.28518828,6.02949924 9.42406042,6.01066097 10.77,7.31 L12,8.52 L13.2,7.31 C14.5459396,6.01066097 16.6848117,6.02949924 18.0076562,7.35234376 C19.3305008,8.67518828 19.349339,10.8140604 18.05,12.16 L12,18.22 Z M8.35,7.31 C7.70740846,7.30043582 7.08782601,7.54898924 6.63,8 C5.69082598,8.95046573 5.69082598,10.4795343 6.63,11.43 L12,16.81 L17.35,11.45 C17.9662832,10.8337169 18.2069691,9.9354646 17.9813939,9.09360616 C17.7558186,8.25174772 17.0982523,7.59418142 16.2563938,7.36860614 C15.4145354,7.14303085 14.5162831,7.38371684 13.9,8 L12,9.94 L10.07,8 C9.6115512,7.54994133 8.99238367,7.30155435 8.35,7.31 Z" id="Shape" fill="#000000" fill-rule="nonzero"></path>
        </g>
    </g>
</svg>