<?xml version="1.0" encoding="UTF-8"?>
<svg width="24px" height="24px" viewBox="0 0 24 24" version="1.1" xmlns="http://www.w3.org/2000/svg" xmlns:xlink="http://www.w3.org/1999/xlink">
    <!-- Generator: Sketch 48.1 (47250) - http://www.bohemiancoding.com/sketch -->
    <title>24x24</title>
    <desc>Created with Sketch.</desc>
    <defs></defs>
    <g id="Page-1" stroke="none" stroke-width="1" fill="none" fill-rule="evenodd">
        <g id="Help">
            <rect id="24x24" x="0" y="0" width="24" height="24"></rect>
            <path d="M12,5 C8.13400675,5 5,8.13400675 5,12 C5,15.8659932 8.13400675,19 12,19 C15.8659932,19 19,15.8659932 19,12 C19,8.13400675 15.8659932,5 12,5 Z M12,18 C8.6862915,18 6,15.3137085 6,12 C6,8.6862915 8.6862915,6 12,6 C15.3137085,6 18,8.6862915 18,12 C18,13.5912989 17.367859,15.1174224 16.2426407,16.2426407 C15.1174224,17.367859 13.5912989,18 12,18 Z M12,8.5 C11.4735164,8.45039364 10.9513133,8.63096023 10.5679225,8.99518155 C10.1845316,9.35940286 9.97744025,9.87166604 10,10.4 L10.91,10.4 C10.8912116,10.108165 11.001111,9.82272978 11.2107617,9.61884931 C11.4204124,9.41496884 11.7088029,9.3130763 12,9.34 C12.54,9.34 13,9.61 13,10.24 C13,10.71 12.72,10.93 12.27,11.24 C11.7334789,11.5471554 11.3960963,12.1119869 11.38,12.73 L11.38,13.08 L12.29,13.08 L12.29,12.81 C12.29,12.27 12.49,12.11 13.04,11.69 C13.6038137,11.3910925 13.9685631,10.8173722 14,10.18 C13.985195,9.68139156 13.7583123,9.21279819 13.3763571,8.89195584 C12.9944019,8.5711135 12.4936801,8.42851908 12,8.5 Z M11.9,13.85 C11.5193717,13.8717863 11.2261739,14.1941683 11.240495,14.5751505 C11.254816,14.9561327 11.5713889,15.2555935 11.9525786,15.2487431 C12.3337683,15.2418928 12.639377,14.9312508 12.64,14.55 C12.6433196,14.3562681 12.56503,14.1700676 12.4242692,14.0369154 C12.2835084,13.9037633 12.0932489,13.835931 11.9,13.85 Z" id="Combined-Shape" fill="#000000" fill-rule="nonzero"></path>
        </g>
    </g>
</svg>