<?xml version="1.0" encoding="UTF-8"?>
<svg width="24px" height="24px" viewBox="0 0 24 24" version="1.1" xmlns="http://www.w3.org/2000/svg" xmlns:xlink="http://www.w3.org/1999/xlink">
    <!-- Generator: Sketch 48.1 (47250) - http://www.bohemiancoding.com/sketch -->
    <title>24x24</title>
    <desc>Created with Sketch.</desc>
    <defs></defs>
    <g id="Page-1" stroke="none" stroke-width="1" fill="none" fill-rule="evenodd">
        <g id="Image">
            <rect id="24x24" x="0" y="0" width="24" height="24"></rect>
            <path d="M17,7 L7,7 C6.17157288,7 5.5,7.67157288 5.5,8.5 L5.5,16.5 C5.5,17.3284271 6.17157288,18 7,18 L17,18 C17.8284271,18 18.5,17.3284271 18.5,16.5 L18.5,8.5 C18.5,7.67157288 17.8284271,7 17,7 Z M7,8 L17,8 C17.2761424,8 17.5,8.22385763 17.5,8.5 L17.5,13.29 L14.94,10.73 L12.43,13.31 L10.9,11.78 L6.5,16.3 L6.5,8.5 C6.5,8.22385763 6.72385763,8 7,8 Z M14.71,17 L7.21,17 L10.91,13.2 L14.71,17 Z M17.5,16.5 C17.5,16.7761424 17.2761424,17 17,17 L16.12,17 L13.12,14 L15,12.16 L17.55,14.71 L17.5,16.5 Z M8.5,11 C7.94771525,11 7.5,10.5522847 7.5,10 C7.5,9.44771525 7.94771525,9 8.5,9 C9.05228475,9 9.5,9.44771525 9.5,10 C9.5,10.5522847 9.05228475,11 8.5,11 Z" id="Shape" fill="#000000" fill-rule="nonzero"></path>
        </g>
    </g>
</svg>