<?xml version="1.0" encoding="UTF-8"?>
<svg width="24px" height="24px" viewBox="0 0 24 24" version="1.1" xmlns="http://www.w3.org/2000/svg" xmlns:xlink="http://www.w3.org/1999/xlink">
    <!-- Generator: Sketch 48.1 (47250) - http://www.bohemiancoding.com/sketch -->
    <title>24x24</title>
    <desc>Created with Sketch.</desc>
    <defs></defs>
    <g id="Page-1" stroke="none" stroke-width="1" fill="none" fill-rule="evenodd">
        <g id="Mail">
            <rect id="24x24" x="0" y="0" width="24" height="24"></rect>
            <path d="M17.5,6.5 L6.5,6.5 C5.67157288,6.5 5,7.17157288 5,8 L5,16 C5,16.8284271 5.67157288,17.5 6.5,17.5 L17.5,17.5 C18.3284271,17.5 19,16.8284271 19,16 L19,8 C19,7.17157288 18.3284271,6.5 17.5,6.5 Z M16.76,7.5 L12,10.88 L7.3,7.5 L16.76,7.5 Z M18,16 C18,16.2761424 17.7761424,16.5 17.5,16.5 L6.5,16.5 C6.22385763,16.5 6,16.2761424 6,16 L6,8 C5.98596443,7.94082082 5.98596443,7.87917918 6,7.82 L12,12.12 L18,7.86 C18.0094286,7.90619043 18.0094286,7.95380957 18,8 L18,16 Z" id="Shape" fill="#000000" fill-rule="nonzero"></path>
        </g>
    </g>
</svg>