<?xml version="1.0" encoding="UTF-8"?>
<svg width="24px" height="24px" viewBox="0 0 24 24" version="1.1" xmlns="http://www.w3.org/2000/svg" xmlns:xlink="http://www.w3.org/1999/xlink">
    <!-- Generator: Sketch 48.1 (47250) - http://www.bohemiancoding.com/sketch -->
    <title>24x24</title>
    <desc>Created with Sketch.</desc>
    <defs></defs>
    <g id="Page-1" stroke="none" stroke-width="1" fill="none" fill-rule="evenodd">
        <g id="Map-Pin">
            <path d="M15.6,6.43 C14.640889,5.4889801 13.3433967,4.97358733 12,5 C10.642841,4.9627052 9.32886502,5.47891005 8.36,6.43 C7.41391456,7.42991968 6.92192491,8.77565605 7,10.15 C7,12.6 8.61,15.46 11.64,18.63 L12,19 L12.36,18.63 C15.42,15.45 16.98,12.63 17,10.14 C17.0646232,8.7632318 16.5580635,7.42084867 15.6,6.43 Z M12,17.55 C9.39,14.73 8,12.23 8,10.12 C7.92598143,9.01499398 8.31340684,7.9287545 9.07,7.12 C9.8534445,6.36331888 10.9115802,5.95884382 12,6 C13.0864423,5.96425321 14.1406437,6.37221473 14.92,7.13 C15.6819198,7.93784741 16.0826044,9.02077862 16.03,10.13 C16,12.23 14.63,14.72 12,17.55 Z M12,8 C10.8954305,8 10,8.8954305 10,10 C10,11.1045695 10.8954305,12 12,12 C13.1045695,12 14,11.1045695 14,10 C14,8.8954305 13.1045695,8 12,8 Z M12,10.85 C11.6512575,10.8499764 11.3370562,10.6393456 11.2045518,10.3167563 C11.0720474,9.99416692 11.1474768,9.6234943 11.3955129,9.37834242 C11.6435489,9.13319054 12.0150783,9.06210146 12.3360959,9.19836965 C12.6571135,9.33463785 12.8640551,9.6512811 12.86,10 C12.8545222,10.471055 12.4710869,10.8500318 12,10.85 Z" id="Shape" fill="#000000" fill-rule="nonzero"></path>
            <rect id="24x24" x="0" y="0" width="24" height="24"></rect>
        </g>
    </g>
</svg>