<?xml version="1.0" encoding="UTF-8"?>
<svg width="24px" height="24px" viewBox="0 0 24 24" version="1.1" xmlns="http://www.w3.org/2000/svg" xmlns:xlink="http://www.w3.org/1999/xlink">
    <!-- Generator: Sketch 48.1 (47250) - http://www.bohemiancoding.com/sketch -->
    <title>24x24</title>
    <desc>Created with Sketch.</desc>
    <defs></defs>
    <g id="Page-1" stroke="none" stroke-width="1" fill="none" fill-rule="evenodd">
        <g id="Message">
            <rect id="24x24" x="0" y="0" width="24" height="24"></rect>
            <path d="M18,5.5 L6,5.5 C5.44771525,5.5 5,5.94771525 5,6.5 L5,14.5 C5,15.0522847 5.44771525,15.5 6,15.5 L7,15.5 L7,18.5 L11,15.5 L18,15.5 C18.5522847,15.5 19,15.0522847 19,14.5 L19,6.5 C19,5.94771525 18.5522847,5.5 18,5.5 Z M18,14.5 L10.73,14.5 L8.03,16.5 L8.03,14.5 L6,14.5 L6,6.5 L18,6.5 L18,14.5 Z M8,9 L8,10 L16,10 L16,9 L8,9 Z M8,11 L8,12 L12,12 L12,11 L8,11 Z" id="Shape" fill="#000000" fill-rule="nonzero"></path>
        </g>
    </g>
</svg>