<?xml version="1.0" encoding="UTF-8"?>
<svg width="24px" height="24px" viewBox="0 0 24 24" version="1.1" xmlns="http://www.w3.org/2000/svg" xmlns:xlink="http://www.w3.org/1999/xlink">
    <!-- Generator: Sketch 48.1 (47250) - http://www.bohemiancoding.com/sketch -->
    <title>24x24</title>
    <desc>Created with Sketch.</desc>
    <defs></defs>
    <g id="Page-1" stroke="none" stroke-width="1" fill="none" fill-rule="evenodd">
        <g id="Shop">
            <rect id="24x24" x="0" y="0" width="24" height="24"></rect>
            <path d="M18.9,9.4 L18.3,6.3 C18.3,6.1 18,6 17.9,6 L7,6 C6.8,6 6.6,6.2 6.6,6.3 L6,9.4 L6,10.3 C6,10.8 6.2,11.3 6.4,11.6 L6.4,17.2 C6.4,17.9 7,18.5 7.7,18.5 L17.2,18.5 C17.9,18.5 18.5,17.9 18.5,17.2 L18.5,11.6 C18.8,11.3 18.9,10.8 18.9,10.3 L18.9,9.4 Z M11.1,9.4 L13.7,9.4 L13.7,10.3 C13.7,11 13.1,11.6 12.4,11.6 C11.7,11.6 11.1,11 11.1,10.3 L11.1,9.4 Z M7.3,6.8 L17.4,6.8 L17.7,8.5 L6.9,8.5 L7.3,6.8 Z M6.8,10.2 L6.8,9.4 L6.8,9.3 L9.4,9.3 L9.4,10.2 C9.4,10.9 8.8,11.5 8.1,11.5 C7.4,11.6 6.8,10.9 6.8,10.2 Z M14.1,17.6 L10.6,17.6 L10.6,14.7 C10.6,14.4 10.8,14.3 11,14.3 L13.6,14.3 C13.9,14.3 14,14.5 14,14.7 L14,17.6 L14.1,17.6 Z M17.6,17.2 C17.6,17.5 17.4,17.6 17.2,17.6 L15,17.6 L15,14.7 C15,14 14.4,13.4 13.7,13.4 L11.1,13.4 C10.4,13.4 9.8,14 9.8,14.7 L9.8,17.6 L7.6,17.6 C7.3,17.6 7.2,17.4 7.2,17.2 L7.2,12.2 C7.5,12.3 7.7,12.4 8.1,12.4 C9.3,12.4 10.3,11.4 10.3,10.2 C10.3,11.4 11.3,12.4 12.5,12.4 C13.7,12.4 14.7,11.4 14.7,10.2 C14.7,11.4 15.7,12.4 16.9,12.4 C17.2,12.4 17.5,12.3 17.8,12.2 L17.8,17.2 L17.6,17.2 Z M18,10.2 C18,10.9 17.4,11.5 16.7,11.5 C16,11.5 15.4,10.9 15.4,10.2 L15.4,9.3 L18,9.3 L18,9.4 L18,10.2 Z" id="Shape" fill="#000000" fill-rule="nonzero"></path>
        </g>
    </g>
</svg>