<?xml version="1.0" encoding="UTF-8"?>
<svg width="24px" height="24px" viewBox="0 0 24 24" version="1.1" xmlns="http://www.w3.org/2000/svg" xmlns:xlink="http://www.w3.org/1999/xlink">
    <!-- Generator: Sketch 48.2 (47327) - http://www.bohemiancoding.com/sketch -->
    <title>Text-Strikethrough</title>
    <desc>Created with Sketch.</desc>
    <defs></defs>
    <g id="SVG👌" stroke="none" stroke-width="1" fill="none" fill-rule="evenodd">
        <g id="Text-Strikethrough">
            <rect id="24x24" x="0" y="0" width="24" height="24"></rect>
            <path d="M7.55005535,12 L5,12 L5,11 L7.55005535,11 L9.0382633,11 L14.8551167,11 L16.3055529,11 L19,11 L19,12 L16.3055529,12 L14.8551167,12 L9.0382633,12 L7.55005535,12 Z M7.55008014,13 L9.0382633,13 L9.0382633,13.0087891 C9.0382633,13.587568 9.04124773,14.0232727 9.1847812,14.4311523 C9.32831466,14.839032 9.52724402,15.171711 9.78157525,15.4291992 C10.0359065,15.6866875 10.3380777,15.8746739 10.6880979,15.9931641 C11.0381181,16.1116542 11.4221273,16.1708984 11.840137,16.1708984 C12.2732555,16.1708984 12.6711142,16.1184901 13.0337251,16.0136719 C13.396336,15.9088536 13.7073205,15.7322604 13.966688,15.4838867 C14.2260554,15.2355131 14.8551167,14.7542725 14.8551167,13.0087891 L14.8551167,13 L16.3041647,13 C16.2905134,13.6898134 16.1764035,14.3056932 15.9618297,14.8476562 C15.7326798,15.4264352 15.4191772,15.9117819 15.0213125,16.3037109 C14.6234478,16.69564 14.1550825,16.9930003 13.6162025,17.1958008 C13.0773225,17.3986013 12.498161,17.5 11.8787008,17.5 C11.2743494,17.5 10.7090375,17.3997406 10.1827481,17.1992188 C9.65645873,16.9986969 9.19816577,16.7047545 8.80785547,16.3173828 C8.41754518,15.9300111 8.11033781,15.4571968 7.88622416,14.8989258 C7.66403738,14.3454546 7.55199049,13.7124856 7.5500802,13 Z M9.0382633,10 L7.55005535,10 L7.55005535,8.18261719 L6.5,8.18261719 L6.5,7 L10.2091883,7 L10.2091883,8.18261719 L9.0382633,8.18261719 L9.0382633,10 Z M16.3055529,10 L14.8551167,10 L14.8551167,8.18261719 L13.6162025,8.18261719 L13.6162025,7 L17.3253908,7 L17.3253908,8.18261719 L16.3055529,8.18261719 L16.3055529,10 Z" id="Combined-Shape" fill="#000000"></path>
        </g>
    </g>
</svg>