<?xml version="1.0" encoding="UTF-8"?>
<svg width="24px" height="24px" viewBox="0 0 24 24" version="1.1" xmlns="http://www.w3.org/2000/svg" xmlns:xlink="http://www.w3.org/1999/xlink">
    <!-- Generator: Sketch 48.1 (47250) - http://www.bohemiancoding.com/sketch -->
    <title>24x24</title>
    <desc>Created with Sketch.</desc>
    <defs></defs>
    <g id="Page-1" stroke="none" stroke-width="1" fill="none" fill-rule="evenodd">
        <g id="Upload">
            <rect id="24x24" x="0" y="0" width="24" height="24"></rect>
            <path d="M11.5,6.92 L9.89,8.53 L9.18,7.83 L12.01,5 L14.84,7.83 L14.13,8.53 L12.5,6.9 L12.5,14.18 L11.5,14.18 L11.5,6.92 Z M17,10.18 C17.4999271,10.1389209 17.9423545,10.5017114 18,11 L18,18.36 C17.9473978,18.8610238 17.5016213,19.2265605 17,19.18 L7,19.18 C6.49837872,19.2265605 6.05260219,18.8610238 6,18.36 L6,11 C6.05764555,10.5017114 6.50007295,10.1389209 7,10.18 L10.5,10.18 L10.5,11.18 L7,11.18 L7,18.18 L17,18.18 L17,11.18 L13.5,11.18 L13.5,10.18 L17,10.18 Z" id="Combined-Shape" fill="#000000" fill-rule="nonzero"></path>
        </g>
    </g>
</svg>