<?xml version="1.0" encoding="utf-8"?>
<!-- Generator: Adobe Illustrator 22.0.1, SVG Export Plug-In . SVG Version: 6.00 Build 0)  -->
<svg version="1.1" id="Capa_1" xmlns="http://www.w3.org/2000/svg" xmlns:xlink="http://www.w3.org/1999/xlink" x="0px" y="0px"
	 viewBox="0 0 24 24" style="enable-background:new 0 0 24 24;" xml:space="preserve">
<style type="text/css">
	.st0{fill:#1D1D1B;}
</style>
<title>Keyicons/Music/Volume-plus</title>
<desc>Created with Sketch.</desc>
<g id="Vectors">
	<g>
		<path class="st0" d="M14,12c0-0.6-0.4-1-1-1v2C13.6,13,14,12.6,14,12z"/>
		<path class="st0" d="M16,12c0-1.7-1.3-3-3-3v1c1.1,0,2,0.9,2,2c0,1.1-0.9,2-2,2v1C14.7,15,16,13.7,16,12z"/>
		<path class="st0" d="M13,7v1c2.2,0,4,1.8,4,4c0,2.2-1.8,4-4,4v1c2.8,0,5-2.2,5-5S15.8,7,13,7z"/>
		<path class="st0" d="M7,9c-0.6,0-1,0.4-1,1v4c0,0.6,0.4,1,1,1h2l3,2V7L9,9H7z M11,8.9v6.3L9.3,14H7v-4h2.3L11,8.9z"/>
	</g>
</g>
</svg>
