<svg width="24" height="24" viewBox="0 0 24 24" fill="none" xmlns="http://www.w3.org/2000/svg">
<path d="M5.82351 17H18.1765C19.1836 17 20 16.1836 20 15.1765C20 14.5107 19.6371 13.8978 19.0533 13.5776L18.3442 13.1887C18.1272 13.0697 17.9777 12.8567 17.9397 12.6122L17.1276 7.39163C16.7344 4.86404 14.558 3 12 3C9.44202 3 7.26559 4.86404 6.87241 7.39163L6.06033 12.6122C6.02229 12.8567 5.87285 13.0697 5.65585 13.1887L4.94671 13.5776C4.3629 13.8978 4 14.5107 4 15.1765C4 16.1836 4.81641 17 5.82351 17Z" stroke="#0C0310" stroke-width="2" stroke-linecap="round"/>
<path d="M14 21C13.5087 21.6137 12.7947 22 12 22C11.2053 22 10.4913 21.6137 10 21" stroke="#0C0310" stroke-width="2" stroke-linecap="round"/>
</svg>
