<?xml version="1.0" encoding="utf-8"?>
<!-- Generator: Adobe Illustrator 19.0.0, SVG Export Plug-In . SVG Version: 6.00 Build 0)  -->
<svg version="1.1" id="Layer_1" xmlns="http://www.w3.org/2000/svg" xmlns:xlink="http://www.w3.org/1999/xlink" x="0px" y="0px"
	 viewBox="-295 387 20 20" style="enable-background:new -295 387 20 20;" xml:space="preserve">
<style type="text/css">
	.st0{fill:#FFFFFF;fill-opacity:0;}
</style>
<title>Bolt</title>
<desc>Created with Sketch.</desc>
<g id="SVG_xD83D__xDC4C_">
	<g id="Bolt">
		<rect id="_x32_0x20" x="-295" y="387" class="st0" width="20" height="20"/>
		<g id="Combined-Shape">
			<path d="M-288.3,403.6c-0.1,0-0.2,0-0.3-0.1c-0.2-0.1-0.3-0.4-0.2-0.6l2.4-5.4h-3c-0.2,0-0.3-0.1-0.4-0.2c-0.1-0.2-0.1-0.3,0-0.5
				l3.4-6c0.1-0.2,0.3-0.3,0.4-0.3h4.8c0.2,0,0.3,0.1,0.4,0.2c0.1,0.2,0.1,0.3,0,0.5l-2.1,3.6h2.3c0.2,0,0.4,0.1,0.5,0.3
				c0.1,0.2,0,0.4-0.1,0.5l-7.8,7.8C-288.1,403.5-288.2,403.6-288.3,403.6z M-288.6,396.4h2.9c0.2,0,0.3,0.1,0.4,0.2
				c0.1,0.1,0.1,0.3,0,0.5l-1.6,3.7l5.1-5h-1.9c-0.2,0-0.3-0.1-0.4-0.2c-0.1-0.2-0.1-0.3,0-0.5l2.1-3.6h-3.7L-288.6,396.4z"/>
		</g>
	</g>
</g>
</svg>
