<?xml version="1.0" encoding="UTF-8"?>
<svg width="20px" height="20px" viewBox="0 0 20 20" version="1.1" xmlns="http://www.w3.org/2000/svg" xmlns:xlink="http://www.w3.org/1999/xlink">
    <!-- Generator: Sketch 47.1 (45422) - http://www.bohemiancoding.com/sketch -->
    <title>Camera</title>
    <desc>Created with Sketch.</desc>
    <defs></defs>
    <g id="SVG👌" stroke="none" stroke-width="1" fill="none" fill-rule="evenodd" stroke-linecap="square">
        <g id="Camera" stroke="#000000" stroke-width="0.875">
            <path d="M6.79166667,6.83333333 L7.18100556,5.6096968 L7.18100556,5.6096968 C7.29653921,5.24659106 7.63377257,5 8.01481562,5 L8.01481562,5 L11.9851844,5 L11.9851844,5 C12.3662274,5 12.7034608,5.24659106 12.8189944,5.6096968 L13.2083333,6.83333333 L16.125,6.83333333 C16.6082492,6.83333333 17,7.22508418 17,7.70833333 L17,15.125 L17,15.125 C17,15.6082492 16.6082492,16 16.125,16 L3.875,16 C3.39175084,16 3,15.6082492 3,15.125 L3,7.70833333 C3,7.22508418 3.39175084,6.83333333 3.875,6.83333333 L3.875,6.83333333 L6.79166667,6.83333333 Z M10,8.5 C8.61928813,8.5 7.5,9.61928813 7.5,11 L7.5,11 C7.5,12.3807119 8.61928813,13.5 10,13.5 L10,13.5 C11.3807119,13.5 12.5,12.3807119 12.5,11 L12.5,11 C12.5,9.61928813 11.3807119,8.5 10,8.5 Z" id="camera"></path>
        </g>
    </g>
</svg>