<?xml version="1.0" encoding="utf-8"?>
<!-- Generator: Adobe Illustrator 22.0.1, SVG Export Plug-In . SVG Version: 6.00 Build 0)  -->
<svg version="1.1" id="Capa_1" xmlns="http://www.w3.org/2000/svg" xmlns:xlink="http://www.w3.org/1999/xlink" x="0px" y="0px"
	 viewBox="0 0 20 20" style="enable-background:new 0 0 20 20;" xml:space="preserve">
<title>Camera</title>
<desc>Created with Sketch.</desc>
<g id="SVG_xD83D__xDC4C_">
	<g id="Camera">
		<path d="M16.1,16.4H3.9c-0.7,0-1.3-0.6-1.3-1.3V7.7c0-0.7,0.6-1.3,1.3-1.3h2.6l0.3-0.9C6.9,4.9,7.4,4.6,8,4.6h4
			c0.6,0,1.1,0.4,1.3,0.9l0.3,0.9h2.6c0.7,0,1.3,0.6,1.3,1.3v7.4C17.4,15.8,16.8,16.4,16.1,16.4z M3.9,7.3c-0.2,0-0.4,0.2-0.4,0.4
			v7.4c0,0.2,0.2,0.4,0.4,0.4h12.2c0.2,0,0.4-0.2,0.4-0.4V7.7c0-0.2-0.2-0.4-0.4-0.4h-3.2l-0.5-1.5c-0.1-0.2-0.2-0.3-0.4-0.3H8
			c-0.2,0-0.4,0.1-0.4,0.3L7.1,7.3H3.9z M10,13.9c-1.6,0-2.9-1.3-2.9-2.9c0-1.6,1.3-2.9,2.9-2.9c1.6,0,2.9,1.3,2.9,2.9
			C12.9,12.6,11.6,13.9,10,13.9z M10,8.9c-1.1,0-2.1,0.9-2.1,2.1c0,1.1,0.9,2.1,2.1,2.1c1.1,0,2.1-0.9,2.1-2.1
			C12.1,9.9,11.1,8.9,10,8.9z"/>
	</g>
</g>
</svg>
