<?xml version="1.0" encoding="UTF-8"?>
<svg width="24px" height="24px" viewBox="0 0 24 24" version="1.1" xmlns="http://www.w3.org/2000/svg" xmlns:xlink="http://www.w3.org/1999/xlink">
    <!-- Generator: Sketch 48.1 (47250) - http://www.bohemiancoding.com/sketch -->
    <title>24x24</title>
    <desc>Created with Sketch.</desc>
    <defs></defs>
    <g id="Page-1" stroke="none" stroke-width="1" fill="none" fill-rule="evenodd">
        <g id="X">
            <rect id="24x24" x="0" y="0" width="24" height="24"></rect>
            <path d="M12,5 C8.13400675,5 5,8.13400675 5,12 C5,15.8659932 8.13400675,19 12,19 C15.8659932,19 19,15.8659932 19,12 C19,8.13400675 15.8659932,5 12,5 Z M12,18 C8.6862915,18 6,15.3137085 6,12 C6,8.6862915 8.6862915,6 12,6 C15.3137085,6 18,8.6862915 18,12 C18,13.5912989 17.367859,15.1174224 16.2426407,16.2426407 C15.1174224,17.367859 13.5912989,18 12,18 Z M13.77,9.52 L12,11.29 L10.23,9.52 L9.53,10.23 L11.29,12 L9.53,13.77 L10.23,14.47 L12,12.71 L13.77,14.47 L14.47,13.77 L12.71,12 L14.47,10.23 L13.77,9.52 Z" id="Shape" fill="#000000" fill-rule="nonzero"></path>
        </g>
    </g>
</svg>