<?xml version="1.0" encoding="UTF-8"?>
<svg width="24px" height="24px" viewBox="0 0 24 24" version="1.1" xmlns="http://www.w3.org/2000/svg" xmlns:xlink="http://www.w3.org/1999/xlink">
    <!-- Generator: Sketch 48.1 (47250) - http://www.bohemiancoding.com/sketch -->
    <title>24x24</title>
    <desc>Created with Sketch.</desc>
    <defs></defs>
    <g id="Page-1" stroke="none" stroke-width="1" fill="none" fill-rule="evenodd">
        <g id="Download-cloud">
            <rect id="24x24" x="0" y="0" width="24" height="24"></rect>
            <path d="M9.913412,16.1501694 L11.523412,17.7601694 L11.523412,10.5001694 L12.523412,10.5001694 L12.523412,17.7801694 L14.153412,16.1501694 L14.863412,16.8601694 L12.033412,19.6801694 L9.203412,16.8601694 L9.913412,16.1501694 Z M17.143412,9.36016939 L17.143412,9.32016939 C18.5143559,9.91597926 19.272664,11.3980341 18.9538071,12.8584473 C18.6349502,14.3188605 17.3279312,15.3499856 15.833412,15.3201694 L13.283412,15.3201694 L13.283412,14.3201694 L15.823412,14.3201694 C16.8655229,14.3281162 17.7588656,13.5774723 17.9305962,12.5495779 C18.1023267,11.5216835 17.5015101,10.52141 16.513412,10.1901694 C16.3315838,10.1255752 16.203153,9.9621178 16.183412,9.77016939 C15.9628497,7.67041989 14.2077376,6.06683192 12.0966574,6.03623655 C9.98557721,6.00564119 8.18473123,7.55769354 7.903412,9.65016939 C7.87178517,9.88077336 7.68521471,10.0590518 7.453412,10.0801694 C6.28256833,10.1353979 5.37818353,11.1293257 5.433412,12.3001694 C5.48864048,13.4710131 6.48256833,14.3753979 7.653412,14.3201694 L10.743412,14.3201694 L10.743412,15.3201694 L7.643412,15.3201694 C6.04372798,15.3320698 4.69422578,14.132144 4.5189797,12.5420436 C4.34373362,10.9519432 5.39953079,9.48692768 6.963412,9.15016939 C7.45218516,6.72104001 9.59567684,4.98023953 12.073412,5.00016939 L12.143412,5.00016939 C14.6457211,5.05164289 16.7518139,6.88815577 17.143412,9.36016939 Z" id="Combined-Shape" fill="#000000" fill-rule="nonzero"></path>
        </g>
    </g>
</svg>