<?xml version="1.0" encoding="UTF-8"?>
<svg width="14px" height="16px" viewBox="0 0 14 16" version="1.1" xmlns="http://www.w3.org/2000/svg" xmlns:xlink="http://www.w3.org/1999/xlink">
    <!-- Generator: Sketch 47.1 (45422) - http://www.bohemiancoding.com/sketch -->
    <title>File-jpg</title>
    <desc>Created with Sketch.</desc>
    <defs></defs>
    <g id="Page-1" stroke="none" stroke-width="1" fill="none" fill-rule="evenodd">
        <g id="File-jpg" transform="translate(-3.000000, -2.000000)" fill-rule="nonzero">
            <rect id="20x20" fill-opacity="0" fill="#FFFFFF" x="0" y="0" width="20" height="20"></rect>
            <path d="M7.359375,9.23046875 L6.50390625,9.23046875 L6.50390625,12.4941406 C6.50390625,12.7490234 6.39257812,12.8515625 6.10839844,12.8515625 C6.07910156,12.8515625 6.02050781,12.8486328 6,12.8457031 L6,13.4755859 C6.03808594,13.4814453 6.16699219,13.4873047 6.234375,13.4873047 C6.96972656,13.4873047 7.359375,13.1533203 7.359375,12.5175781 L7.359375,9.23046875 Z M6.93164062,8.88476562 C7.18359375,8.88476562 7.38867188,8.69140625 7.38867188,8.44238281 C7.38867188,8.1875 7.18359375,8 6.93164062,8 C6.6796875,8 6.47460938,8.1875 6.47460938,8.44238281 C6.47460938,8.69140625 6.6796875,8.88476562 6.93164062,8.88476562 Z M9.76171875,9.19238281 C10.5585938,9.19238281 11.0478516,9.79882812 11.0478516,10.8007812 C11.0478516,11.7998047 10.5615234,12.4091797 9.77636719,12.4091797 C9.31933594,12.4091797 8.97070312,12.1982422 8.80078125,11.84375 L8.78320312,11.84375 L8.78320312,13.3964844 L7.92773438,13.3964844 L7.92773438,9.23046875 L8.77148438,9.23046875 L8.77148438,9.76953125 L8.7890625,9.76953125 C8.95605469,9.41210938 9.31933594,9.19238281 9.76171875,9.19238281 Z M9.47460938,11.7207031 C9.89648438,11.7207031 10.171875,11.3603516 10.171875,10.8007812 C10.171875,10.2441406 9.89648438,9.88085938 9.47460938,9.88085938 C9.05859375,9.88085938 8.78027344,10.25 8.78027344,10.8007812 C8.78027344,11.3574219 9.05566406,11.7207031 9.47460938,11.7207031 Z M12.9375,11.6914062 C13.3652344,11.6914062 13.6376953,11.3515625 13.6376953,10.7949219 C13.6376953,10.2412109 13.3652344,9.88085938 12.9375,9.88085938 C12.515625,9.88085938 12.2490234,10.2353516 12.2490234,10.7949219 C12.2490234,11.3574219 12.5126953,11.6914062 12.9375,11.6914062 Z M12.9228516,13.5546875 C12.0966797,13.5546875 11.5371094,13.1533203 11.4697266,12.59375 L12.3076172,12.59375 C12.375,12.8105469 12.6210938,12.9599609 12.9462891,12.9599609 C13.3886719,12.9599609 13.6347656,12.7138672 13.6347656,12.3505859 L13.6347656,11.7998047 L13.6171875,11.7998047 C13.4707031,12.1337891 13.1015625,12.3505859 12.6474609,12.3505859 C11.8828125,12.3505859 11.3730469,11.7587891 11.3730469,10.7890625 C11.3730469,9.8046875 11.8681641,9.19238281 12.6621094,9.19238281 C13.1132812,9.19238281 13.4677734,9.42089844 13.6318359,9.76953125 L13.6464844,9.76953125 L13.6464844,9.23046875 L14.4902344,9.23046875 L14.4902344,12.3271484 C14.4902344,13.0771484 13.8632812,13.5546875 12.9228516,13.5546875 Z M13.21,2.5 L3.5,2.5 L3.5,17.5 L16.5,17.5 L16.5,5.79 L13.21,2.5 Z M13.5,4.21 L14.79,5.5 L13.5,5.5 L13.5,4.21 Z M15.5,16.5 L4.5,16.5 L4.5,3.5 L12.5,3.5 L12.5,6.5 L15.5,6.5 L15.5,16.5 Z" id="jpg" fill="#000000"></path>
        </g>
    </g>
</svg>