<svg width="24" height="24" viewBox="0 0 24 24" fill="none" xmlns="http://www.w3.org/2000/svg">
<path d="M4 5C4 3.89543 4.89543 3 6 3H15.1716C15.702 3 16.2107 3.21071 16.5858 3.58579L19.4142 6.41421C19.7893 6.78929 20 7.29799 20 7.82843V19C20 20.1046 19.1046 21 18 21H6C4.89543 21 4 20.1046 4 19V5Z" stroke="#0C0310" stroke-width="2" stroke-linecap="round"/>
<path d="M15 4V6C15 7.10457 15.8954 8 17 8H19" stroke="#0C0310" stroke-width="2" stroke-linecap="round"/>
<path d="M8.76 15.548C8.76 15.716 8.74 15.892 8.7 16.076C8.664 16.26 8.594 16.43 8.49 16.586C8.39 16.738 8.248 16.864 8.064 16.964C7.884 17.064 7.65 17.114 7.362 17.114C7.002 17.114 6.702 17.022 6.462 16.838C6.222 16.65 6.062 16.41 5.982 16.118L6.888 15.812C6.916 15.924 6.966 16.014 7.038 16.082C7.114 16.15 7.206 16.184 7.314 16.184C7.482 16.184 7.592 16.126 7.644 16.01C7.7 15.894 7.728 15.742 7.728 15.554V12.752H8.76V15.548ZM12.8358 14.06C12.8358 14.308 12.7898 14.518 12.6978 14.69C12.6058 14.858 12.4818 14.994 12.3258 15.098C12.1698 15.202 11.9898 15.278 11.7858 15.326C11.5818 15.374 11.3698 15.398 11.1498 15.398H10.6398V17H9.61378V12.752H11.1738C11.4058 12.752 11.6218 12.776 11.8218 12.824C12.0258 12.868 12.2018 12.942 12.3498 13.046C12.5018 13.146 12.6198 13.28 12.7038 13.448C12.7918 13.612 12.8358 13.816 12.8358 14.06ZM11.8098 14.066C11.8098 13.966 11.7898 13.884 11.7498 13.82C11.7098 13.756 11.6558 13.706 11.5878 13.67C11.5198 13.634 11.4418 13.61 11.3538 13.598C11.2698 13.586 11.1818 13.58 11.0898 13.58H10.6398V14.582H11.0718C11.1678 14.582 11.2598 14.574 11.3478 14.558C11.4358 14.542 11.5138 14.514 11.5818 14.474C11.6538 14.434 11.7098 14.382 11.7498 14.318C11.7898 14.25 11.8098 14.166 11.8098 14.066ZM17.2257 16.742C17.0177 16.85 16.7737 16.938 16.4937 17.006C16.2177 17.074 15.9157 17.108 15.5877 17.108C15.2477 17.108 14.9337 17.054 14.6457 16.946C14.3617 16.838 14.1157 16.686 13.9077 16.49C13.7037 16.294 13.5437 16.06 13.4277 15.788C13.3117 15.512 13.2537 15.206 13.2537 14.87C13.2537 14.53 13.3117 14.222 13.4277 13.946C13.5477 13.67 13.7117 13.436 13.9197 13.244C14.1277 13.048 14.3717 12.898 14.6517 12.794C14.9317 12.69 15.2337 12.638 15.5577 12.638C15.8937 12.638 16.2057 12.69 16.4937 12.794C16.7817 12.894 17.0157 13.03 17.1957 13.202L16.5477 13.94C16.4477 13.824 16.3157 13.73 16.1517 13.658C15.9877 13.582 15.8017 13.544 15.5937 13.544C15.4137 13.544 15.2477 13.578 15.0957 13.646C14.9437 13.71 14.8117 13.802 14.6997 13.922C14.5877 14.038 14.4997 14.178 14.4357 14.342C14.3757 14.502 14.3457 14.678 14.3457 14.87C14.3457 15.066 14.3737 15.246 14.4297 15.41C14.4857 15.574 14.5677 15.716 14.6757 15.836C14.7877 15.952 14.9237 16.044 15.0837 16.112C15.2477 16.176 15.4337 16.208 15.6417 16.208C15.7617 16.208 15.8757 16.2 15.9837 16.184C16.0917 16.164 16.1917 16.134 16.2837 16.094V15.32H15.4737V14.492H17.2257V16.742Z" fill="#0C0310"/>
</svg>
