<?xml version="1.0" encoding="utf-8"?>
<!-- Generator: Adobe Illustrator 19.0.0, SVG Export Plug-In . SVG Version: 6.00 Build 0)  -->
<svg version="1.1" id="Layer_1" xmlns="http://www.w3.org/2000/svg" xmlns:xlink="http://www.w3.org/1999/xlink" x="0px" y="0px"
	 viewBox="-589 304 20 20" style="enable-background:new -589 304 20 20;" xml:space="preserve">
<style type="text/css">
	.st0{fill:#FFFFFF;fill-opacity:0;}
</style>
<title>File-png</title>
<desc>Created with Sketch.</desc>
<g id="SVG_xD83D__xDC4C_">
	<g id="File-png">
		<rect id="_x32_0x20" x="-589" y="304" class="st0" width="20" height="20"/>
		<g>
			<path id="png" d="M-581.2,312.7c0.6,0,1,0.5,1,1.2c0,0.8-0.4,1.2-1,1.2c-0.3,0-0.6-0.2-0.7-0.4h0v1.2h-0.7v-3.2h0.6v0.4h0
				C-581.9,312.9-581.6,312.7-581.2,312.7z M-581.5,314.7c0.3,0,0.5-0.3,0.5-0.7c0-0.4-0.2-0.7-0.5-0.7c-0.3,0-0.5,0.3-0.5,0.7
				C-582,314.4-581.8,314.7-581.5,314.7z M-579.9,315.2h0.7v-1.4c0-0.3,0.2-0.5,0.5-0.5c0.3,0,0.4,0.2,0.4,0.5v1.4h0.7v-1.5
				c0-0.6-0.3-0.9-0.8-0.9c-0.4,0-0.6,0.2-0.7,0.5h0v-0.4h-0.6V315.2z M-576.2,314.6c0.3,0,0.5-0.3,0.5-0.7c0-0.4-0.2-0.7-0.5-0.7
				c-0.3,0-0.5,0.3-0.5,0.7C-576.7,314.4-576.5,314.6-576.2,314.6z M-576.2,316.1c-0.6,0-1.1-0.3-1.1-0.7h0.6
				c0.1,0.2,0.2,0.3,0.5,0.3c0.3,0,0.5-0.2,0.5-0.5v-0.4h0c-0.1,0.3-0.4,0.4-0.7,0.4c-0.6,0-1-0.5-1-1.2c0-0.7,0.4-1.2,1-1.2
				c0.3,0,0.6,0.2,0.7,0.4h0v-0.4h0.6v2.4C-575,315.7-575.5,316.1-576.2,316.1z"/>
			<path id="Shape" d="M-576.3,307.7h-8.2v12.7h11v-9.9L-576.3,307.7z M-576,309.1l1.1,1.1h-1.1V309.1z M-574.3,319.5h-9.3v-11h6.8
				v2.5h2.5V319.5z"/>
		</g>
	</g>
</g>
</svg>
