<?xml version="1.0" encoding="UTF-8"?>
<svg width="20px" height="20px" viewBox="0 0 20 20" version="1.1" xmlns="http://www.w3.org/2000/svg" xmlns:xlink="http://www.w3.org/1999/xlink">
    <!-- Generator: Sketch 47.1 (45422) - http://www.bohemiancoding.com/sketch -->
    <title>File-code</title>
    <desc>Created with Sketch.</desc>
    <defs></defs>
    <g id="SVG👌" stroke="none" stroke-width="1" fill="none" fill-rule="evenodd">
        <g id="File-code">
            <rect id="20x20" fill-opacity="0" fill="#FFFFFF" x="0" y="0" width="20" height="20"></rect>
            <path d="M13.21,2.5 L3.5,2.5 L3.5,17.5 L16.5,17.5 L16.5,5.79 L13.21,2.5 Z M13.5,4.21 L14.79,5.5 L13.5,5.5 L13.5,4.21 Z M15.5,16.5 L4.5,16.5 L4.5,3.5 L12.5,3.5 L12.5,6.5 L15.5,6.5 L15.5,16.5 Z" id="Shape" fill="#000000" fill-rule="nonzero"></path>
            <path d="M10.5299998,9.21 L11.2399998,8.5 L13.6199998,10.88 L11.2399998,13.26 L10.5299998,12.55 L12.1999998,10.88 L10.5299998,9.21 Z M8.57999981,8.5 L9.28999981,9.21 L7.61999981,10.88 L9.28999981,12.55 L8.57999981,13.26 L6.19999981,10.88 L8.57999981,8.5 Z" id="Combined-Shape" fill="#000000" fill-rule="nonzero"></path>
        </g>
    </g>
</svg>