<?xml version="1.0" encoding="utf-8"?>
<!-- Generator: Adobe Illustrator 19.0.0, SVG Export Plug-In . SVG Version: 6.00 Build 0)  -->
<svg version="1.1" id="Layer_1" xmlns="http://www.w3.org/2000/svg" xmlns:xlink="http://www.w3.org/1999/xlink" x="0px" y="0px"
	 viewBox="-589 304 20 20" style="enable-background:new -589 304 20 20;" xml:space="preserve">
<style type="text/css">
	.st0{fill:#FFFFFF;fill-opacity:0;}
</style>
<title>File-svg</title>
<desc>Created with Sketch.</desc>
<title>File-jpg</title>
<desc>Created with Sketch.</desc>
<g id="Page-1">
	<g id="File-jpg" transform="translate(-3.000000, -2.000000)">
		<rect id="_x32_0x20" x="-586" y="306" class="st0" width="20" height="20"/>
		<path id="jpg" d="M-578.2,315.3h-0.7v2.8c0,0.2-0.1,0.3-0.3,0.3h-0.1v0.5c0,0,0.1,0,0.2,0c0.6,0,1-0.3,1-0.8v-2.8H-578.2z
			 M-578.6,315.1c0.2,0,0.4-0.2,0.4-0.4c0-0.2-0.2-0.4-0.4-0.4s-0.4,0.2-0.4,0.4S-578.8,315.1-578.6,315.1z M-576.2,315.3
			c0.7,0,1.1,0.5,1.1,1.4c0,0.8-0.4,1.4-1.1,1.4c-0.4,0-0.7-0.2-0.8-0.5l0,0v1.3h-0.7v-3.5h0.7v0.5l0,0
			C-576.9,315.5-576.6,315.3-576.2,315.3z M-576.4,317.5c0.4,0,0.6-0.3,0.6-0.8s-0.2-0.8-0.6-0.8c-0.4,0-0.6,0.3-0.6,0.8
			C-577,317.1-576.8,317.5-576.4,317.5z M-573.5,317.4c0.4,0,0.6-0.3,0.6-0.8s-0.2-0.8-0.6-0.8c-0.4,0-0.6,0.3-0.6,0.8
			S-573.9,317.4-573.5,317.4z M-573.5,319c-0.7,0-1.2-0.3-1.2-0.8h0.7c0.1,0.2,0.3,0.3,0.5,0.3c0.4,0,0.6-0.2,0.6-0.5v-0.5l0,0
			c-0.1,0.3-0.4,0.5-0.8,0.5c-0.6,0-1.1-0.5-1.1-1.3s0.4-1.4,1.1-1.4c0.4,0,0.7,0.2,0.8,0.5l0,0v-0.5h0.7v2.6
			C-572.2,318.6-572.7,319-573.5,319z M-573.3,309.7h-8.2v12.7h11v-9.9L-573.3,309.7z M-573,311.1l1.1,1.1h-1.1V311.1z
			 M-571.3,321.5h-9.3v-11h6.8v2.5h2.5V321.5z"/>
	</g>
</g>
</svg>
