<svg width="24" height="24" viewBox="0 0 24 24" fill="none" xmlns="http://www.w3.org/2000/svg">
<path d="M4 5C4 3.89543 4.89543 3 6 3H15.1716C15.702 3 16.2107 3.21071 16.5858 3.58579L19.4142 6.41421C19.7893 6.78929 20 7.29799 20 7.82843V19C20 20.1046 19.1046 21 18 21H6C4.89543 21 4 20.1046 4 19V5Z" stroke="#0C0310" stroke-width="2" stroke-linecap="round"/>
<path d="M15 4V6C15 7.10457 15.8954 8 17 8H19" stroke="#0C0310" stroke-width="2" stroke-linecap="round"/>
<path d="M9.56527 14.06C9.56527 14.308 9.51927 14.518 9.42727 14.69C9.33527 14.858 9.21127 14.994 9.05527 15.098C8.89927 15.202 8.71927 15.278 8.51527 15.326C8.31127 15.374 8.09927 15.398 7.87927 15.398H7.36927V17H6.34327V12.752H7.90327C8.13527 12.752 8.35127 12.776 8.55127 12.824C8.75527 12.868 8.93127 12.942 9.07927 13.046C9.23127 13.146 9.34927 13.28 9.43327 13.448C9.52127 13.612 9.56527 13.816 9.56527 14.06ZM8.53927 14.066C8.53927 13.966 8.51927 13.884 8.47927 13.82C8.43927 13.756 8.38527 13.706 8.31727 13.67C8.24927 13.634 8.17127 13.61 8.08327 13.598C7.99927 13.586 7.91127 13.58 7.81927 13.58H7.36927V14.582H7.80127C7.89727 14.582 7.98927 14.574 8.07727 14.558C8.16527 14.542 8.24327 14.514 8.31127 14.474C8.38327 14.434 8.43927 14.382 8.47927 14.318C8.51927 14.25 8.53927 14.166 8.53927 14.066ZM12.8812 17L11.1712 14.222H11.1532L11.1772 17H10.1812V12.752H11.3512L13.0552 15.524H13.0732L13.0492 12.752H14.0452V17H12.8812ZM18.6954 16.742C18.4874 16.85 18.2434 16.938 17.9634 17.006C17.6874 17.074 17.3854 17.108 17.0574 17.108C16.7174 17.108 16.4034 17.054 16.1154 16.946C15.8314 16.838 15.5854 16.686 15.3774 16.49C15.1734 16.294 15.0134 16.06 14.8974 15.788C14.7814 15.512 14.7234 15.206 14.7234 14.87C14.7234 14.53 14.7814 14.222 14.8974 13.946C15.0174 13.67 15.1814 13.436 15.3894 13.244C15.5974 13.048 15.8414 12.898 16.1214 12.794C16.4014 12.69 16.7034 12.638 17.0274 12.638C17.3634 12.638 17.6754 12.69 17.9634 12.794C18.2514 12.894 18.4854 13.03 18.6654 13.202L18.0174 13.94C17.9174 13.824 17.7854 13.73 17.6214 13.658C17.4574 13.582 17.2714 13.544 17.0634 13.544C16.8834 13.544 16.7174 13.578 16.5654 13.646C16.4134 13.71 16.2814 13.802 16.1694 13.922C16.0574 14.038 15.9694 14.178 15.9054 14.342C15.8454 14.502 15.8154 14.678 15.8154 14.87C15.8154 15.066 15.8434 15.246 15.8994 15.41C15.9554 15.574 16.0374 15.716 16.1454 15.836C16.2574 15.952 16.3934 16.044 16.5534 16.112C16.7174 16.176 16.9034 16.208 17.1114 16.208C17.2314 16.208 17.3454 16.2 17.4534 16.184C17.5614 16.164 17.6614 16.134 17.7534 16.094V15.32H16.9434V14.492H18.6954V16.742Z" fill="#0C0310"/>
</svg>
