<svg width="24" height="24" viewBox="0 0 24 24" fill="none" xmlns="http://www.w3.org/2000/svg">
<path d="M4 5C4 3.89543 4.89543 3 6 3H15.1716C15.702 3 16.2107 3.21071 16.5858 3.58579L19.4142 6.41421C19.7893 6.78929 20 7.29799 20 7.82843V19C20 20.1046 19.1046 21 18 21H6C4.89543 21 4 20.1046 4 19V5Z" stroke="#0C0310" stroke-width="2" stroke-linecap="round"/>
<path d="M15 4V6C15 7.10457 15.8954 8 17 8H19" stroke="#0C0310" stroke-width="2" stroke-linecap="round"/>
<path d="M14.2854 12.4287L10.7572 14.5457C10.424 14.7456 10 14.5056 10 14.1169V9.8831C10 9.49445 10.424 9.25439 10.7572 9.45435L14.2854 11.5713C14.6091 11.7655 14.6091 12.2345 14.2854 12.4287Z" stroke="#0C0310" stroke-width="2" stroke-linecap="round"/>
</svg>
