<?xml version="1.0" encoding="UTF-8"?>
<svg width="14px" height="16px" viewBox="0 0 14 16" version="1.1" xmlns="http://www.w3.org/2000/svg" xmlns:xlink="http://www.w3.org/1999/xlink">
    <!-- Generator: Sketch 47.1 (45422) - http://www.bohemiancoding.com/sketch -->
    <title>File-jpg</title>
    <desc>Created with Sketch.</desc>
    <defs></defs>
    <g id="Page-1" stroke="none" stroke-width="1" fill="none" fill-rule="evenodd">
        <g id="File-jpg" fill-rule="nonzero" fill="#000000">
            <path d="M10.21,0.5 L0.5,0.5 L0.5,15.5 L13.5,15.5 L13.5,3.79 L10.21,0.5 Z M10.5,2.21 L11.79,3.5 L10.5,3.5 L10.5,2.21 Z M12.5,14.5 L1.5,14.5 L1.5,1.5 L9.5,1.5 L9.5,4.5 L12.5,4.5 L12.5,14.5 Z" id="Shape"></path>
            <path d="M4.359375,7.23046875 L3.50390625,7.23046875 L3.50390625,10.4941406 C3.50390625,10.7490234 3.39257812,10.8515625 3.10839844,10.8515625 C3.07910156,10.8515625 3.02050781,10.8486328 3,10.8457031 L3,11.4755859 C3.03808594,11.4814453 3.16699219,11.4873047 3.234375,11.4873047 C3.96972656,11.4873047 4.359375,11.1533203 4.359375,10.5175781 L4.359375,7.23046875 Z M3.93164062,6.88476562 C4.18359375,6.88476562 4.38867188,6.69140625 4.38867188,6.44238281 C4.38867188,6.1875 4.18359375,6 3.93164062,6 C3.6796875,6 3.47460938,6.1875 3.47460938,6.44238281 C3.47460938,6.69140625 3.6796875,6.88476562 3.93164062,6.88476562 Z M6.76171875,7.19238281 C7.5585938,7.19238281 8.0478516,7.79882812 8.0478516,8.8007812 C8.0478516,9.7998047 7.5615234,10.4091797 6.77636719,10.4091797 C6.31933594,10.4091797 5.97070312,10.1982422 5.80078125,9.84375 L5.78320312,9.84375 L5.78320312,11.3964844 L4.92773438,11.3964844 L4.92773438,7.23046875 L5.77148438,7.23046875 L5.77148438,7.76953125 L5.7890625,7.76953125 C5.95605469,7.41210938 6.31933594,7.19238281 6.76171875,7.19238281 Z M6.47460938,9.7207031 C6.89648438,9.7207031 7.171875,9.3603516 7.171875,8.8007812 C7.171875,8.2441406 6.89648438,7.88085938 6.47460938,7.88085938 C6.05859375,7.88085938 5.78027344,8.25 5.78027344,8.8007812 C5.78027344,9.3574219 6.05566406,9.7207031 6.47460938,9.7207031 Z M9.9375,9.6914062 C10.3652344,9.6914062 10.6376953,9.3515625 10.6376953,8.7949219 C10.6376953,8.2412109 10.3652344,7.88085938 9.9375,7.88085938 C9.515625,7.88085938 9.2490234,8.2353516 9.2490234,8.7949219 C9.2490234,9.3574219 9.5126953,9.6914062 9.9375,9.6914062 Z M9.9228516,11.5546875 C9.0966797,11.5546875 8.5371094,11.1533203 8.4697266,10.59375 L9.3076172,10.59375 C9.375,10.8105469 9.6210938,10.9599609 9.9462891,10.9599609 C10.3886719,10.9599609 10.6347656,10.7138672 10.6347656,10.3505859 L10.6347656,9.7998047 L10.6171875,9.7998047 C10.4707031,10.1337891 10.1015625,10.3505859 9.6474609,10.3505859 C8.8828125,10.3505859 8.3730469,9.7587891 8.3730469,8.7890625 C8.3730469,7.8046875 8.8681641,7.19238281 9.6621094,7.19238281 C10.1132812,7.19238281 10.4677734,7.42089844 10.6318359,7.76953125 L10.6464844,7.76953125 L10.6464844,7.23046875 L11.4902344,7.23046875 L11.4902344,10.3271484 C11.4902344,11.0771484 10.8632812,11.5546875 9.9228516,11.5546875 Z" id="jpg"></path>
        </g>
    </g>
</svg>