<?xml version="1.0" encoding="UTF-8"?>
<svg width="20px" height="20px" viewBox="0 0 20 20" version="1.1" xmlns="http://www.w3.org/2000/svg" xmlns:xlink="http://www.w3.org/1999/xlink">
    <!-- Generator: Sketch 47.1 (45422) - http://www.bohemiancoding.com/sketch -->
    <title>File-audio</title>
    <desc>Created with Sketch.</desc>
    <defs></defs>
    <g id="SVG👌" stroke="none" stroke-width="1" fill="none" fill-rule="evenodd">
        <g id="File-audio">
            <rect id="20x20" fill-opacity="0" fill="#FFFFFF" x="0" y="0" width="20" height="20"></rect>
            <path d="M13.21,2.5 L3.5,2.5 L3.5,17.5 L16.5,17.5 L16.5,5.79 L13.21,2.5 Z M13.5,4.21 L14.79,5.5 L13.5,5.5 L13.5,4.21 Z M15.5,16.5 L4.5,16.5 L4.5,3.5 L12.5,3.5 L12.5,6.5 L15.5,6.5 L15.5,16.5 Z M8.69,11.0700002 C8.62709724,11.0595561 8.56290276,11.0595561 8.5,11.0700002 C7.94771525,11.0700002 7.5,11.5177154 7.5,12.0700002 C7.5,12.6222849 7.94771525,13.0700002 8.5,13.0700002 C9.05228475,13.0700002 9.5,12.6222849 9.5,12.0700002 L9.5,9.49000019 L11.44,8.95000019 L11.44,11.1900002 C11.3736673,11.1805635 11.3063327,11.1805635 11.24,11.1900002 C10.6877153,11.1900002 10.24,11.6377154 10.24,12.1900002 C10.24,12.7422849 10.6877153,13.1900002 11.24,13.1900002 C11.7922847,13.1900002 12.24,12.7422849 12.24,12.1900002 L12.24,7.80000019 L8.73,8.80000019 L8.69,11.0700002 Z" id="Combined-Shape" fill="#000000" fill-rule="nonzero"></path>
        </g>
    </g>
</svg>