<?xml version="1.0" encoding="utf-8"?>
<!-- Generator: Adobe Illustrator 19.0.0, SVG Export Plug-In . SVG Version: 6.00 Build 0)  -->
<svg version="1.1" id="Layer_1" xmlns="http://www.w3.org/2000/svg" xmlns:xlink="http://www.w3.org/1999/xlink" x="0px" y="0px"
	 viewBox="-589 304 20 20" style="enable-background:new -589 304 20 20;" xml:space="preserve">
<style type="text/css">
	.st0{fill:#FFFFFF;fill-opacity:0;}
</style>
<title>File-svg</title>
<desc>Created with Sketch.</desc>
<g id="SVG_xD83D__xDC4C_">
	<g id="File-svg">
		<rect id="_x32_0x20" x="-589" y="304" class="st0" width="20" height="20"/>
		<path id="Shape" d="M-576.3,307.7h-8.2v12.7h11v-9.9L-576.3,307.7z M-576,309.1l1.1,1.1h-1.1V309.1z M-574.3,319.5h-9.3v-11h6.8
			v2.5h2.5V319.5z M-582.7,313.5c0,0.4,0.2,0.6,0.7,0.7l0.5,0.1c0.2,0.1,0.3,0.1,0.3,0.2c0,0.2-0.2,0.3-0.4,0.3
			c-0.3,0-0.4-0.1-0.5-0.3h-0.7c0,0.5,0.5,0.8,1.1,0.8c0.7,0,1.1-0.3,1.1-0.8c0-0.4-0.2-0.6-0.7-0.7l-0.5-0.1
			c-0.2-0.1-0.3-0.1-0.3-0.3c0-0.2,0.2-0.3,0.4-0.3c0.3,0,0.4,0.1,0.4,0.3h0.6c0-0.5-0.4-0.8-1.1-0.8
			C-582.3,312.7-582.7,313-582.7,313.5z M-577.9,312.8h-0.7l-0.5,1.9h0l-0.5-1.9h-0.7l0.9,2.5h0.8L-577.9,312.8z M-576.4,314.8
			c0.3,0,0.6-0.3,0.6-0.7c0-0.4-0.2-0.7-0.6-0.7c-0.3,0-0.6,0.3-0.6,0.7C-577,314.5-576.8,314.8-576.4,314.8z M-576.5,316.3
			c-0.7,0-1.1-0.3-1.2-0.8h0.7c0.1,0.2,0.3,0.3,0.5,0.3c0.4,0,0.6-0.2,0.6-0.5v-0.4h0c-0.1,0.3-0.4,0.4-0.8,0.4c-0.6,0-1-0.5-1-1.3
			c0-0.8,0.4-1.3,1-1.3c0.4,0,0.7,0.2,0.8,0.5h0v-0.4h0.7v2.5C-575.2,315.9-575.7,316.3-576.5,316.3z"/>
	</g>
</g>
</svg>
