<?xml version="1.0" encoding="UTF-8"?>
<svg width="20px" height="20px" viewBox="0 0 20 20" version="1.1" xmlns="http://www.w3.org/2000/svg" xmlns:xlink="http://www.w3.org/1999/xlink">
    <!-- Generator: Sketch 47.1 (45422) - http://www.bohemiancoding.com/sketch -->
    <title>File-svg</title>
    <desc>Created with Sketch.</desc>
    <defs></defs>
    <g id="SVG👌" stroke="none" stroke-width="1" fill="none" fill-rule="evenodd">
        <g id="File-svg">
            <rect id="20x20" fill-opacity="0" fill="#FFFFFF" x="0" y="0" width="20" height="20"></rect>
            <path d="M13.21,2.5 L3.5,2.5 L3.5,17.5 L16.5,17.5 L16.5,5.79 L13.21,2.5 Z M13.5,4.21 L14.79,5.5 L13.5,5.5 L13.5,4.21 Z M15.5,16.5 L4.5,16.5 L4.5,3.5 L12.5,3.5 L12.5,6.5 L15.5,6.5 L15.5,16.5 Z M5.57585284,9.44394645 C5.57585284,9.88501666 5.86802674,10.1799999 6.43832772,10.3092307 L6.99458187,10.4328427 C7.26428086,10.4974581 7.36541798,10.5789297 7.36541798,10.727826 C7.36541798,10.9216721 7.17438119,11.0424748 6.86535111,11.0424748 C6.53946484,11.0424748 6.3371906,10.8991972 6.30066886,10.6491638 L5.5,10.6491638 C5.54214047,11.2335116 6.03939797,11.6183945 6.84287619,11.6183945 C7.63792632,11.6183945 8.18294302,11.2307022 8.18294302,10.6407357 C8.18294302,10.1940467 7.93852832,9.95806013 7.33451497,9.82321064 L6.75859526,9.69959861 C6.49451501,9.63779259 6.36528424,9.53946484 6.36528424,9.39337789 C6.36528424,9.20234111 6.55351166,9.07591971 6.8344481,9.07591971 C7.13785946,9.07591971 7.33451497,9.22481602 7.34856179,9.46080263 L8.10428082,9.46080263 C8.09585272,8.8792642 7.59859522,8.5 6.84568556,8.5 C6.07311034,8.5 5.57585284,8.87364547 5.57585284,9.44394645 Z M11.343478,8.55337792 L10.4866218,8.55337792 L9.86294295,10.8402006 L9.84608676,10.8402006 L9.21959849,8.55337792 L8.34026743,8.55337792 L9.38254163,11.5650166 L10.3096319,11.5650166 L11.343478,8.55337792 Z M13.0178592,10.913244 C13.4280264,10.913244 13.6892973,10.5873578 13.6892973,10.0535785 C13.6892973,9.52260865 13.4280264,9.17705683 13.0178592,9.17705683 C12.6133107,9.17705683 12.3576586,9.51698992 12.3576586,10.0535785 C12.3576586,10.5929765 12.6105013,10.913244 13.0178592,10.913244 Z M13.0038124,12.6999998 C12.2115716,12.6999998 11.674983,12.3151169 11.6103676,11.7785283 L12.4138458,11.7785283 C12.4784612,11.9864212 12.7144478,12.1296988 13.0262873,12.1296988 C13.4505013,12.1296988 13.6864879,11.8937122 13.6864879,11.545351 L13.6864879,11.0171905 L13.6696317,11.0171905 C13.5291635,11.3374581 13.1751836,11.545351 12.7397321,11.545351 C12.006488,11.545351 11.5176586,10.9778594 11.5176586,10.0479598 C11.5176586,9.10401335 11.9924412,8.51685619 12.7537789,8.51685619 C13.1864211,8.51685619 13.5263542,8.73598661 13.6836786,9.07030098 L13.6977254,9.07030098 L13.6977254,8.55337792 L14.5068223,8.55337792 L14.5068223,11.5228761 C14.5068223,12.2420734 13.9056183,12.6999998 13.0038124,12.6999998 Z" id="Shape" fill="#000000" fill-rule="nonzero"></path>
        </g>
    </g>
</svg>