<?xml version="1.0" encoding="UTF-8"?>
<svg width="20px" height="20px" viewBox="0 0 20 20" version="1.1" xmlns="http://www.w3.org/2000/svg" xmlns:xlink="http://www.w3.org/1999/xlink">
    <!-- Generator: Sketch 47.1 (45422) - http://www.bohemiancoding.com/sketch -->
    <title>File-png</title>
    <desc>Created with Sketch.</desc>
    <defs></defs>
    <g id="SVG👌" stroke="none" stroke-width="1" fill="none" fill-rule="evenodd">
        <g id="File-png">
            <rect id="20x20" fill-opacity="0" fill="#FFFFFF" x="0" y="0" width="20" height="20"></rect>
            <path d="M7.35106267,8.50790214 C8.06752381,8.50790214 8.50740988,9.05315014 8.50740988,9.95399466 C8.50740988,10.8522051 8.07015786,11.4000872 7.36423292,11.4000872 C6.95332138,11.4000872 6.63986963,11.2104357 6.48709483,10.8917159 L6.47129054,10.8917159 L6.47129054,12.2877615 L5.70214844,12.2877615 L5.70214844,8.54214477 L6.46075435,8.54214477 L6.46075435,9.02680966 L6.47655864,9.02680966 C6.62669939,8.70545577 6.95332138,8.50790214 7.35106267,8.50790214 Z M7.09292594,10.7810858 C7.4722289,10.7810858 7.71982944,10.4570979 7.71982944,9.95399466 C7.71982944,9.45352549 7.4722289,9.1269035 7.09292594,9.1269035 C6.71889108,9.1269035 6.46865649,9.45879358 6.46865649,9.95399466 C6.46865649,10.4544638 6.71625703,10.7810858 7.09292594,10.7810858 Z M8.90251712,11.3658446 L9.67165923,11.3658446 L9.67165923,9.75907509 C9.67165923,9.39030833 9.88501714,9.13743969 10.2327115,9.13743969 C10.5830399,9.13743969 10.7542531,9.34816355 10.7542531,9.71693032 L10.7542531,11.3658446 L11.5233952,11.3658446 L11.5233952,9.55625337 C11.5233952,8.89510725 11.1704327,8.5 10.5435292,8.5 C10.1089112,8.5 9.82179998,8.68965148 9.66112304,9.0505161 L9.64531875,9.0505161 L9.64531875,8.54214477 L8.90251712,8.54214477 L8.90251712,11.3658446 Z M13.314548,10.7547453 C13.6991191,10.7547453 13.9440856,10.4491957 13.9440856,9.94872657 C13.9440856,9.45089144 13.6991191,9.1269035 13.314548,9.1269035 C12.9352451,9.1269035 12.6955467,9.44562334 12.6955467,9.94872657 C12.6955467,10.4544638 12.932611,10.7547453 13.314548,10.7547453 Z M13.3013778,12.4300001 C12.5585762,12.4300001 12.0554729,12.0691354 11.9948898,11.5660322 L12.7482276,11.5660322 C12.8088108,11.7609518 13.0300708,11.8952883 13.3224502,11.8952883 C13.7201915,11.8952883 13.9414515,11.6740282 13.9414515,11.3474062 L13.9414515,10.8522051 L13.9256472,10.8522051 C13.7939448,11.1524866 13.4620547,11.3474062 13.0537772,11.3474062 C12.3662906,11.3474062 11.9079662,10.8153285 11.9079662,9.94345847 C11.9079662,9.05841824 12.3531204,8.50790214 13.0669475,8.50790214 C13.4725909,8.50790214 13.7913108,8.71335791 13.9388175,9.02680966 L13.9519877,9.02680966 L13.9519877,8.54214477 L14.7105936,8.54214477 L14.7105936,11.3263338 C14.7105936,12.0006502 14.1469073,12.4300001 13.3013778,12.4300001 Z" id="png" fill="#000000"></path>
            <path d="M13.21,2.5 L3.5,2.5 L3.5,17.5 L16.5,17.5 L16.5,5.79 L13.21,2.5 Z M13.5,4.21 L14.79,5.5 L13.5,5.5 L13.5,4.21 Z M15.5,16.5 L4.5,16.5 L4.5,3.5 L12.5,3.5 L12.5,6.5 L15.5,6.5 L15.5,16.5 Z" id="Shape" fill="#000000" fill-rule="nonzero"></path>
        </g>
    </g>
</svg>