<svg width="24" height="24" viewBox="0 0 24 24" fill="none" xmlns="http://www.w3.org/2000/svg">
<path d="M4 5C4 3.89543 4.89543 3 6 3H15.1716C15.702 3 16.2107 3.21071 16.5858 3.58579L19.4142 6.41421C19.7893 6.78929 20 7.29799 20 7.82843V19C20 20.1046 19.1046 21 18 21H6C4.89543 21 4 20.1046 4 19V5Z" stroke="#0C0310" stroke-width="2" stroke-linecap="round"/>
<path d="M15 4V6C15 7.10457 15.8954 8 17 8H19" stroke="#0C0310" stroke-width="2" stroke-linecap="round"/>
<path d="M14 15L15.6464 13.3536C15.8417 13.1583 15.8417 12.8417 15.6464 12.6464L14 11" stroke="#0C0310" stroke-width="2" stroke-linecap="round"/>
<path d="M10 15L8.35355 13.3536C8.15829 13.1583 8.15829 12.8417 8.35355 12.6464L10 11" stroke="#0C0310" stroke-width="2" stroke-linecap="round"/>
</svg>
