<?xml version="1.0" encoding="utf-8"?>
<!-- Generator: Adobe Illustrator 19.0.0, SVG Export Plug-In . SVG Version: 6.00 Build 0)  -->
<svg version="1.1" id="target" xmlns="http://www.w3.org/2000/svg" xmlns:xlink="http://www.w3.org/1999/xlink" x="0px" y="0px"
	 viewBox="-293 385 24 24" style="enable-background:new -293 385 24 24;" xml:space="preserve">
<title>File-audio</title>
<path d="M-282.5,397.9c-0.1,0-0.1,0-0.2,0c-0.6,0-1,0.4-1,1s0.4,1,1,1c0.6,0,1-0.4,1-1l0,0l0,0v-2.6l1.9-0.5v2.2c-0.1,0-0.1,0-0.2,0
	c-0.6,0-1,0.4-1,1s0.4,1,1,1s1-0.4,1-1l0,0l0,0v-4.4l-3.5,1L-282.5,397.9z"/>
<path d="M-277.8,389.5h-9.7v15h13v-11.7L-277.8,389.5z M-277.5,391.2l1.3,1.3h-1.3V391.2z M-275.5,403.5h-11v-13h8v3h3V403.5z"/>
</svg>
