<?xml version="1.0" encoding="UTF-8"?>
<svg width="20px" height="20px" viewBox="0 0 20 20" version="1.1" xmlns="http://www.w3.org/2000/svg" xmlns:xlink="http://www.w3.org/1999/xlink">
    <!-- Generator: Sketch 47.1 (45422) - http://www.bohemiancoding.com/sketch -->
    <title>Filter</title>
    <desc>Created with Sketch.</desc>
    <defs></defs>
    <g id="SVG👌" stroke="none" stroke-width="1" fill="none" fill-rule="evenodd">
        <g id="Filter">
            <rect id="20x20" fill-opacity="0" fill="#FFFFFF" x="0" y="0" width="20" height="20"></rect>
            <path d="M12.1271896,9.5 L4,9.5 L4,10.5 L12.0834489,10.5 C12.2641033,10.968006 12.718281,11.3 13.25,11.3 C13.781719,11.3 14.2358967,10.968006 14.4165511,10.5 L16,10.5 L16,9.5 L14.3728104,9.5 C14.16934,9.08540339 13.7429998,8.79999995 13.25,8.79999995 C12.7570002,8.79999995 12.33066,9.08540339 12.1271896,9.5 Z M7.1271896,13.5 L4,13.5 L4,14.5 L7.08344887,14.5 C7.26410327,14.968006 7.71828096,15.3 8.25,15.3 C8.78171904,15.3 9.23589673,14.968006 9.41655113,14.5 L16,14.5 L16,13.5 L9.3728104,13.5 C9.16933999,13.0854034 8.74299977,12.8 8.25,12.8 C7.75700023,12.8 7.33066001,13.0854034 7.1271896,13.5 Z M5.1271896,5.5 L4,5.5 L4,6.5 L5.08344887,6.5 C5.26410327,6.96800598 5.71828096,7.29999995 6.25,7.29999995 C6.78171904,7.29999995 7.23589673,6.96800598 7.41655113,6.5 L16,6.5 L16,5.5 L7.3728104,5.5 C7.16933999,5.08540339 6.74299977,4.79999995 6.25,4.79999995 C5.75700023,4.79999995 5.33066001,5.08540339 5.1271896,5.5 Z" id="filter" fill="#000000" fill-rule="nonzero"></path>
        </g>
    </g>
</svg>