<?xml version="1.0" encoding="UTF-8"?>
<svg width="24px" height="24px" viewBox="0 0 24 24" version="1.1" xmlns="http://www.w3.org/2000/svg" xmlns:xlink="http://www.w3.org/1999/xlink">
    <!-- Generator: Sketch 48.1 (47250) - http://www.bohemiancoding.com/sketch -->
    <title>24x24</title>
    <desc>Created with Sketch.</desc>
    <defs></defs>
    <g id="Page-1" stroke="none" stroke-width="1" fill="none" fill-rule="evenodd">
        <g id="Filter">
            <rect id="24x24" x="0" y="0" width="24" height="24"></rect>
            <path d="M14.1271896,11.2 L6,11.2 L6,12.2 L14.0834489,12.2 C14.2641033,12.668006 14.718281,13 15.25,13 C15.781719,13 16.2358967,12.668006 16.4165511,12.2 L18,12.2 L18,11.2 L16.3728104,11.2 C16.16934,10.7854034 15.7429998,10.4999999 15.25,10.4999999 C14.7570002,10.4999999 14.33066,10.7854034 14.1271896,11.2 Z M9.1271896,15.7 C9.33066001,15.2854034 9.75700023,14.9999999 10.25,14.9999999 C10.7429998,14.9999999 11.16934,15.2854034 11.3728104,15.7 L18,15.7 L18,16.7 L11.4165511,16.7 C11.2358967,17.168006 10.781719,17.4999999 10.25,17.4999999 C9.71828096,17.4999999 9.26410327,17.168006 9.08344888,16.7 L6,16.7 L6,15.7 L9.1271896,15.7 Z M9.1271896,6.7 C9.33066001,6.2854034 9.75700023,6 10.25,6 C10.7429998,6 11.16934,6.2854034 11.3728104,6.7 L18,6.7 L18,7.7 L11.4165511,7.7 C11.2358967,8.168006 10.781719,8.5 10.25,8.5 C9.71828096,8.5 9.26410327,8.168006 9.08344887,7.7 L6,7.7 L6,6.7 L9.1271896,6.7 Z" id="filter" fill="#000000" fill-rule="nonzero"></path>
        </g>
    </g>
</svg>