<?xml version="1.0" encoding="utf-8"?>
<!-- Generator: Adobe Illustrator 22.0.1, SVG Export Plug-In . SVG Version: 6.00 Build 0)  -->
<svg version="1.1" id="Capa_1" xmlns="http://www.w3.org/2000/svg" xmlns:xlink="http://www.w3.org/1999/xlink" x="0px" y="0px"
	 viewBox="0 0 24 24" style="enable-background:new 0 0 24 24;" xml:space="preserve">
<style type="text/css">
	.st0{fill:#1D1D1B;}
</style>
<title>24x24</title>
<desc>Created with Sketch.</desc>
<g>
	<path class="st0" d="M17.5,8.5C18.3,8.5,19,7.8,19,7s-0.7-1.5-1.5-1.5c-0.7,0-1.2,0.4-1.4,1H5v1h11.1C16.3,8.1,16.8,8.5,17.5,8.5z
		 M17.5,6.5C17.8,6.5,18,6.7,18,7s-0.2,0.5-0.5,0.5S17,7.3,17,7S17.2,6.5,17.5,6.5z"/>
	<path class="st0" d="M6.5,15.5C5.7,15.5,5,16.2,5,17s0.7,1.5,1.5,1.5c0.7,0,1.2-0.4,1.4-1H19v-1H7.9C7.7,15.9,7.2,15.5,6.5,15.5z
		 M6.5,17.5C6.2,17.5,6,17.3,6,17s0.2-0.5,0.5-0.5S7,16.7,7,17S6.8,17.5,6.5,17.5z"/>
	<path class="st0" d="M12,10.5c-0.7,0-1.2,0.4-1.4,1H5v1h5.6c0.2,0.6,0.8,1,1.4,1s1.2-0.4,1.4-1H19v-1h-5.6
		C13.2,10.9,12.7,10.5,12,10.5z M12,12.5c-0.3,0-0.5-0.2-0.5-0.5s0.2-0.5,0.5-0.5s0.5,0.2,0.5,0.5S12.3,12.5,12,12.5z"/>
</g>
</svg>
