<svg width="24" height="24" viewBox="0 0 24 24" fill="none" xmlns="http://www.w3.org/2000/svg">
<path d="M10.8 15.128H10.296C9.864 15.128 9.424 15.152 8.976 15.2C8.544 15.232 8.152 15.304 7.8 15.416C7.464 15.528 7.184 15.696 6.96 15.92C6.736 16.128 6.624 16.408 6.624 16.76C6.624 16.984 6.672 17.176 6.768 17.336C6.88 17.496 7.016 17.624 7.176 17.72C7.336 17.816 7.52 17.888 7.728 17.936C7.936 17.968 8.136 17.984 8.328 17.984C9.128 17.984 9.736 17.768 10.152 17.336C10.584 16.888 10.8 16.288 10.8 15.536V15.128ZM3.576 10.016C4.28 9.344 5.096 8.84 6.024 8.504C6.968 8.168 7.928 8 8.904 8C9.912 8 10.76 8.128 11.448 8.384C12.152 8.624 12.72 9.008 13.152 9.536C13.584 10.048 13.896 10.704 14.088 11.504C14.296 12.288 14.4 13.224 14.4 14.312V20.336H10.8V19.064H10.728C10.424 19.56 9.96 19.944 9.336 20.216C8.728 20.488 8.064 20.624 7.344 20.624C6.864 20.624 6.368 20.56 5.856 20.432C5.344 20.304 4.872 20.096 4.44 19.808C4.024 19.52 3.68 19.136 3.408 18.656C3.136 18.176 3 17.584 3 16.88C3 16.016 3.232 15.32 3.696 14.792C4.176 14.264 4.784 13.856 5.52 13.568C6.272 13.28 7.104 13.088 8.016 12.992C8.928 12.896 9.816 12.848 10.68 12.848V12.656C10.68 12.064 10.472 11.632 10.056 11.36C9.64 11.072 9.128 10.928 8.52 10.928C7.96 10.928 7.416 11.048 6.888 11.288C6.376 11.528 5.936 11.816 5.568 12.152L3.576 10.016Z" fill="#0C0310"/>
<path d="M21 7.375C21 8.82475 19.8807 10 18.5 10C17.1193 10 16 8.82475 16 7.375C16 6.27642 17.4355 4.33058 18.131 3.45236C18.3217 3.21152 18.6783 3.21152 18.869 3.45236C19.5645 4.33058 21 6.27642 21 7.375Z" stroke="#0C0310" stroke-width="2" stroke-linecap="round"/>
</svg>
