<svg width="24" height="24" viewBox="0 0 24 24" fill="none" xmlns="http://www.w3.org/2000/svg">
<circle cx="12" cy="12" r="8" stroke="#0C0310" stroke-width="2" stroke-linecap="round"/>
<path d="M15.0486 9.676C15.0486 9.94 15.0166 10.172 14.9526 10.372C14.8886 10.572 14.7966 10.756 14.6766 10.924C14.5646 11.092 14.4246 11.252 14.2566 11.404C14.0966 11.548 13.9126 11.7 13.7046 11.86C13.5766 11.964 13.4686 12.056 13.3806 12.136C13.3006 12.216 13.2366 12.3 13.1886 12.388C13.1406 12.468 13.1046 12.556 13.0806 12.652C13.0646 12.74 13.0566 12.848 13.0566 12.976V13.288H11.1846V12.832C11.1846 12.624 11.2046 12.44 11.2446 12.28C11.2846 12.112 11.3446 11.96 11.4246 11.824C11.5046 11.688 11.6006 11.556 11.7126 11.428C11.8326 11.3 11.9726 11.168 12.1326 11.032L12.5286 10.66C12.6646 10.54 12.7806 10.416 12.8766 10.288C12.9726 10.152 13.0206 9.992 13.0206 9.808C13.0206 9.552 12.9406 9.348 12.7806 9.196C12.6286 9.044 12.4166 8.968 12.1446 8.968C11.8086 8.968 11.5566 9.084 11.3886 9.316C11.2206 9.54 11.1286 9.796 11.1126 10.084L9.20461 9.88C9.25261 9.448 9.36061 9.068 9.52861 8.74C9.70461 8.412 9.92861 8.14 10.2006 7.924C10.4726 7.708 10.7806 7.548 11.1246 7.444C11.4686 7.332 11.8326 7.276 12.2166 7.276C12.5766 7.276 12.9246 7.324 13.2606 7.42C13.6046 7.508 13.9086 7.652 14.1726 7.852C14.4366 8.044 14.6486 8.292 14.8086 8.596C14.9686 8.9 15.0486 9.26 15.0486 9.676ZM13.2966 14.98C13.2966 15.3 13.1846 15.572 12.9606 15.796C12.7366 16.012 12.4606 16.12 12.1326 16.12C11.9726 16.12 11.8206 16.092 11.6766 16.036C11.5406 15.98 11.4166 15.9 11.3046 15.796C11.2006 15.692 11.1166 15.572 11.0526 15.436C10.9886 15.3 10.9566 15.152 10.9566 14.992C10.9566 14.84 10.9846 14.696 11.0406 14.56C11.1046 14.416 11.1886 14.292 11.2926 14.188C11.4046 14.084 11.5326 14.004 11.6766 13.948C11.8206 13.884 11.9726 13.852 12.1326 13.852C12.2926 13.852 12.4406 13.884 12.5766 13.948C12.7206 14.004 12.8446 14.084 12.9486 14.188C13.0606 14.284 13.1446 14.404 13.2006 14.548C13.2646 14.684 13.2966 14.828 13.2966 14.98Z" fill="#0C0310"/>
</svg>
