<?xml version="1.0" encoding="UTF-8"?>
<svg width="24px" height="24px" viewBox="0 0 24 24" version="1.1" xmlns="http://www.w3.org/2000/svg" xmlns:xlink="http://www.w3.org/1999/xlink">
    <title>Help</title>
    <g id="Page-1" stroke="none" stroke-width="1" fill="none" fill-rule="evenodd">
        <g id="Help">
            <rect id="Rectangle" fill-rule="nonzero" x="0" y="0" width="24" height="24"></rect>
            <circle id="Oval" stroke="#0C0310" stroke-width="2" stroke-linecap="round" cx="12" cy="12" r="8"></circle>
            <path d="M15.0486,9.676 C15.0486,9.94 15.0166,10.172 14.9526,10.372 C14.8886,10.572 14.7966,10.756 14.6766,10.924 C14.5646,11.092 14.4246,11.252 14.2566,11.404 C14.0966,11.548 13.9126,11.7 13.7046,11.86 C13.5766,11.964 13.4686,12.056 13.3806,12.136 C13.3006,12.216 13.2366,12.3 13.1886,12.388 C13.1406,12.468 13.1046,12.556 13.0806,12.652 C13.0646,12.74 13.0566,12.848 13.0566,12.976 L13.0566,13.288 L11.1846,13.288 L11.1846,12.832 C11.1846,12.624 11.2046,12.44 11.2446,12.28 C11.2846,12.112 11.3446,11.96 11.4246,11.824 C11.5046,11.688 11.6006,11.556 11.7126,11.428 C11.8326,11.3 11.9726,11.168 12.1326,11.032 L12.5286,10.66 C12.6646,10.54 12.7806,10.416 12.8766,10.288 C12.9726,10.152 13.0206,9.992 13.0206,9.808 C13.0206,9.552 12.9406,9.348 12.7806,9.196 C12.6286,9.044 12.4166,8.968 12.1446,8.968 C11.8086,8.968 11.5566,9.084 11.3886,9.316 C11.2206,9.54 11.1286,9.796 11.1126,10.084 L9.20461,9.88 C9.25261,9.448 9.36061,9.068 9.52861,8.74 C9.70461,8.412 9.92861,8.14 10.2006,7.924 C10.4726,7.708 10.7806,7.548 11.1246,7.444 C11.4686,7.332 11.8326,7.276 12.2166,7.276 C12.5766,7.276 12.9246,7.324 13.2606,7.42 C13.6046,7.508 13.9086,7.652 14.1726,7.852 C14.4366,8.044 14.6486,8.292 14.8086,8.596 C14.9686,8.9 15.0486,9.26 15.0486,9.676 Z M13.2966,14.98 C13.2966,15.3 13.1846,15.572 12.9606,15.796 C12.7366,16.012 12.4606,16.12 12.1326,16.12 C11.9726,16.12 11.8206,16.092 11.6766,16.036 C11.5406,15.98 11.4166,15.9 11.3046,15.796 C11.2006,15.692 11.1166,15.572 11.0526,15.436 C10.9886,15.3 10.9566,15.152 10.9566,14.992 C10.9566,14.84 10.9846,14.696 11.0406,14.56 C11.1046,14.416 11.1886,14.292 11.2926,14.188 C11.4046,14.084 11.5326,14.004 11.6766,13.948 C11.8206,13.884 11.9726,13.852 12.1326,13.852 C12.2926,13.852 12.4406,13.884 12.5766,13.948 C12.7206,14.004 12.8446,14.084 12.9486,14.188 C13.0606,14.284 13.1446,14.404 13.2006,14.548 C13.2646,14.684 13.2966,14.828 13.2966,14.98 Z" id="Shape" fill="#0C0310" fill-rule="nonzero"></path>
        </g>
    </g>
</svg>