<svg width="24" height="24" viewBox="0 0 24 24" fill="none" xmlns="http://www.w3.org/2000/svg">
<path d="M14.2601 11.3007L13.6944 10.4761L13.1501 10.8496L13.2796 11.4968L14.2601 11.3007ZM9.73986 11.3007L10.7204 11.4968L10.8499 10.8496L10.3056 10.4761L9.73986 11.3007ZM8 20L7.01942 19.8039L6.7802 21H8V20ZM16 20V21H17.2198L16.9806 19.8039L16 20ZM15 8C15 9.02693 14.4849 9.93381 13.6944 10.4761L14.8259 12.1253C16.1367 11.226 17 9.71393 17 8H15ZM12 5C13.6569 5 15 6.34315 15 8H17C17 5.23858 14.7614 3 12 3V5ZM9 8C9 6.34315 10.3431 5 12 5V3C9.23858 3 7 5.23858 7 8H9ZM10.3056 10.4761C9.51509 9.93381 9 9.02693 9 8H7C7 9.71393 7.86326 11.226 9.17413 12.1253L10.3056 10.4761ZM8.98058 20.1961L10.7204 11.4968L8.75927 11.1046L7.01942 19.8039L8.98058 20.1961ZM16 19H8V21H16V19ZM13.2796 11.4968L15.0194 20.1961L16.9806 19.8039L15.2407 11.1046L13.2796 11.4968Z" fill="#0C0310"/>
</svg>
