<?xml version="1.0" encoding="UTF-8"?>
<svg width="24px" height="24px" viewBox="0 0 24 24" version="1.1" xmlns="http://www.w3.org/2000/svg" xmlns:xlink="http://www.w3.org/1999/xlink">
    <!-- Generator: Sketch 48.1 (47250) - http://www.bohemiancoding.com/sketch -->
    <title>24x24</title>
    <desc>Created with Sketch.</desc>
    <defs></defs>
    <g id="Page-1" stroke="none" stroke-width="1" fill="none" fill-rule="evenodd">
        <g id="Lightning-bolt">
            <rect id="24x24" x="0" y="0" width="24" height="24"></rect>
            <path d="M8.575,18.5 C8.475,18.5 8.375,18.5 8.275,18.4 C8.075,18.3 7.975,18 8.075,17.8 L10.375,12.7 L7.475,12.7 C7.275,12.7 7.175,12.6 7.075,12.5 C6.975,12.3 6.975,12.2 7.075,12 L10.275,6.3 C10.375,6.1 10.575,6 10.675,6 L15.275,6 C15.475,6 15.575,6.1 15.675,6.2 C15.775,6.4 15.775,6.5 15.675,6.7 L13.675,10.1 L15.875,10.1 C16.075,10.1 16.275,10.2 16.375,10.4 C16.475,10.6 16.375,10.8 16.275,10.9 L8.875,18.3 C8.775,18.4 8.675,18.5 8.575,18.5 Z M8.175,11.7 L11.075,11.7 C11.275,11.7 11.375,11.8 11.475,11.9 C11.575,12 11.575,12.2 11.475,12.4 L9.875,16 L14.875,11.1 L12.975,11.1 C12.775,11.1 12.675,11 12.575,10.9 C12.475,10.7 12.475,10.6 12.575,10.4 L14.675,6.9 L11.075,6.9 L8.175,11.7 Z" id="Shape" fill="#000000" fill-rule="nonzero"></path>
        </g>
    </g>
</svg>