<svg width="24" height="24" viewBox="0 0 24 24" fill="none" xmlns="http://www.w3.org/2000/svg">
<path d="M10 6H19" stroke="#0C0310" stroke-width="2" stroke-linecap="round"/>
<path d="M10 18H19" stroke="#0C0310" stroke-width="2" stroke-linecap="round"/>
<path d="M10 12H19" stroke="#0C0310" stroke-width="2" stroke-linecap="round"/>
<path d="M5.25161 5.676L4.77561 6.004L4.32761 5.308L5.33161 4.668H6.21161V7.5H5.25161V5.676Z" fill="#0C0310"/>
<path d="M5.48361 11.864C5.52894 11.8293 5.56628 11.7907 5.59561 11.748C5.62494 11.7053 5.63961 11.6613 5.63961 11.616C5.63961 11.5627 5.62228 11.516 5.58761 11.476C5.55561 11.436 5.50361 11.416 5.43161 11.416C5.35428 11.416 5.29028 11.4467 5.23961 11.508C5.18894 11.5693 5.16094 11.652 5.15561 11.756L4.24761 11.652C4.26628 11.468 4.31428 11.3093 4.39161 11.176C4.46894 11.0427 4.56494 10.932 4.67961 10.844C4.79694 10.756 4.92628 10.692 5.06761 10.652C5.21161 10.6093 5.35961 10.588 5.51161 10.588C5.65028 10.588 5.78761 10.6053 5.92361 10.64C6.06228 10.6747 6.18494 10.7293 6.29161 10.804C6.39828 10.876 6.48494 10.9707 6.55161 11.088C6.61828 11.2053 6.65161 11.3467 6.65161 11.512C6.65161 11.6293 6.63561 11.7333 6.60361 11.824C6.57428 11.912 6.53294 11.9907 6.47961 12.06C6.42894 12.1293 6.37028 12.192 6.30361 12.248C6.23961 12.304 6.17161 12.3573 6.09961 12.408L5.68361 12.704H6.65961V13.5H4.36361V12.76L5.48361 11.864Z" fill="#0C0310"/>
<path d="M6.23161 18.016C6.30361 18.04 6.36894 18.0733 6.42761 18.116C6.48894 18.1587 6.54094 18.208 6.58361 18.264C6.62628 18.32 6.65828 18.3813 6.67961 18.448C6.70361 18.512 6.71561 18.5773 6.71561 18.644C6.71561 18.8093 6.68094 18.952 6.61161 19.072C6.54228 19.1893 6.45161 19.2867 6.33961 19.364C6.22761 19.4387 6.10094 19.4933 5.95961 19.528C5.81828 19.5627 5.67561 19.58 5.53161 19.58C5.38761 19.58 5.24494 19.5627 5.10361 19.528C4.96494 19.496 4.83694 19.444 4.71961 19.372C4.60494 19.3 4.50361 19.2093 4.41561 19.1C4.33028 18.9907 4.26894 18.86 4.23161 18.708L5.11961 18.5C5.13561 18.5693 5.17428 18.6333 5.23561 18.692C5.29961 18.7507 5.38094 18.78 5.47961 18.78C5.50628 18.78 5.53428 18.7773 5.56361 18.772C5.59294 18.764 5.61961 18.7533 5.64361 18.74C5.66761 18.724 5.68761 18.704 5.70361 18.68C5.71961 18.656 5.72761 18.6253 5.72761 18.588C5.72761 18.5027 5.69028 18.4467 5.61561 18.42C5.54094 18.3933 5.44094 18.38 5.31561 18.38H5.04361V17.724H5.34761C5.44894 17.724 5.53028 17.7107 5.59161 17.684C5.65294 17.6547 5.68361 17.6 5.68361 17.52C5.68361 17.4587 5.65961 17.416 5.61161 17.392C5.56361 17.368 5.51294 17.356 5.45961 17.356C5.39294 17.356 5.33161 17.3773 5.27561 17.42C5.21961 17.46 5.18494 17.52 5.17161 17.6L4.28761 17.412C4.33561 17.2573 4.40361 17.128 4.49161 17.024C4.57961 16.9173 4.67961 16.832 4.79161 16.768C4.90628 16.704 5.02761 16.6587 5.15561 16.632C5.28628 16.6027 5.41428 16.588 5.53961 16.588C5.66494 16.588 5.79428 16.604 5.92761 16.636C6.06094 16.6653 6.18228 16.7147 6.29161 16.784C6.40094 16.8507 6.49028 16.9373 6.55961 17.044C6.62894 17.148 6.66361 17.2747 6.66361 17.424C6.66361 17.584 6.62094 17.712 6.53561 17.808C6.45294 17.9013 6.35161 17.9653 6.23161 18V18.016Z" fill="#0C0310"/>
</svg>
