<svg id="target" xmlns="http://www.w3.org/2000/svg" viewBox="0 0 24 24"><title>Map-pin</title><path d="M15.6,6.43A5,5,0,0,0,12,5h0A5,5,0,0,0,8.36,6.43,5,5,0,0,0,7,10.15c0,2.45,1.61,5.31,4.64,8.48L12,19l.36-.37c3.06-3.18,4.62-6,4.64-8.49A5,5,0,0,0,15.6,6.43ZM12,17.55c-2.61-2.82-4-5.32-4-7.43a4,4,0,0,1,1.07-3A4,4,0,0,1,12,6h0a4,4,0,0,1,2.92,1.13,4.09,4.09,0,0,1,1.11,3C16,12.23,14.63,14.72,12,17.55Z"/><path d="M12,8a2,2,0,1,0,2,2A2,2,0,0,0,12,8Zm0,2.85a.86.86,0,1,1,.86-.85A.86.86,0,0,1,12,10.85Z" /></svg>