<svg width="24" height="24" viewBox="0 0 24 24" fill="none" xmlns="http://www.w3.org/2000/svg">
<path d="M4 6C4 4.89543 4.89543 4 6 4H18C19.1046 4 20 4.89543 20 6V14C20 15.1046 19.1046 16 18 16H12.2071C12.0745 16 11.9473 16.0527 11.8536 16.1464L8.85355 19.1464C8.53857 19.4614 8 19.2383 8 18.7929V16.5C8 16.2239 7.77614 16 7.5 16H6C4.89543 16 4 15.1046 4 14V6Z" stroke="#0C0310" stroke-width="2" stroke-linecap="round"/>
<path d="M8 8H16" stroke="#0C0310" stroke-width="2" stroke-linecap="round"/>
<path d="M8 12H11" stroke="#0C0310" stroke-width="2" stroke-linecap="round"/>
</svg>
