<?xml version="1.0" encoding="UTF-8"?>
<svg width="24px" height="24px" viewBox="0 0 24 24" version="1.1" xmlns="http://www.w3.org/2000/svg" xmlns:xlink="http://www.w3.org/1999/xlink">
    <!-- Generator: Sketch 48.1 (47250) - http://www.bohemiancoding.com/sketch -->
    <title>24x24</title>
    <desc>Created with Sketch.</desc>
    <defs></defs>
    <g id="Page-1" stroke="none" stroke-width="1" fill="none" fill-rule="evenodd">
        <g id="Money">
            <rect id="24x24" x="0" y="0" width="24" height="24"></rect>
            <path d="M18,15.5 L18,6.5 C18,5.94771525 17.5522847,5.5 17,5.5 L5,5.5 C4.44771525,5.5 4,5.94771525 4,6.5 L4,15.5 C4,16.0522847 4.44771525,16.5 5,16.5 L17,16.5 C17.5522847,16.5 18,16.0522847 18,15.5 Z M5,6.5 L17,6.5 L17,15.5 L5,15.5 L5,6.5 Z M11,13.67 C9.52539972,13.67 8.33,12.4746003 8.33,11 C8.33,9.52539972 9.52539972,8.33 11,8.33 C12.4746003,8.33 13.67,9.52539972 13.67,11 C13.6645164,12.4723229 12.4723229,13.6645164 11,13.67 Z M11,9.33 C10.0776845,9.33 9.33,10.0776845 9.33,11 C9.33,11.9223155 10.0776845,12.67 11,12.67 C11.9223155,12.67 12.67,11.9223155 12.67,11 C12.67,10.5570885 12.4940541,10.1323174 12.1808683,9.81913168 C11.8676826,9.50594592 11.4429115,9.33 11,9.33 Z M19,8 L20,8 L20,17.5 C20,18.0522847 19.5522847,18.5 19,18.5 L7,18.5 L7,17.5 L19,17.5 L19,8 Z" id="Shape" fill="#000000" fill-rule="nonzero"></path>
        </g>
    </g>
</svg>