<svg id="target" xmlns="http://www.w3.org/2000/svg" viewBox="0 0 24 24"><title>Phone</title><path d="M17,13.76h0a7.47,7.47,0,0,1-1.69-.42,1.23,1.23,0,0,0-1.28.27l-.76.77a9.68,9.68,0,0,1-3.62-3.62h0l.77-.76a1.24,1.24,0,0,0,.27-1.27A7.62,7.62,0,0,1,10.22,7,1.24,1.24,0,0,0,9,6H7.21a1.23,1.23,0,0,0-.9.39,1.19,1.19,0,0,0-.3.92,11.79,11.79,0,0,0,1.85,5.22,11.8,11.8,0,0,0,3.62,3.62A12.09,12.09,0,0,0,16.69,18h.1a1.19,1.19,0,0,0,.82-.32,1.2,1.2,0,0,0,.39-.89V15A1.21,1.21,0,0,0,17,13.76Zm0,3a.19.19,0,0,1-.07.15.21.21,0,0,1-.15.05A11,11,0,0,1,12,15.31,10.84,10.84,0,0,1,8.7,12,11,11,0,0,1,7,7.22a.25.25,0,0,1,0-.15A.2.2,0,0,1,7.21,7H9a.2.2,0,0,1,.21.17,9.06,9.06,0,0,0,.48,1.91.2.2,0,0,1,0,.21L8.36,10.6l.38.66a10.76,10.76,0,0,0,4,4l.67.37,1.3-1.3a.19.19,0,0,1,.22,0,8.34,8.34,0,0,0,1.91.47A.22.22,0,0,1,17,15Z"/></svg>