<?xml version="1.0" encoding="utf-8"?>
<!-- Generator: Adobe Illustrator 22.0.1, SVG Export Plug-In . SVG Version: 6.00 Build 0)  -->
<svg version="1.1" id="Capa_1" xmlns="http://www.w3.org/2000/svg" xmlns:xlink="http://www.w3.org/1999/xlink" x="0px" y="0px"
	 viewBox="0 0 24 24" style="enable-background:new 0 0 24 24;" xml:space="preserve">
<style type="text/css">
	.st0{fill:#1D1D1B;}
</style>
<title>Keyicons/Music/Play</title>
<desc>Created with Sketch.</desc>
<g id="Vectors">
	<g id="Keyicons_x2F_Music_x2F_Play">
		<path class="st0" d="M9,17.1c-0.3,0-0.6-0.2-0.8-0.4C8.1,16.5,8,16.3,8,16.1V7.9c0-0.6,0.4-1,1-1c0.2,0,0.4,0.1,0.6,0.2l6.2,4.1
			c0.5,0.3,0.6,0.9,0.3,1.4c-0.1,0.1-0.2,0.2-0.3,0.3L9.6,17C9.4,17.1,9.2,17.1,9,17.1z M9,7.9v8.3l6.2-4.1L9,7.9z M9.3,7.5L9,7.9
			c0,0,0,0,0,0L9.3,7.5z"/>
	</g>
</g>
</svg>
