<?xml version="1.0" encoding="UTF-8"?>
<svg width="24px" height="24px" viewBox="0 0 24 24" version="1.1" xmlns="http://www.w3.org/2000/svg" xmlns:xlink="http://www.w3.org/1999/xlink">
    <!-- Generator: Sketch 48.1 (47250) - http://www.bohemiancoding.com/sketch -->
    <title>24x24</title>
    <desc>Created with Sketch.</desc>
    <defs></defs>
    <g id="Page-1" stroke="none" stroke-width="1" fill="none" fill-rule="evenodd">
        <g id="Search">
            <rect id="24x24" x="0" y="0" width="24" height="24"></rect>
            <path d="M18.2627819,17.4978933 L14.6927819,13.9378933 C16.3649047,11.8634979 16.1166247,8.84229592 14.1282783,7.068715 C12.1399318,5.29513407 9.11010298,5.39230278 7.23948551,7.28964336 C5.36886804,9.18698393 5.31468324,12.2178862 7.11628783,14.1808767 C8.91789243,16.1438673 11.942312,16.3492705 13.9927819,14.6478933 L17.5627819,18.2178933 L18.2627819,17.4978933 Z M7.92278189,13.6078933 C6.45471534,12.0010984 6.51057383,9.5236746 8.0495685,7.98467992 C9.58856318,6.44568525 12.065987,6.38982676 13.6727819,7.8578933 C15.1408484,9.4646882 15.0849899,11.942112 13.5459953,13.4811067 C12.0070006,15.0201014 9.52957679,15.0759598 7.92278189,13.6078933 Z" id="Shape" fill="#000000" fill-rule="nonzero"></path>
        </g>
    </g>
</svg>