<svg id="target" xmlns="http://www.w3.org/2000/svg" viewBox="0 0 24 24"><title>Settings</title><path d="M12,10a2,2,0,1,0,2,2A2,2,0,0,0,12,10Zm0,2.86a.86.86,0,1,1,.86-.86A.87.87,0,0,1,12,12.86Z"/><path d="M17.66,14H19V10H17.66c-.07-.2-.15-.39-.24-.59l.94-.95L15.54,5.64l-.95.94h0c-.2-.09-.39-.17-.59-.24V5H10V6.34c-.2.07-.39.15-.59.24l-.95-.94L5.64,8.46l.94.95h0c-.09.2-.17.39-.24.59H5v4H6.34a6.07,6.07,0,0,0,.24.59l-.94.95,2.82,2.82.95-.94a6.07,6.07,0,0,0,.59.24V19h4V17.66a6.07,6.07,0,0,0,.59-.24l.95.94,2.82-2.82-.94-.95h0A6.07,6.07,0,0,0,17.66,14Zm-.57,1.54-1.55,1.55-.77-.76-.57.27a4.4,4.4,0,0,1-.5.21l-.6.21V18.1H10.9V17l-.6-.21a4.4,4.4,0,0,1-.5-.21l-.57-.27-.77.76L6.91,15.54l.76-.77L7.4,14.2a4.4,4.4,0,0,1-.21-.5L7,13.1H5.9V10.9H7l.21-.6a4.4,4.4,0,0,1,.21-.5l.27-.57-.76-.77L8.46,6.91l.77.76L9.8,7.4a4.4,4.4,0,0,1,.5-.21L10.9,7V5.9h2.2V7l.6.21a4.4,4.4,0,0,1,.5.21l.57.27.77-.76,1.55,1.55-.76.77.27.57a4.4,4.4,0,0,1,.21.5l.21.6H18.1v2.2H17l-.21.6a4.4,4.4,0,0,1-.21.5l-.27.57Z"/></svg>