<?xml version="1.0" encoding="UTF-8"?>
<svg width="24px" height="24px" viewBox="0 0 24 24" version="1.1" xmlns="http://www.w3.org/2000/svg" xmlns:xlink="http://www.w3.org/1999/xlink">
    <!-- Generator: Sketch 48.1 (47250) - http://www.bohemiancoding.com/sketch -->
    <title>24x24</title>
    <desc>Created with Sketch.</desc>
    <defs></defs>
    <g id="Page-1" stroke="none" stroke-width="1" fill="none" fill-rule="evenodd">
        <g id="Settings">
            <rect id="24x24" x="0" y="0" width="24" height="24"></rect>
            <path d="M12,10 C10.8954305,10 10,10.8954305 10,12 C10,13.1045695 10.8954305,14 12,14 C13.1045695,14 14,13.1045695 14,12 C14,10.8954305 13.1045695,10 12,10 Z M12,12.86 C11.5250351,12.86 11.14,12.4749649 11.14,12 C11.14,11.5250351 11.5250351,11.14 12,11.14 C12.4749649,11.14 12.86,11.5250351 12.86,12 C12.8545971,12.4727088 12.4727088,12.8545971 12,12.86 Z M17.66,14 L19,14 L19,10 L17.66,10 C17.59,9.8 17.51,9.61 17.42,9.41 L18.36,8.46 L15.54,5.64 L14.59,6.58 C14.39,6.49 14.2,6.41 14,6.34 L14,5 L10,5 L10,6.34 C9.8,6.41 9.61,6.49 9.41,6.58 L8.46,5.64 L5.64,8.46 L6.58,9.41 C6.49,9.61 6.41,9.8 6.34,10 L5,10 L5,14 L6.34,14 C6.40961931,14.2007314 6.48972957,14.3976691 6.58,14.59 L5.64,15.54 L8.46,18.36 L9.41,17.42 C9.60233091,17.5102704 9.79926863,17.5903807 10,17.66 L10,19 L14,19 L14,17.66 C14.2007314,17.5903807 14.3976691,17.5102704 14.59,17.42 L15.54,18.36 L18.36,15.54 L17.42,14.59 C17.5102704,14.3976691 17.5903807,14.2007314 17.66,14 Z M17.09,15.54 L15.54,17.09 L14.77,16.33 L14.2,16.6 C14.0378098,16.6802142 13.8708261,16.7503474 13.7,16.81 L13.1,17.02 L13.1,18.1 L10.9,18.1 L10.9,17 L10.3,16.79 C10.1291739,16.7303474 9.96219019,16.6602142 9.8,16.58 L9.23,16.31 L8.46,17.07 L6.91,15.54 L7.67,14.77 L7.4,14.2 C7.3197858,14.0378098 7.24965262,13.8708261 7.19,13.7 L7,13.1 L5.9,13.1 L5.9,10.9 L7,10.9 L7.21,10.3 C7.26965262,10.1291739 7.3397858,9.96219019 7.42,9.8 L7.69,9.23 L6.93,8.46 L8.46,6.91 L9.23,7.67 L9.8,7.4 C9.96219019,7.3197858 10.1291739,7.24965262 10.3,7.19 L10.9,7 L10.9,5.9 L13.1,5.9 L13.1,7 L13.7,7.21 C13.8708261,7.26965262 14.0378098,7.3397858 14.2,7.42 L14.77,7.69 L15.54,6.93 L17.09,8.48 L16.33,9.25 L16.6,9.82 C16.6802142,9.98219019 16.7503474,10.1491739 16.81,10.32 L17.02,10.92 L18.1,10.92 L18.1,13.12 L17,13.12 L16.79,13.72 C16.7303474,13.8908261 16.6602142,14.0578098 16.58,14.22 L16.31,14.79 L17.09,15.54 Z" id="Shape" fill="#000000" fill-rule="nonzero"></path>
        </g>
    </g>
</svg>