<?xml version="1.0" encoding="utf-8"?>
<!-- Generator: Adobe Illustrator 22.0.1, SVG Export Plug-In . SVG Version: 6.00 Build 0)  -->
<svg version="1.1" id="Capa_1" xmlns="http://www.w3.org/2000/svg" xmlns:xlink="http://www.w3.org/1999/xlink" x="0px" y="0px"
	 viewBox="0 0 20 20" style="enable-background:new 0 0 20 20;" xml:space="preserve">
<path d="M17.5,7.5l-0.7-3.6c0-0.2-0.3-0.4-0.5-0.4H3.7c-0.2,0-0.5,0.2-0.5,0.4L2.5,7.5v1C2.5,9.1,2.7,9.6,3,10h0v6.5
	C3,17.3,3.7,18,4.5,18h11c0.8,0,1.5-0.7,1.5-1.5V10h0c0.3-0.4,0.5-0.9,0.5-1.5V7.5z M8.5,7.5h3v1c0,0.8-0.7,1.5-1.5,1.5
	S8.5,9.3,8.5,8.5V7.5z M4.1,4.5h11.7l0.4,2H3.7L4.1,4.5z M3.5,8.5V7.6l0-0.1h3v1C6.5,9.3,5.8,10,5,10S3.5,9.3,3.5,8.5z M12,17H8
	v-3.3c0-0.3,0.2-0.5,0.5-0.5h3c0.3,0,0.5,0.2,0.5,0.5V17z M16,16.5c0,0.3-0.2,0.5-0.5,0.5H13v-3.3c0-0.8-0.7-1.5-1.5-1.5h-3
	c-0.8,0-1.5,0.7-1.5,1.5V17H4.5C4.2,17,4,16.8,4,16.5v-5.7C4.3,10.9,4.6,11,5,11c1.4,0,2.5-1.1,2.5-2.5C7.5,9.9,8.6,11,10,11
	s2.5-1.1,2.5-2.5c0,1.4,1.1,2.5,2.5,2.5c0.4,0,0.7-0.1,1-0.2V16.5z M16.5,8.5c0,0.8-0.7,1.5-1.5,1.5s-1.5-0.7-1.5-1.5v-1h3l0,0.1
	V8.5z"/>
</svg>
