<?xml version="1.0" encoding="UTF-8"?>
<svg width="24px" height="24px" viewBox="0 0 24 24" version="1.1" xmlns="http://www.w3.org/2000/svg" xmlns:xlink="http://www.w3.org/1999/xlink">
    <!-- Generator: Sketch 48.1 (47250) - http://www.bohemiancoding.com/sketch -->
    <title>24x24</title>
    <desc>Created with Sketch.</desc>
    <defs></defs>
    <g id="Page-1" stroke="none" stroke-width="1" fill="none" fill-rule="evenodd">
        <g id="Shopping-cart">
            <rect id="24x24" x="0" y="0" width="24" height="24"></rect>
            <path d="M7.71,7.5 L7.43,6 L5.5,6 C5.22385763,6 5,6.22385763 5,6.5 C5,6.77614237 5.22385763,7 5.5,7 L6.6,7 L8.17,15.44 L16.17,15.44 C16.4461424,15.44 16.67,15.2161424 16.67,14.94 C16.67,14.6638576 16.4461424,14.44 16.17,14.44 L9,14.44 L8.83,13.5 L17.24,13.5 C17.7321797,13.5071559 18.1563726,13.1550758 18.24,12.67 L19.12,7.5 L7.71,7.5 Z M17.24,12.5 L8.64,12.5 L7.94,8.5 L17.94,8.5 L17.24,12.5 Z M14.55,16 C13.7228971,16.0055141 13.0563448,16.6795091 13.0600148,17.5066222 C13.0636847,18.3337354 13.7361918,19.0017888 14.5633111,18.999963 C15.3904304,18.9981372 16.0599816,18.3271213 16.06,17.5 C16.0600089,17.1004366 15.9006016,16.7173824 15.6171306,16.4357886 C15.3336595,16.1541948 14.9495545,15.9973362 14.55,16 Z M14.55,18 C14.2738576,18 14.05,17.7761424 14.05,17.5 C14.05,17.2238576 14.2738576,17 14.55,17 C14.8261424,17 15.05,17.2238576 15.05,17.5 C15.05,17.7761424 14.8261424,18 14.55,18 Z M10.55,16 C9.72289705,16.0055141 9.05634478,16.6795091 9.06001477,17.5066222 C9.06368475,18.3337354 9.73619182,19.0017888 10.5633111,18.999963 C11.3904304,18.9981372 12.0599816,18.3271213 12.06,17.5 C12.0600089,17.1004366 11.9006016,16.7173824 11.6171306,16.4357886 C11.3336595,16.1541948 10.9495545,15.9973362 10.55,16 Z M10.55,18 C10.2738576,18 10.05,17.7761424 10.05,17.5 C10.05,17.2238576 10.2738576,17 10.55,17 C10.8261424,17 11.05,17.2238576 11.05,17.5 C11.05,17.7761424 10.8261424,18 10.55,18 Z" id="Shape" fill="#000000" fill-rule="nonzero"></path>
        </g>
    </g>
</svg>