<?xml version="1.0" encoding="utf-8"?>
<!-- Generator: Adobe Illustrator 19.0.0, SVG Export Plug-In . SVG Version: 6.00 Build 0)  -->
<svg version="1.1" id="Capa_1" xmlns="http://www.w3.org/2000/svg" xmlns:xlink="http://www.w3.org/1999/xlink" x="0px" y="0px"
	 viewBox="-589 304 20 20" style="enable-background:new -589 304 20 20;" xml:space="preserve">
<path d="M-572.5,311.2l-0.6-3.1c0-0.2-0.3-0.3-0.4-0.3h-10.9c-0.2,0-0.4,0.2-0.4,0.3l-0.6,3.1v0.9c0,0.5,0.2,1,0.4,1.3l0,0v5.6
	c0,0.7,0.6,1.3,1.3,1.3h9.5c0.7,0,1.3-0.6,1.3-1.3v-5.6l0,0c0.3-0.3,0.4-0.8,0.4-1.3V311.2z M-580.3,311.2h2.6v0.9
	c0,0.7-0.6,1.3-1.3,1.3s-1.3-0.6-1.3-1.3V311.2z M-584.1,308.6h10.1l0.3,1.7h-10.8L-584.1,308.6z M-584.6,312v-0.8v-0.1h2.6v0.9
	c0,0.7-0.6,1.3-1.3,1.3C-584,313.4-584.6,312.7-584.6,312z M-577.3,319.4h-3.5v-2.9c0-0.3,0.2-0.4,0.4-0.4h2.6
	c0.3,0,0.4,0.2,0.4,0.4V319.4z M-573.8,319c0,0.3-0.2,0.4-0.4,0.4h-2.2v-2.9c0-0.7-0.6-1.3-1.3-1.3h-2.6c-0.7,0-1.3,0.6-1.3,1.3v2.9
	h-2.2c-0.3,0-0.4-0.2-0.4-0.4V314c0.3,0.1,0.5,0.2,0.9,0.2c1.2,0,2.2-1,2.2-2.2c0,1.2,1,2.2,2.2,2.2s2.2-1,2.2-2.2
	c0,1.2,1,2.2,2.2,2.2c0.3,0,0.6-0.1,0.9-0.2V319z M-573.4,312c0,0.7-0.6,1.3-1.3,1.3c-0.7,0-1.3-0.6-1.3-1.3v-0.9h2.6v0.1V312z"/>
</svg>
