<svg width="24" height="24" viewBox="0 0 24 24" fill="none" xmlns="http://www.w3.org/2000/svg">
<path d="M3 6H5C8.31371 6 11 8.68629 11 12V12C11 15.3137 8.31371 18 5 18H3" stroke="#0C0310" stroke-width="2" stroke-linecap="round"/>
<path d="M20 6H17C13.6863 6 11 8.68629 11 12V12C11 15.3137 13.6863 18 17 18H20" stroke="#0C0310" stroke-width="2" stroke-linecap="round"/>
<path d="M18 3L20.2929 5.29289C20.6834 5.68342 20.6834 6.31658 20.2929 6.70711L18 9" stroke="#0C0310" stroke-width="2" stroke-linecap="round"/>
<path d="M18 15L20.2929 17.2929C20.6834 17.6834 20.6834 18.3166 20.2929 18.7071L18 21" stroke="#0C0310" stroke-width="2" stroke-linecap="round"/>
</svg>
