<?xml version="1.0" encoding="utf-8"?>
<!-- Generator: Adobe Illustrator 22.0.1, SVG Export Plug-In . SVG Version: 6.00 Build 0)  -->
<svg version="1.1" id="Capa_1" xmlns="http://www.w3.org/2000/svg" xmlns:xlink="http://www.w3.org/1999/xlink" x="0px" y="0px"
	 viewBox="0 0 24 24" style="enable-background:new 0 0 24 24;" xml:space="preserve">
<style type="text/css">
	.st0{fill:#1D1D1B;}
</style>
<title>Keyicons/Music/Shuffle-play</title>
<desc>Created with Sketch.</desc>
<path class="st0" d="M16,15.5h-1c-1.9,0-3.5-1.6-3.5-3.5s1.6-3.5,3.5-3.5h1V10l3.1-2L16,6v1.5h-1c-1.8,0-3.3,1-4,2.5
	c-0.7-1.5-2.2-2.5-4-2.5H5v1h2c1.9,0,3.5,1.6,3.5,3.5S8.9,15.5,7,15.5H5v1h2c1.8,0,3.3-1,4-2.5c0.7,1.5,2.2,2.5,4,2.5h1V18l3.1-2
	L16,14V15.5z"/>
</svg>
