<?xml version="1.0" encoding="UTF-8"?>
<svg width="20px" height="20px" viewBox="0 0 20 20" version="1.1" xmlns="http://www.w3.org/2000/svg" xmlns:xlink="http://www.w3.org/1999/xlink">
    <!-- Generator: Sketch 47.1 (45422) - http://www.bohemiancoding.com/sketch -->
    <title>Sketch</title>
    <desc>Created with Sketch.</desc>
    <defs></defs>
    <g id="SVG👌" stroke="none" stroke-width="1" fill="none" fill-rule="evenodd">
        <g id="Sketch" fill-rule="nonzero" fill="#000000">
            <path d="M8.87446003,14.1784955 L7.06305934,8.46928109 L4.36576192,8.46928109 L8.87446003,14.1784955 Z M7.97864614,8.46928109 L9.99205835,14.8152001 L12.0867788,8.46928109 L7.97864614,8.46928109 Z M6.83022892,4.8496732 L7.70906464,7.61960789 L12.367247,7.61960789 L13.281573,4.8496732 L6.83022892,4.8496732 Z M6.07876646,5.3669641 L4.4448897,7.61960789 L6.79347784,7.61960789 L6.07876646,5.3669641 Z M11.1035716,14.2315336 L15.7051717,8.46928109 L13.00563,8.46928109 L11.1035716,14.2315336 Z M13.9904907,5.48566263 L13.2860981,7.61960789 L15.5023531,7.61960789 L13.9904907,5.48566263 Z M6,4 L14,4 L17,8.23440398 L10,17 L3,8.13613286 L6,4 Z M12.0149793,7.62478005 L10.0253977,5.50792395 L8.31684548,7.62478005 L12.0149793,7.62478005 Z M9.9746023,4.1934596 L13.9982043,8.47445326 L6.51933616,8.47445326 L9.9746023,4.1934596 Z" id="Combined-Shape"></path>
        </g>
    </g>
</svg>