<svg width="24" height="24" viewBox="0 0 24 24" fill="none" xmlns="http://www.w3.org/2000/svg">
<path d="M4 10H20" stroke="#0C0310" stroke-width="2" stroke-linecap="round"/>
<path d="M6 5H18" stroke="#0C0310" stroke-width="2" stroke-linecap="round"/>
<path d="M18 5L20.638 9.39675C20.8552 9.75863 20.8218 10.2179 20.5545 10.5445L12.387 20.527C12.1869 20.7715 11.8131 20.7715 11.613 20.527L3.44549 10.5445C3.17825 10.2179 3.14482 9.75863 3.36195 9.39675L6 5" stroke="#0C0310" stroke-width="2" stroke-linecap="round"/>
<path d="M9 10L11.5211 18.4036C11.6636 18.8787 12.3364 18.8787 12.4789 18.4036L15 10" stroke="#0C0310" stroke-width="2" stroke-linecap="round"/>
<path d="M9 10L11.5713 5.71458C11.7655 5.39091 12.2345 5.39091 12.4287 5.71458L15 10" stroke="#0C0310" stroke-width="2" stroke-linecap="round"/>
<path d="M15 10L18 5" stroke="#0C0310" stroke-width="2" stroke-linecap="round"/>
<path d="M9 10L6 5" stroke="#0C0310" stroke-width="2" stroke-linecap="round"/>
</svg>
