<svg width="24" height="24" viewBox="0 0 24 24" fill="none" xmlns="http://www.w3.org/2000/svg">
<path d="M21 16V6.54138C21 4.68756 19.3354 3.27743 17.5068 3.5822L11.5068 4.5822C10.0602 4.82329 9 6.07486 9 7.54138V18" stroke="#0C0310" stroke-width="2" stroke-linecap="round"/>
<path d="M6.5 21C7.88071 21 9 19.8807 9 18.5V16H6.5C5.11929 16 4 17.1193 4 18.5C4 19.8807 5.11929 21 6.5 21Z" stroke="#0C0310" stroke-width="2" stroke-linecap="round"/>
<path d="M18.5 19C19.8807 19 21 17.8807 21 16.5V14H18.5C17.1193 14 16 15.1193 16 16.5C16 17.8807 17.1193 19 18.5 19Z" stroke="#0C0310" stroke-width="2" stroke-linecap="round"/>
</svg>
