<svg id="target" xmlns="http://www.w3.org/2000/svg" viewBox="0 0 24 24"><title>Star</title><path d="M19,10.27a1,1,0,0,0-.83-.74L14.53,9,12.93,5.6a1,1,0,0,0-1.86,0L9.47,9l-3.59.55a1,1,0,0,0-.83.74,1.11,1.11,0,0,0,.26,1.1L7.89,14l-.62,3.72a1.11,1.11,0,0,0,.41,1.07,1,1,0,0,0,1.1.08L12,17.1l3.21,1.77a1,1,0,0,0,1.09-.08,1.08,1.08,0,0,0,.42-1.06L16.09,14l2.6-2.63A1.11,1.11,0,0,0,19,10.27Zm-3.71,2.84a1.21,1.21,0,0,0-.32,1l.58,3.56-3-1.68a1.07,1.07,0,0,0-1,0l-3,1.68L9,14.14a1.19,1.19,0,0,0-.33-1L6.2,10.59l3.39-.52a1.08,1.08,0,0,0,.84-.64L12,6.2l1.52,3.23a1.08,1.08,0,0,0,.84.64l3.39.52Z"/></svg>