<?xml version="1.0" encoding="utf-8"?>
<!-- Generator: Adobe Illustrator 22.0.1, SVG Export Plug-In . SVG Version: 6.00 Build 0)  -->
<svg version="1.1" id="Capa_1" xmlns="http://www.w3.org/2000/svg" xmlns:xlink="http://www.w3.org/1999/xlink" x="0px" y="0px"
	 viewBox="0 0 24 24" style="enable-background:new 0 0 24 24;" xml:space="preserve">
<style type="text/css">
	.st0{fill:#1D1D1B;}
</style>
<title>Keyicons/Music/Streaming</title>
<desc>Created with Sketch.</desc>
<g>
	<path class="st0" d="M15.9,8.1l-0.7,0.7c0.9,0.9,1.3,2,1.3,3.2c0,1.2-0.5,2.3-1.3,3.2l0.7,0.7c1-1,1.6-2.4,1.6-3.9
		C17.5,10.5,16.9,9.1,15.9,8.1z"/>
	<path class="st0" d="M14.5,9.5l-0.7,0.7c0.5,0.5,0.7,1.1,0.7,1.8c0,0.7-0.3,1.3-0.7,1.8l0.7,0.7c0.7-0.7,1-1.5,1-2.5
		C15.5,11.1,15.1,10.2,14.5,9.5z"/>
	<path class="st0" d="M17.3,6.7l-0.7,0.7c1.2,1.2,1.9,2.8,1.9,4.6c0,1.7-0.7,3.4-1.9,4.6l0.7,0.7c1.4-1.4,2.2-3.3,2.2-5.3
		C19.5,10,18.7,8.1,17.3,6.7z"/>
	<path class="st0" d="M8.8,8.8L8.1,8.1c-1.1,1-1.6,2.4-1.6,3.9c0,1.5,0.6,2.8,1.6,3.9l0.7-0.7c-0.8-0.8-1.3-2-1.3-3.2
		C7.5,10.8,8,9.6,8.8,8.8z"/>
	<path class="st0" d="M9.5,9.5c-0.7,0.7-1,1.5-1,2.5c0,0.9,0.4,1.8,1,2.5l0.7-0.7c-0.5-0.5-0.7-1.1-0.7-1.8c0-0.7,0.3-1.3,0.7-1.8
		L9.5,9.5z"/>
	<path class="st0" d="M7.4,7.4L6.7,6.7C5.3,8.1,4.5,10,4.5,12c0,2,0.8,3.9,2.2,5.3l0.7-0.7c-1.2-1.2-1.9-2.9-1.9-4.6
		C5.5,10.3,6.2,8.7,7.4,7.4z"/>
	<path class="st0" d="M12,10.5c-0.8,0-1.5,0.7-1.5,1.5s0.7,1.5,1.5,1.5s1.5-0.7,1.5-1.5S12.8,10.5,12,10.5z M12,12.5
		c-0.3,0-0.5-0.2-0.5-0.5s0.2-0.5,0.5-0.5s0.5,0.2,0.5,0.5S12.3,12.5,12,12.5z"/>
</g>
</svg>
