<svg id="target" xmlns="http://www.w3.org/2000/svg" viewBox="0 0 24 24"><title>Tags</title><path d="M17,15.27H9.67a2,2,0,0,1-1.2-.4l-2.67-2a2,2,0,0,1-.8-1.6v-2a2,2,0,0,1,.8-1.6l2.67-2a2.06,2.06,0,0,1,1.2-.4H17a2,2,0,0,1,2,2v6A2,2,0,0,1,17,15.27Zm-7.33-9a1,1,0,0,0-.6.2l-2.67,2a1,1,0,0,0-.4.8v2a1,1,0,0,0,.4.8l2.67,2a1,1,0,0,0,.6.2H17a1,1,0,0,0,1-1v-6a1,1,0,0,0-1-1Z"/><path d="M10,12.27a2,2,0,1,1,2-2A2,2,0,0,1,10,12.27Zm0-3a1,1,0,1,0,1,1A1,1,0,0,0,10,9.27Z"/><path d="M16.62,16.27l-.7,1.45-3.09-1.45H10.48l5,2.36a1.13,1.13,0,0,0,.44.1,1,1,0,0,0,.9-.57l.9-1.89Z"/></svg>