<?xml version="1.0" encoding="UTF-8"?>
<svg width="24px" height="24px" viewBox="0 0 24 24" version="1.1" xmlns="http://www.w3.org/2000/svg" xmlns:xlink="http://www.w3.org/1999/xlink">
    <!-- Generator: Sketch 48.1 (47250) - http://www.bohemiancoding.com/sketch -->
    <title>24x24</title>
    <desc>Created with Sketch.</desc>
    <defs></defs>
    <g id="Page-1" stroke="none" stroke-width="1" fill="none" fill-rule="evenodd">
        <g id="User">
            <rect id="24x24" x="0" y="0" width="24" height="24"></rect>
            <path d="M12,5 C8.13400675,5 5,8.13400675 5,12 C5,15.8659932 8.13400675,19 12,19 C15.8659932,19 19,15.8659932 19,12 C19,8.13400675 15.8659932,5 12,5 Z M8.6,16.94 C8.66295448,16.755944 8.73640831,16.5756482 8.82,16.4 C9.44966779,15.214128 10.6899508,14.4802852 12.0324909,14.4992536 C13.3750311,14.5182219 14.5940866,15.2868121 15.19,16.49 C15.26,16.64 15.32,16.8 15.38,16.96 C14.3817922,17.6350076 13.2050085,17.9970949 12,18 C10.7855061,17.9989166 9.59993326,17.6292969 8.6,16.94 Z M16.18,16.29 C16.18,16.21 16.12,16.11 16.07,16.02 C15.2953042,14.5180036 13.754931,13.5661614 12.0650468,13.5452211 C10.3751627,13.5242808 8.81167642,14.4376612 8,15.92 C7.93980978,16.0354956 7.88962623,16.1559361 7.85,16.28 C6.10333829,14.5758946 5.56274754,11.9836947 6.48267073,9.72348596 C7.40259393,7.46327721 9.59975365,5.98536381 12.04,5.98536381 C14.4802463,5.98536381 16.6774061,7.46327721 17.5973293,9.72348596 C18.5172525,11.9836947 17.9766617,14.5758946 16.23,16.28 L16.18,16.29 Z M12,8 C10.6192881,8 9.5,9.11928813 9.5,10.5 C9.5,11.8807119 10.6192881,13 12,13 C13.3807119,13 14.5,11.8807119 14.5,10.5 C14.5,9.11928813 13.3807119,8 12,8 Z M12,12 C11.1715729,12 10.5,11.3284271 10.5,10.5 C10.5,9.67157288 11.1715729,9 12,9 C12.8284271,9 13.5,9.67157288 13.5,10.5 C13.5,11.3284271 12.8284271,12 12,12 Z" id="Shape" fill="#000000" fill-rule="nonzero"></path>
        </g>
    </g>
</svg>