<svg width="24" height="24" viewBox="0 0 24 24" fill="none" xmlns="http://www.w3.org/2000/svg">
<path d="M4 11C4 9.89543 4.89543 9 6 9H7.33333C7.76607 9 8.18714 8.85964 8.53333 8.6L10.4 7.2C11.0592 6.70557 12 7.17595 12 8V16C12 16.824 11.0592 17.2944 10.4 16.8L8.53333 15.4C8.18714 15.1404 7.76607 15 7.33333 15H6C4.89543 15 4 14.1046 4 13V11Z" stroke="#0C0310" stroke-width="2" stroke-linecap="round"/>
<path d="M12 13.8643C13.1046 13.8643 14 12.9688 14 11.8643C14 10.7597 13.1046 9.86426 12 9.86426V13.8643Z" fill="#0C0310"/>
<path d="M15.5355 15.3997C17.4881 13.4471 17.4881 10.2812 15.5355 8.32861" stroke="#0C0310" stroke-width="2" stroke-linecap="round"/>
</svg>
