<?xml version="1.0" encoding="UTF-8"?>
<svg width="66px" height="66px" viewBox="0 0 66 66" version="1.1" xmlns="http://www.w3.org/2000/svg" xmlns:xlink="http://www.w3.org/1999/xlink">
    <title>Bell</title>
    <defs>
        <rect id="path-1" x="0" y="0" width="66" height="66"></rect>
    </defs>
    <g id="🖥-Landing" stroke="none" stroke-width="1" fill="none" fill-rule="evenodd">
        <g id="Iteration" transform="translate(-1115.000000, -74.000000)">
            <g id="Group-59" transform="translate(45.000000, 74.000000)">
                <g id="Bell" transform="translate(1070.000000, 0.000000)">
                    <mask id="mask-2" fill="white">
                        <use xlink:href="#path-1"></use>
                    </mask>
                    <g id="Bell-(Background/Mask)"></g>
                    <path d="M49.9853759,46.75 C52.7549008,46.75 55,44.5049008 55,41.7353759 C55,39.9044259 54.0020274,38.2189487 52.3965774,37.3383987 L50.4465504,36.2689242 C49.8498004,35.9416742 49.4386727,35.3559244 49.3341727,34.6835494 L47.1008992,20.326983 C46.0195992,13.3761104 40.0345002,8.25 33,8.25 C25.9655548,8.25 19.980372,13.3761104 18.899127,20.326983 L16.6659073,34.6835494 C16.5612973,35.3559244 16.1503373,35.9416742 15.5535873,36.2689242 L13.6034528,37.3383987 C11.9979754,38.2189487 11,39.9044259 11,41.7353759 C11,44.5049008 13.245128,46.75 16.014653,46.75 L49.9853759,46.75 Z" id="Vector" stroke="#FFFFFF" stroke-width="2" stroke-linecap="round" stroke-dasharray="0,0" mask="url(#mask-2)"></path>
                    <path d="M38.5,57.75 C37.148925,59.4376749 35.1854251,60.5 33,60.5 C30.8145749,60.5 28.851075,59.4376749 27.5,57.75" id="Vector" stroke="#FFFFFF" stroke-width="2" stroke-linecap="round" stroke-dasharray="0,0" mask="url(#mask-2)"></path>
                </g>
            </g>
        </g>
    </g>
</svg>