<?xml version="1.0" encoding="UTF-8"?>
<svg width="66px" height="66px" viewBox="0 0 66 66" version="1.1" xmlns="http://www.w3.org/2000/svg" xmlns:xlink="http://www.w3.org/1999/xlink">
    <title>mic</title>
    <g id="🖥-Landing" stroke="none" stroke-width="1" fill="none" fill-rule="evenodd">
        <g id="Artboard" transform="translate(-1461.000000, -208.000000)">
            <g id="Mic" transform="translate(1461.000000, 208.000000)">
                <path d="M66,0 L66,66 L0,66 L0,0 L66,0 Z" id="Rectangle"></path>
                <path d="M41.25,16.5 L41.25,30.25 C41.25,34.8063492 37.5563492,38.5 33,38.5 C28.4436508,38.5 24.75,34.8063492 24.75,30.25 L24.75,16.5 C24.75,11.9436508 28.4436508,8.25 33,8.25 C37.5563492,8.25 41.25,11.9436508 41.25,16.5 Z" id="Rectangle" stroke="#FFFFFF" stroke-width="2" stroke-linecap="round" stroke-dasharray="0,0"></path>
                <line x1="33" y1="49.5" x2="33" y2="57.75" id="Path" stroke="#FFFFFF" stroke-width="2" stroke-linecap="round" stroke-dasharray="0,0"></line>
                <line x1="22" y1="57.75" x2="44" y2="57.75" id="Path" stroke="#FFFFFF" stroke-width="2" stroke-linecap="round" stroke-dasharray="0,0"></line>
                <path d="M52.25,30.25 C52.25,40.8814998 43.6314998,49.5 33,49.5 C22.3685277,49.5 13.75,40.8814998 13.75,30.25" id="Path" stroke="#FFFFFF" stroke-width="2" stroke-linecap="round" stroke-dasharray="0,0"></path>
            </g>
        </g>
    </g>
</svg>