<?xml version="1.0" encoding="UTF-8"?>
<svg width="66px" height="66px" viewBox="0 0 66 66" version="1.1" xmlns="http://www.w3.org/2000/svg" xmlns:xlink="http://www.w3.org/1999/xlink">
    <title>Shopping-Bag-2</title>
    <defs>
        <rect id="path-1" x="0" y="0" width="66" height="66"></rect>
    </defs>
    <g id="🖥-Landing" stroke="none" stroke-width="1" fill="none" fill-rule="evenodd">
        <g id="Iteration" transform="translate(-45.000000, -288.000000)">
            <g id="Group-59" transform="translate(45.000000, 74.000000)">
                <g id="Shopping-Bag-2" transform="translate(0.000000, 214.000000)">
                    <mask id="mask-2" fill="white">
                        <use xlink:href="#path-1"></use>
                    </mask>
                    <g id="Shopping-Bag-2-(Background/Mask)"></g>
                    <g id="Page-1" mask="url(#mask-2)">
                        <g id="Shopping-Bag-2">
                            <path d="M66,0 L66,66 L0,66 L0,0 L66,0 Z" id="Rectangle"></path>
                            <path d="M52.25,19.25 L52.25,52.25 C52.25,55.2876577 49.7876577,57.75 46.75,57.75 L19.25,57.75 C16.212433,57.75 13.75,55.2876577 13.75,52.25 L13.75,19.25 L52.25,19.25 Z" id="Path" stroke="#FFFFFF" stroke-width="2" stroke-linecap="round" stroke-dasharray="0,0"></path>
                            <path d="M41.25,19.25 L41.25,17.0499995 C41.25,12.1898969 37.5564751,8.25 33,8.25 C28.4435249,8.25 24.75,12.1898969 24.75,17.0499995 L24.75,19.25" id="Path" stroke="#FFFFFF" stroke-width="2" stroke-linecap="round" stroke-dasharray="0,0"></path>
                            <path d="M41.2500042,30.25 C39.7312187,30.25 38.5,29.0187848 38.5,27.500001 C38.5,25.9812173 39.7312187,24.75 41.2500042,24.75 C42.7687897,24.75 44,25.9812173 44,27.500001 C44,29.0187848 42.7687897,30.25 41.2500042,30.25 Z" id="Oval" stroke="#FFFFFF" stroke-width="2" stroke-linecap="round" stroke-dasharray="0,0"></path>
                            <path d="M24.75,30.25 C23.2312169,30.25 22,29.0187848 22,27.500001 C22,25.9812173 23.2312169,24.75 24.75,24.75 C26.2687831,24.75 27.5,25.9812173 27.5,27.500001 C27.5,29.0187848 26.2687831,30.25 24.75,30.25 Z" id="Oval" stroke="#FFFFFF" stroke-width="2" stroke-linecap="round" stroke-dasharray="0,0"></path>
                        </g>
                    </g>
                </g>
            </g>
        </g>
    </g>
</svg>