<?xml version="1.0" encoding="UTF-8"?>
<svg width="66px" height="66px" viewBox="0 0 66 66" version="1.1" xmlns="http://www.w3.org/2000/svg" xmlns:xlink="http://www.w3.org/1999/xlink">
    <title>Shop</title>
    <defs>
        <rect id="path-1" x="0" y="0" width="66" height="66"></rect>
    </defs>
    <g id="🖥-Landing" stroke="none" stroke-width="1" fill="none" fill-rule="evenodd">
        <g id="Iteration" transform="translate(-45.000000, -74.000000)">
            <g id="Shop" transform="translate(45.000000, 74.000000)">
                <mask id="mask-2" fill="white">
                    <use xlink:href="#path-1"></use>
                </mask>
                <g id="Shop-(Background/Mask)"></g>
                <path d="M11,33 L11,52.25 C11,55.2876499 13.4624324,57.75 16.5,57.75 L49.5,57.75 C52.5376499,57.75 55,55.2876499 55,52.25 L55,33" id="Vector" stroke="#FFFFFF" stroke-width="2" stroke-linecap="round" stroke-dasharray="0,0" fill-rule="nonzero" mask="url(#mask-2)"></path>
                <path d="M41.25,22 L41.25,24.75 C41.25,29.3064751 37.5564751,33 33,33 C28.4435249,33 24.75,29.3064751 24.75,24.75 L24.75,22 L41.25,22 Z" id="Vector" stroke="#FFFFFF" stroke-width="2" stroke-linecap="round" stroke-dasharray="0,0" fill-rule="nonzero" mask="url(#mask-2)"></path>
                <path d="M56.5278978,22 C57.2027478,22 57.75,22.5471947 57.75,23.2222097 L57.75,24.75 C57.75,29.3064751 54.0564751,33 49.5,33 C44.9435249,33 41.25,29.3064751 41.25,24.75 L41.25,22 L56.5278978,22 Z" id="Vector" stroke="#FFFFFF" stroke-width="2" stroke-linecap="round" stroke-dasharray="0,0" fill-rule="nonzero" mask="url(#mask-2)"></path>
                <path d="M9.47220969,22 L24.75,22 L24.75,24.75 C24.75,29.3064751 21.0563374,33 16.5,33 C11.9436626,33 8.25,29.3064751 8.25,24.75 L8.25,23.2222097 C8.25,22.5471947 8.79719468,22 9.47220969,22 Z" id="Vector" stroke="#FFFFFF" stroke-width="2" stroke-linecap="round" stroke-dasharray="0,0" fill-rule="nonzero" mask="url(#mask-2)"></path>
                <path d="M11.8746379,8.25 L54.125524,8.25 C54.790749,8.25 55.3608286,8.72652029 55.4788036,9.38140529 L57.4588017,20.3814046 C57.6106017,21.2247472 56.9624274,22 56.1055274,22 L9.89463831,22 C9.03773832,22 8.38956335,21.2247472 8.54136334,20.3814046 L10.5213627,9.38140529 C10.6392552,8.72652029 11.2091929,8.25 11.8746379,8.25 Z" id="Vector" stroke="#FFFFFF" stroke-width="2" stroke-linecap="round" stroke-dasharray="0,0" fill-rule="nonzero" mask="url(#mask-2)"></path>
                <path d="M27.5,41.25 L38.5,41.25 C40.0188249,41.25 41.25,42.4811751 41.25,44 L41.25,57.75 L24.75,57.75 L24.75,44 C24.75,42.4811751 25.98123,41.25 27.5,41.25 Z" id="Vector" stroke="#FFFFFF" stroke-width="2" stroke-linecap="round" stroke-dasharray="0,0" fill-rule="nonzero" mask="url(#mask-2)"></path>
            </g>
        </g>
    </g>
</svg>