<?xml version="1.0" encoding="UTF-8"?>
<svg width="66px" height="66px" viewBox="0 0 66 66" version="1.1" xmlns="http://www.w3.org/2000/svg" xmlns:xlink="http://www.w3.org/1999/xlink">
    <title>Star</title>
    <g id="🖥-Landing" stroke="none" stroke-width="1" fill="none" fill-rule="evenodd">
        <g id="Artboard" transform="translate(-605.000000, -208.000000)">
            <g id="Star" transform="translate(605.000000, 208.000000)">
                <path d="M66,0 L66,66 L0,66 L0,0 L66,0 Z" id="Rectangle"></path>
                <path d="M34.2330568,7.99830833 L40.762109,21.2277335 C40.962309,21.6335785 41.3495068,21.9148485 41.7974818,21.9799135 L56.3969564,24.1013722 C57.5247315,24.2652447 57.9749106,25.6512184 57.1589856,26.4466834 L46.5945845,36.7443604 C46.2706345,37.0603354 46.1226824,37.5154611 46.1991324,37.9615111 L48.6931086,52.5018644 C48.8856086,53.6252394 47.7066833,54.4818634 46.6979833,53.9513884 L33.639884,47.0862834 C33.239209,46.8756334 32.7607071,46.8756334 32.3600321,47.0862834 L19.3018777,53.9513884 C18.2931503,54.4818634 17.1141701,53.6252394 17.3068351,52.5018644 L19.8007286,37.9615111 C19.8772336,37.5154611 19.7293653,37.0603354 19.4052778,36.7443604 L8.84096054,26.4466834 C8.02487056,25.6512184 8.47521017,24.2652447 9.60301266,24.1013722 L24.2025418,21.9799135 C24.6504068,21.9148485 25.0375534,21.6335785 25.2378359,21.2277335 L31.7668593,7.99830833 C32.2712093,6.97635333 33.7287068,6.97635333 34.2330568,7.99830833 Z" id="Path" stroke="#FFFFFF" stroke-width="2" stroke-linecap="round" stroke-dasharray="0,0"></path>
            </g>
        </g>
    </g>
</svg>