<?xml version="1.0" encoding="UTF-8"?>
<svg width="24px" height="24px" viewBox="0 0 24 24" version="1.1" xmlns="http://www.w3.org/2000/svg" xmlns:xlink="http://www.w3.org/1999/xlink">
    <!-- Generator: Sketch 48.2 (47327) - http://www.bohemiancoding.com/sketch -->
    <title>Align-Right</title>
    <desc>Created with Sketch.</desc>
    <defs></defs>
    <g id="SVG👌" stroke="none" stroke-width="1" fill="none" fill-rule="evenodd">
        <g id="Align-Right">
            <rect id="24x24" x="0" y="0" width="24" height="24"></rect>
            <path d="M7,10.5 L7,9.5 L12,9.5 L12,10.5 L7,10.5 Z M7,14.5 L7,13.5 L12,13.5 L12,14.5 L7,14.5 Z M7,12.5 L7,11.5 L17,11.5 L17,12.5 L7,12.5 Z M7,16.5 L7,15.5 L17,15.5 L17,16.5 L7,16.5 Z M7,8.5 L7,7.5 L17,7.5 L17,8.5 L7,8.5 Z" fill="#000000" fill-rule="nonzero" transform="translate(12.000000, 12.000000) scale(-1, 1) translate(-12.000000, -12.000000) "></path>
        </g>
    </g>
</svg>