<?xml version="1.0" encoding="UTF-8"?>
<svg width="24px" height="24px" viewBox="0 0 24 24" version="1.1" xmlns="http://www.w3.org/2000/svg" xmlns:xlink="http://www.w3.org/1999/xlink">
    <!-- Generator: Sketch 48.1 (47250) - http://www.bohemiancoding.com/sketch -->
    <title>24x24</title>
    <desc>Created with Sketch.</desc>
    <defs></defs>
    <g id="Page-1" stroke="none" stroke-width="1" fill="none" fill-rule="evenodd">
        <g id="Blocked">
            <rect id="24x24" x="0" y="0" width="24" height="24"></rect>
            <path d="M12,5 C8.13400675,5 5,8.13400675 5,12 C5,15.8659932 8.13400675,19 12,19 C15.8659932,19 19,15.8659932 19,12 C19,8.13400675 15.8659932,5 12,5 Z M6,12 C6.00108565,9.76563204 7.24364625,7.71694902 9.22460325,6.68340623 C11.2055603,5.64986345 13.5967324,5.8026859 15.43,7.08 L8,16.41 C6.74341156,15.2862374 6.01753954,13.6856896 6,12 Z M12,18 C10.8360774,17.9909015 9.69992957,17.6434557 8.73,17 L16.2,7.75 C17.9158349,9.45980422 18.4352595,12.0336372 17.5168214,14.2750634 C16.5983834,16.5164896 14.4222548,17.9858033 12,18 Z" id="Shape" fill="#000000" fill-rule="nonzero" transform="translate(12.000000, 12.000000) scale(1, -1) translate(-12.000000, -12.000000) "></path>
        </g>
    </g>
</svg>