<?xml version="1.0" encoding="UTF-8"?>
<svg width="24px" height="24px" viewBox="0 0 24 24" version="1.1" xmlns="http://www.w3.org/2000/svg" xmlns:xlink="http://www.w3.org/1999/xlink">
    <!-- Generator: Sketch 48.1 (47250) - http://www.bohemiancoding.com/sketch -->
    <title>24x24</title>
    <desc>Created with Sketch.</desc>
    <defs></defs>
    <g id="Page-1" stroke="none" stroke-width="1" fill="none" fill-rule="evenodd">
        <g id="Camera">
            <rect id="24x24" x="0" y="0" width="24" height="24"></rect>
            <path d="M18.1,18.4 L5.9,18.4 C5.2,18.4 4.6,17.8 4.6,17.1 L4.6,9.7 C4.6,9 5.2,8.4 5.9,8.4 L8.5,8.4 L8.8,7.5 C8.9,6.9 9.4,6.6 10,6.6 L14,6.6 C14.6,6.6 15.1,7 15.3,7.5 L15.6,8.4 L18.2,8.4 C18.9,8.4 19.5,9 19.5,9.7 L19.5,17.1 C19.4,17.8 18.8,18.4 18.1,18.4 Z M5.9,9.3 C5.7,9.3 5.5,9.5 5.5,9.7 L5.5,17.1 C5.5,17.3 5.7,17.5 5.9,17.5 L18.1,17.5 C18.3,17.5 18.5,17.3 18.5,17.1 L18.5,9.7 C18.5,9.5 18.3,9.3 18.1,9.3 L14.9,9.3 L14.4,7.8 C14.3,7.6 14.2,7.5 14,7.5 L10,7.5 C9.8,7.5 9.6,7.6 9.6,7.8 L9.1,9.3 L5.9,9.3 Z M12,15.9 C10.4,15.9 9.1,14.6 9.1,13 C9.1,11.4 10.4,10.1 12,10.1 C13.6,10.1 14.9,11.4 14.9,13 C14.9,14.6 13.6,15.9 12,15.9 Z M12,10.9 C10.9,10.9 9.9,11.8 9.9,13 C9.9,14.1 10.8,15.1 12,15.1 C13.1,15.1 14.1,14.2 14.1,13 C14.1,11.9 13.1,10.9 12,10.9 Z" id="Shape" fill="#000000" fill-rule="nonzero"></path>
        </g>
    </g>
</svg>