<?xml version="1.0" encoding="UTF-8"?>
<svg width="24px" height="24px" viewBox="0 0 24 24" version="1.1" xmlns="http://www.w3.org/2000/svg" xmlns:xlink="http://www.w3.org/1999/xlink">
    <!-- Generator: Sketch 48.1 (47250) - http://www.bohemiancoding.com/sketch -->
    <title>24x24</title>
    <desc>Created with Sketch.</desc>
    <defs></defs>
    <g id="Page-1" stroke="none" stroke-width="1" fill="none" fill-rule="evenodd">
        <g id="Credit-Card">
            <rect id="24x24" x="0" y="0" width="24" height="24"></rect>
            <path d="M18,7 L6,7 C5.44771525,7 5,7.44771525 5,8 L5,17 C5,17.5522847 5.44771525,18 6,18 L18,18 C18.5522847,18 19,17.5522847 19,17 L19,8 C19,7.44771525 18.5522847,7 18,7 Z M18,17 L6,17 L6,11 L18,11 L18,17 Z M18,9.5 L6,9.5 L6,8 L18,8 L18,9.5 Z M14,14.5 L17,14.5 L17,15.5 L14,15.5 L14,14.5 Z" id="Shape" fill="#000000" fill-rule="nonzero"></path>
        </g>
    </g>
</svg>