<?xml version="1.0" encoding="UTF-8"?>
<svg width="24px" height="24px" viewBox="0 0 24 24" version="1.1" xmlns="http://www.w3.org/2000/svg" xmlns:xlink="http://www.w3.org/1999/xlink">
    <!-- Generator: Sketch 48.1 (47250) - http://www.bohemiancoding.com/sketch -->
    <title>24x24</title>
    <desc>Created with Sketch.</desc>
    <defs></defs>
    <g id="Page-1" stroke="none" stroke-width="1" fill="none" fill-rule="evenodd">
        <g id="File-svg">
            <rect id="24x24" x="0" y="0" width="24" height="24"></rect>
            <path d="M15.7,5 L6,5 L6,20 L19,20 L19,8.3 L15.7,5 Z M16,6.7 L17.3,8 L16,8 L16,6.7 Z M18,19 L7,19 L7,6 L15,6 L15,9 L18,9 L18,19 Z M8.5,13.4116211 L9.18847656,13.3066406 C9.21777358,13.4401048 9.27718054,13.5414222 9.36669922,13.6105957 C9.4562179,13.6797692 9.58154216,13.7143555 9.74267578,13.7143555 C9.92008552,13.7143555 10.0535477,13.6818037 10.1430664,13.6166992 C10.2032881,13.5711261 10.2333984,13.5100915 10.2333984,13.4335938 C10.2333984,13.3815102 10.2171226,13.3383791 10.1845703,13.3041992 C10.1503905,13.271647 10.0738938,13.2415366 9.95507812,13.2138672 C9.40168994,13.0917963 9.05094475,12.9803065 8.90283203,12.8793945 C8.69775288,12.7394199 8.59521484,12.5449231 8.59521484,12.2958984 C8.59521484,12.0712879 8.68391838,11.8824877 8.86132812,11.7294922 C9.03873787,11.5764966 9.31380022,11.5 9.68652344,11.5 C10.0413429,11.5 10.3050122,11.5577794 10.4775391,11.6733398 C10.650066,11.7889003 10.7688799,11.959797 10.8339844,12.1860352 L10.1870117,12.3056641 C10.1593423,12.2047521 10.1068526,12.1274417 10.029541,12.0737305 C9.95222943,12.0200193 9.84196035,11.9931641 9.69873047,11.9931641 C9.5180655,11.9931641 9.38867227,12.0183917 9.31054688,12.0688477 C9.25846328,12.1046551 9.23242188,12.1510414 9.23242188,12.2080078 C9.23242188,12.2568362 9.25520811,12.2983397 9.30078125,12.3325195 C9.36263052,12.3780927 9.57625143,12.4423824 9.94165039,12.5253906 C10.3070494,12.6083989 10.5621738,12.7101231 10.7070312,12.8305664 C10.8502611,12.9526373 10.921875,13.1227203 10.921875,13.3408203 C10.921875,13.5784517 10.8225921,13.782714 10.6240234,13.9536133 C10.4254547,14.1245126 10.1316751,14.2099609 9.74267578,14.2099609 C9.38948391,14.2099609 9.10994569,14.1383471 8.90405273,13.9951172 C8.69815978,13.8518873 8.56347688,13.6573906 8.5,13.4116211 Z M12.2353516,14.1513672 L11.1904297,11.5585938 L11.9106445,11.5585938 L12.3989258,12.8818359 L12.5405273,13.3237305 C12.5779624,13.2114252 12.6015625,13.13737 12.6113281,13.1015625 C12.6341147,13.0283199 12.6585285,12.9550785 12.6845703,12.8818359 L13.1777344,11.5585938 L13.8833008,11.5585938 L12.8530273,14.1513672 L12.2353516,14.1513672 Z M14.2397461,14.3222656 L15.0234375,14.4174805 C15.0364584,14.5086268 15.0665688,14.5712889 15.1137695,14.6054688 C15.178874,14.6542971 15.2814121,14.6787109 15.4213867,14.6787109 C15.6004241,14.6787109 15.7347001,14.6518557 15.8242188,14.5981445 C15.8844404,14.5623371 15.9300129,14.5045577 15.9609375,14.4248047 C15.9820965,14.3678383 15.9926758,14.2628588 15.9926758,14.1098633 L15.9926758,13.7314453 C15.7875966,14.0113946 15.5288102,14.1513672 15.2163086,14.1513672 C14.8679996,14.1513672 14.5921234,14.0040705 14.3886719,13.7094727 C14.2291659,13.4767241 14.1494141,13.1870135 14.1494141,12.840332 C14.1494141,12.4057595 14.2539866,12.0737316 14.4631348,11.8442383 C14.6722829,11.6147449 14.9322901,11.5 15.2431641,11.5 C15.5638037,11.5 15.8282867,11.6407864 16.0366211,11.9223633 L16.0366211,11.5585938 L16.6787109,11.5585938 L16.6787109,13.8852539 C16.6787109,14.191245 16.6534833,14.4199211 16.6030273,14.5712891 C16.5525714,14.722657 16.4817713,14.8414709 16.390625,14.9277344 C16.2994787,15.0139978 16.1778165,15.0815427 16.0256348,15.1303711 C15.873453,15.1791995 15.6809907,15.2036133 15.4482422,15.2036133 C15.0087869,15.2036133 14.6971038,15.1283373 14.5131836,14.9777832 C14.3292634,14.8272291 14.2373047,14.6363944 14.2373047,14.4052734 C14.2373047,14.3824869 14.2381185,14.3548179 14.2397461,14.3222656 Z M14.8525391,12.8012695 C14.8525391,13.076336 14.9058426,13.27775 15.0124512,13.4055176 C15.1190598,13.5332851 15.2504875,13.597168 15.4067383,13.597168 C15.5743823,13.597168 15.7159825,13.5316576 15.831543,13.4006348 C15.9471034,13.269612 16.0048828,13.0755221 16.0048828,12.8183594 C16.0048828,12.5498033 15.9495448,12.3504238 15.8388672,12.2202148 C15.7281896,12.0900059 15.588217,12.0249023 15.4189453,12.0249023 C15.2545565,12.0249023 15.1190598,12.0887852 15.0124512,12.2165527 C14.9058426,12.3443203 14.8525391,12.539224 14.8525391,12.8012695 Z" id="Shape" fill="#000000" fill-rule="nonzero"></path>
        </g>
    </g>
</svg>