<?xml version="1.0" encoding="UTF-8"?>
<svg width="24px" height="24px" viewBox="0 0 24 24" version="1.1" xmlns="http://www.w3.org/2000/svg" xmlns:xlink="http://www.w3.org/1999/xlink">
    <!-- Generator: Sketch 48.1 (47250) - http://www.bohemiancoding.com/sketch -->
    <title>24x24</title>
    <desc>Created with Sketch.</desc>
    <defs></defs>
    <g id="Page-1" stroke="none" stroke-width="1" fill="none" fill-rule="evenodd">
        <g id="File-code">
            <rect id="24x24" x="0" y="0" width="24" height="24"></rect>
            <path d="M15.2,4.5 L5.5,4.5 L5.5,19.5 L18.5,19.5 L18.5,7.8 L15.2,4.5 Z M15.5,6.2 L16.8,7.5 L15.5,7.5 L15.5,6.2 Z M17.5,18.5 L6.5,18.5 L6.5,5.5 L14.5,5.5 L14.5,8.5 L17.5,8.5 L17.5,18.5 Z M12.6,10.3 L14.3,12 L12.6,13.7 L13.3,14.4 L15.7,12 L13.3,9.6 L12.6,10.3 Z M10.7,9.6 L8.3,12 L10.7,14.4 L11.4,13.7 L9.7,12 L11.4,10.3 L10.7,9.6 Z" id="Shape" fill="#000000" fill-rule="nonzero"></path>
        </g>
    </g>
</svg>