<?xml version="1.0" encoding="UTF-8"?>
<svg width="24px" height="24px" viewBox="0 0 24 24" version="1.1" xmlns="http://www.w3.org/2000/svg" xmlns:xlink="http://www.w3.org/1999/xlink">
    <!-- Generator: Sketch 48.1 (47250) - http://www.bohemiancoding.com/sketch -->
    <title>24x24</title>
    <desc>Created with Sketch.</desc>
    <defs></defs>
    <g id="Page-1" stroke="none" stroke-width="1" fill="none" fill-rule="evenodd">
        <g id="Link">
            <rect id="24x24" x="0" y="0" width="24" height="24"></rect>
            <path d="M4.5,12 C4.5,13.6568542 5.84314575,15 7.5,15 L11,15 L11,16 L7.5,16 C5.290861,16 3.5,14.209139 3.5,12 C3.5,9.790861 5.290861,8 7.5,8 L11,8 L11,9 L7.5,9 C5.84314575,9 4.5,10.3431458 4.5,12 Z M16.5,8 C18.709139,8 20.5,9.790861 20.5,12 C20.5,14.209139 18.709139,16 16.5,16 L13,16 L13,15 L16.5,15 C18.1568542,15 19.5,13.6568542 19.5,12 C19.5,10.3431458 18.1568542,9 16.5,9 L13,9 L13,8 L16.5,8 Z M8,11.5 L16,11.5 L16,12.5 L8,12.5 L8,11.5 Z" id="Combined-Shape" fill="#000000" fill-rule="nonzero"></path>
        </g>
    </g>
</svg>