<?xml version="1.0" encoding="UTF-8"?>
<svg width="24px" height="24px" viewBox="0 0 24 24" version="1.1" xmlns="http://www.w3.org/2000/svg" xmlns:xlink="http://www.w3.org/1999/xlink">
    <!-- Generator: Sketch 48.1 (47250) - http://www.bohemiancoding.com/sketch -->
    <title>24x24</title>
    <desc>Created with Sketch.</desc>
    <defs></defs>
    <g id="Page-1" stroke="none" stroke-width="1" fill="none" fill-rule="evenodd">
        <g id="List">
            <rect id="24x24" x="0" y="0" width="24" height="24"></rect>
            <path d="M10,12.5 L10,11.5 L17,11.5 L17,12.5 L10,12.5 Z M10,16.5 L10,15.5 L17,15.5 L17,16.5 L10,16.5 Z M10,8.5 L10,7.5 L17,7.5 L17,8.5 L10,8.5 Z M7,12.5 L7,11.5 L9,11.5 L9,12.5 L7,12.5 Z M7,16.5 L7,15.5 L9,15.5 L9,16.5 L7,16.5 Z M7,8.5 L7,7.5 L9,7.5 L9,8.5 L7,8.5 Z" id="Combined-Shape" fill="#000000" fill-rule="nonzero"></path>
        </g>
    </g>
</svg>