<?xml version="1.0" encoding="utf-8"?>
<!-- Generator: Adobe Illustrator 22.0.1, SVG Export Plug-In . SVG Version: 6.00 Build 0)  -->
<svg version="1.1" id="Capa_1" xmlns="http://www.w3.org/2000/svg" xmlns:xlink="http://www.w3.org/1999/xlink" x="0px" y="0px"
	 viewBox="0 0 24 24" style="enable-background:new 0 0 24 24;" xml:space="preserve">
<style type="text/css">
	.st0{fill:#1D1D1B;}
</style>
<title>Keyicons/Music/Next</title>
<desc>Created with Sketch.</desc>
<path class="st0" d="M15.5,7C14.7,7,14,7.7,14,8.5v2.9c-0.1-0.1-0.1-0.2-0.2-0.2L7.6,7C7.4,6.9,7.2,6.9,7,6.9c-0.6,0-1,0.4-1,1v8.3
	c0,0.2,0.1,0.4,0.2,0.6C6.4,17,6.7,17.1,7,17.1c0.2,0,0.4-0.1,0.6-0.2l6.2-4.1c0.1-0.1,0.2-0.2,0.2-0.2v2.9c0,0.8,0.7,1.5,1.5,1.5
	s1.5-0.7,1.5-1.5v-7C17,7.7,16.3,7,15.5,7z M7.3,7.5L7,7.9c0,0,0,0,0,0L7.3,7.5z M7,16.1V7.9l6.2,4.1L7,16.1z M16,15.5
	c0,0.3-0.2,0.5-0.5,0.5S15,15.8,15,15.5v-7C15,8.2,15.2,8,15.5,8S16,8.2,16,8.5V15.5z"/>
</svg>
