<?xml version="1.0" encoding="UTF-8"?>
<svg width="24px" height="24px" viewBox="0 0 24 24" version="1.1" xmlns="http://www.w3.org/2000/svg" xmlns:xlink="http://www.w3.org/1999/xlink">
    <!-- Generator: Sketch 48.1 (47250) - http://www.bohemiancoding.com/sketch -->
    <title>24x24</title>
    <desc>Created with Sketch.</desc>
    <defs></defs>
    <g id="Page-1" stroke="none" stroke-width="1" fill="none" fill-rule="evenodd">
        <rect id="24x24" x="0" y="0" width="24" height="24"></rect>
        <g id="Phone" transform="translate(6.000000, 6.000000)" fill="#000000" fill-rule="nonzero">
            <path d="M10.9963735,7.76000485 C10.4185924,7.68637036 9.85140609,7.5454128 9.30637348,7.34000485 C8.86325169,7.17684263 8.36584021,7.28176536 8.02637348,7.61000485 L7.26637348,8.38000485 C5.75670605,7.52007023 4.5063081,6.26967228 3.64637348,4.76000485 L4.41637348,4.00000485 C4.7385254,3.6613858 4.84290985,3.17039228 4.68637348,2.73000485 C4.46218196,2.17384014 4.30442381,1.5931559 4.21637348,1.00000485 C4.10148475,0.417625425 3.58997477,-0.00164505397 2.99637348,4.85236859e-06 L1.20637348,4.85236859e-06 C0.865274378,-0.000411232421 0.539319121,0.140836046 0.306373476,0.390004852 C0.0805722643,0.640333148 -0.0284565294,0.974688116 0.0063734761,1.31000485 C0.19983016,3.17221208 0.833990995,4.96157401 1.85637348,6.53000485 C2.78358912,7.98704325 4.01933508,9.22278921 5.47637348,10.1500049 C7.04683629,11.1608093 8.83012622,11.7940312 10.6863735,12.0000049 L10.7863735,12.0000049 C11.0905601,12.002065 11.3839868,11.8875571 11.6063735,11.6800049 C11.8560441,11.4515958 11.9976736,11.1283899 11.9963735,10.7900049 L11.9963735,9.00000485 C12.0205055,8.3946011 11.5931479,7.86467759 10.9963735,7.76000485 Z M10.9963735,10.7600049 C10.9971913,10.8180754 10.9714054,10.8733309 10.9263735,10.9100049 C10.8847969,10.945577 10.830978,10.9635166 10.7763735,10.9600049 C9.07652548,10.7886698 7.43995232,10.2237439 5.99637348,9.31000485 C4.66876389,8.45976887 3.5425886,7.33018093 2.69637348,6.00000485 C1.76499834,4.56089803 1.18284997,2.92403379 0.996373476,1.22000485 C0.981019877,1.17118352 0.981019877,1.11882619 0.996373476,1.07000485 C1.04590276,1.00652938 1.12866476,0.978942048 1.20637348,1.00000485 L2.99637348,1.00000485 C3.09985467,0.993677292 3.19101558,1.06747422 3.20637348,1.17000485 C3.29649582,1.82222158 3.45744646,2.46267098 3.68637348,3.08000485 C3.72607955,3.14437424 3.72607955,3.22563547 3.68637348,3.29000485 L2.35637348,4.60000485 L2.73637348,5.26000485 C3.68908249,6.92623343 5.0701449,8.30729584 6.73637348,9.26000485 L7.40637348,9.63000485 L8.70637348,8.33000485 C8.77224831,8.28323063 8.86049865,8.28323063 8.92637348,8.33000485 C9.54227174,8.56146436 10.1833962,8.71922798 10.8363735,8.80000485 C10.9270163,8.82555453 10.9913442,8.90596434 10.9963735,9.00000485 L10.9963735,10.7600049 Z" id="Shape"></path>
        </g>
    </g>
</svg>