<?xml version="1.0" encoding="utf-8"?>
<!-- Generator: Adobe Illustrator 22.0.1, SVG Export Plug-In . SVG Version: 6.00 Build 0)  -->
<svg version="1.1" id="Capa_1" xmlns="http://www.w3.org/2000/svg" xmlns:xlink="http://www.w3.org/1999/xlink" x="0px" y="0px"
	 viewBox="0 0 24 24" style="enable-background:new 0 0 24 24;" xml:space="preserve">
<style type="text/css">
	.st0{fill:#1D1D1B;}
</style>
<title>Keyicons/Music/Playlist</title>
<desc>Created with Sketch.</desc>
<g>
	<path class="st0" d="M6,10.5c-0.8,0-1.5,0.7-1.5,1.5s0.7,1.5,1.5,1.5s1.5-0.7,1.5-1.5S6.8,10.5,6,10.5z M6,12.5
		c-0.3,0-0.5-0.2-0.5-0.5s0.2-0.5,0.5-0.5s0.5,0.2,0.5,0.5S6.3,12.5,6,12.5z"/>
	<path class="st0" d="M6,15.5c-0.8,0-1.5,0.7-1.5,1.5s0.7,1.5,1.5,1.5s1.5-0.7,1.5-1.5S6.8,15.5,6,15.5z M6,17.5
		c-0.3,0-0.5-0.2-0.5-0.5s0.2-0.5,0.5-0.5s0.5,0.2,0.5,0.5S6.3,17.5,6,17.5z"/>
	<rect x="10" y="6.5" class="st0" width="9" height="1"/>
	<rect x="8" y="16.5" class="st0" width="11" height="1"/>
	<rect x="8" y="11.5" class="st0" width="11" height="1"/>
	<polygon class="st0" points="5,4.5 5,9.5 9,7 	"/>
</g>
</svg>
