<?xml version="1.0" encoding="UTF-8"?>
<svg width="24px" height="24px" viewBox="0 0 24 24" version="1.1" xmlns="http://www.w3.org/2000/svg" xmlns:xlink="http://www.w3.org/1999/xlink">
    <!-- Generator: Sketch 48.2 (47327) - http://www.bohemiancoding.com/sketch -->
    <title>Reload</title>
    <desc>Created with Sketch.</desc>
    <defs>
        <polygon id="path-1" points="2.6844733 2.46190407 14.6123733 2.46190407 14.6123733 16.0449041 2.6844733 16.0449041"></polygon>
    </defs>
    <g id="SVG👌" stroke="none" stroke-width="1" fill="none" fill-rule="evenodd">
        <g id="Reload">
            <rect id="24x24" x="0" y="0" width="24" height="24"></rect>
            <g transform="translate(3.000000, 3.000000)">
                <mask id="mask-2" fill="white">
                    <use xlink:href="#path-1"></use>
                </mask>
                <g id="Clip-8" transform="translate(8.648423, 9.253404) scale(-1, 1) rotate(18.000000) translate(-8.648423, -9.253404) "></g>
                <path d="M14.1483897,9.54590146 C13.8913897,9.54590146 13.6843897,9.75290146 13.6843897,10.0099015 C13.6843897,12.8259015 11.4243897,15.1169015 8.64838974,15.1169015 C5.87238974,15.1169015 3.61238974,12.8259015 3.61238974,10.0099015 C3.61238974,7.19290146 5.87238974,4.90190146 8.64838974,4.90190146 L8.70338974,4.90190146 L8.08638974,5.27290146 C7.84138974,5.42090146 7.76138974,5.73890146 7.90938974,5.98490146 C7.99738974,6.13190146 8.14638974,6.21890146 8.30438974,6.23390146 C8.41138974,6.24390146 8.52238974,6.22190146 8.62038974,6.16290146 L10.6013897,4.97290146 C10.7433897,4.88790146 10.8353897,4.74090146 10.8513897,4.57790146 C10.8663897,4.41390146 10.8043897,4.25190146 10.6823897,4.14190146 L8.96538974,2.59490146 C8.75238974,2.40390146 8.42438974,2.41890146 8.23238974,2.63290146 C8.04038974,2.84590146 8.05838974,3.17390146 8.27138974,3.36590146 L8.94638974,3.97490146 L8.64838974,3.97490146 C5.35938974,3.97490146 2.68438974,6.68190146 2.68438974,10.0099015 C2.68438974,13.3379015 5.35938974,16.0449015 8.64838974,16.0449015 C11.9373897,16.0449015 14.6123897,13.3379015 14.6123897,10.0099015 C14.6123897,9.75290146 14.4053897,9.54590146 14.1483897,9.54590146" id="Fill-7" fill="#000000" mask="url(#mask-2)" transform="translate(8.648390, 9.253139) scale(-1, 1) rotate(18.000000) translate(-8.648390, -9.253139) "></path>
                <path d="M4.61437585,6.49129454 C4.86037585,6.36629454 4.95837585,6.06529454 4.83337585,5.81929454 C4.70737585,5.57229454 4.40637585,5.47529454 4.16037585,5.60029454 C3.91437585,5.72529454 3.81637585,6.02629454 3.94237585,6.27229454 C4.06737585,6.51929454 4.36837585,6.61629454 4.61437585,6.49129454" id="Fill-1" fill="#000000" mask="url(#mask-2)" transform="translate(4.387551, 6.045795) scale(-1, 1) rotate(18.000000) translate(-4.387551, -6.045795) "></path>
                <path d="M3.65259448,8.24961361 C3.89859448,8.12461361 3.99659448,7.82361361 3.87159448,7.57761361 C3.74559448,7.33061361 3.44459448,7.23361361 3.19859448,7.35861361 C2.95259448,7.48361361 2.85459448,7.78461361 2.97959448,8.03061361 C3.10559448,8.27761361 3.40659448,8.37461361 3.65259448,8.24961361" id="Fill-3" fill="#000000" mask="url(#mask-2)" transform="translate(3.425594, 7.804114) scale(-1, 1) rotate(18.000000) translate(-3.425594, -7.804114) "></path>
                <path d="M2.75415397,10.0321808 C2.87915397,10.2781808 3.18015397,10.3761808 3.42615397,10.2511808 C3.67315397,10.1251808 3.77015397,9.82418082 3.64515397,9.57818082 C3.52015397,9.33218082 3.21915397,9.23418082 2.97315397,9.36018082 C2.72615397,9.48518082 2.62915397,9.78618082 2.75415397,10.0321808" id="Fill-5" fill="#000000" mask="url(#mask-2)" transform="translate(3.199654, 9.805356) scale(-1, 1) rotate(18.000000) translate(-3.199654, -9.805356) "></path>
            </g>
        </g>
    </g>
</svg>