<?xml version="1.0" encoding="utf-8"?>
<!-- Generator: Adobe Illustrator 22.0.1, SVG Export Plug-In . SVG Version: 6.00 Build 0)  -->
<svg version="1.1" id="Capa_1" xmlns="http://www.w3.org/2000/svg" xmlns:xlink="http://www.w3.org/1999/xlink" x="0px" y="0px"
	 viewBox="0 0 24 24" style="enable-background:new 0 0 24 24;" xml:space="preserve">
<style type="text/css">
	.st0{fill:#1D1D1B;}
</style>
<title>Keyicons/Music/Repeat-play</title>
<desc>Created with Sketch.</desc>
<g>
	<path class="st0" d="M7.5,9c0-0.8,0.7-1.5,1.5-1.5h6c0.8,0,1.5,0.7,1.5,1.5H15l2,3.1L19,9h-1.5c0-1.4-1.1-2.5-2.5-2.5H9
		C7.6,6.5,6.5,7.6,6.5,9v1h1V9z"/>
	<path class="st0" d="M16.5,15c0,0.8-0.7,1.5-1.5,1.5H9c-0.8,0-1.4-0.6-1.5-1.4H9L7,12l-2,3.1h1.5c0.1,1.3,1.2,2.4,2.5,2.4h6
		c1.4,0,2.5-1.1,2.5-2.5v-1h-1V15z"/>
</g>
</svg>
