<?xml version="1.0" encoding="UTF-8"?>
<svg width="24px" height="24px" viewBox="0 0 24 24" version="1.1" xmlns="http://www.w3.org/2000/svg" xmlns:xlink="http://www.w3.org/1999/xlink">
    <!-- Generator: Sketch 48.1 (47250) - http://www.bohemiancoding.com/sketch -->
    <title>24x24</title>
    <desc>Created with Sketch.</desc>
    <defs></defs>
    <g id="Page-1" stroke="none" stroke-width="1" fill="none" fill-rule="evenodd">
        <g id="Share">
            <rect id="24x24" x="0" y="0" width="24" height="24"></rect>
            <path d="M14.9828757,14.0049281 C14.487204,14.0062221 14.0096723,14.1915329 13.6428757,14.5249281 L9.87287566,12.6349281 C10.0194661,12.227719 10.0194661,11.7821371 9.87287566,11.3749281 L13.6428757,9.48492808 C14.3443933,10.118061 15.3933194,10.1737959 16.1579808,9.6185688 C16.9226422,9.06334167 17.1943477,8.04868487 16.8094738,7.18563429 C16.4245999,6.32258371 15.4881862,5.84668282 14.5641498,6.04452363 C13.6401134,6.24236443 12.9806421,7.05995229 12.9828757,8.00492808 C12.9885171,8.21917932 13.0255789,8.43144204 13.0928757,8.63492808 L9.32287566,10.5249281 C8.51881578,9.81581392 7.29863309,9.86681788 6.55655704,10.6405609 C5.81448099,11.414304 5.81448099,12.6355522 6.55655704,13.4092952 C7.29863309,14.1830383 8.51881578,14.2340422 9.32287566,13.5249281 L13.0928757,15.4149281 C13.0255789,15.6184141 12.9885171,15.8306768 12.9828757,16.0449281 C12.9828757,17.1494976 13.8783062,18.0449281 14.9828757,18.0449281 C16.0874452,18.0449281 16.9828757,17.1494976 16.9828757,16.0449281 C16.9828757,14.9403586 16.0874452,14.0449281 14.9828757,14.0449281 L14.9828757,14.0049281 Z M14.9828757,7.00492808 C15.5351604,7.00492808 15.9828757,7.45264333 15.9828757,8.00492808 C15.9828757,8.55721283 15.5351604,9.00492808 14.9828757,9.00492808 C14.4305909,9.00492808 13.9828757,8.55721283 13.9828757,8.00492808 C13.9828757,7.45264333 14.4305909,7.00492808 14.9828757,7.00492808 Z M7.98287566,13.0049281 C7.43059091,13.0049281 6.98287566,12.5572128 6.98287566,12.0049281 C6.98287566,11.4526433 7.43059091,11.0049281 7.98287566,11.0049281 C8.53516041,11.0049281 8.98287566,11.4526433 8.98287566,12.0049281 C8.98287566,12.5572128 8.53516041,13.0049281 7.98287566,13.0049281 Z M14.9828757,17.0049281 C14.4305909,17.0049281 13.9828757,16.5572128 13.9828757,16.0049281 C13.9828757,15.4526433 14.4305909,15.0049281 14.9828757,15.0049281 C15.5351604,15.0049281 15.9828757,15.4526433 15.9828757,16.0049281 C15.9828757,16.5572128 15.5351604,17.0049281 14.9828757,17.0049281 Z" id="Shape" fill="#000000" fill-rule="nonzero"></path>
        </g>
    </g>
</svg>