<?xml version="1.0" encoding="UTF-8"?>
<svg width="24px" height="24px" viewBox="0 0 24 24" version="1.1" xmlns="http://www.w3.org/2000/svg" xmlns:xlink="http://www.w3.org/1999/xlink">
    <!-- Generator: Sketch 48.1 (47250) - http://www.bohemiancoding.com/sketch -->
    <title>24x24</title>
    <desc>Created with Sketch.</desc>
    <defs></defs>
    <g id="Page-1" stroke="none" stroke-width="1" fill="none" fill-rule="evenodd">
        <g id="Share-ios">
            <rect id="24x24" x="0" y="0" width="24" height="24"></rect>
            <path d="M11.5,6.92 L9.89,8.53 L9.18,7.83 L12.01,5 L14.84,7.83 L14.13,8.53 L12.5,6.9 L12.5,14.18 L11.5,14.18 L11.5,6.92 Z M17,10.18 L18,10.18 L18,16.18 C18,17.2845695 17.1045695,18.18 16,18.18 L8,18.18 C6.8954305,18.18 6,17.2845695 6,16.18 L6,10.18 L7,10.18 L7,16.18 C7,16.7322847 7.44771525,17.18 8,17.18 L16,17.18 C16.5522847,17.18 17,16.7322847 17,16.18 L17,10.18 Z" id="Combined-Shape" fill="#000000" fill-rule="nonzero"></path>
        </g>
    </g>
</svg>