<?xml version="1.0" encoding="UTF-8"?>
<svg width="24px" height="24px" viewBox="0 0 24 24" version="1.1" xmlns="http://www.w3.org/2000/svg" xmlns:xlink="http://www.w3.org/1999/xlink">
    <!-- Generator: Sketch 48.1 (47250) - http://www.bohemiancoding.com/sketch -->
    <title>24x24</title>
    <desc>Created with Sketch.</desc>
    <defs></defs>
    <g id="Page-1" stroke="none" stroke-width="1" fill="none" fill-rule="evenodd">
        <g id="Shopping-bag">
            <rect id="24x24" x="0" y="0" width="24" height="24"></rect>
            <path d="M16.67,8.35355512 L14.24,8.35355512 L14.24,8.29355512 C14.1574765,7.00383532 13.0873573,6 11.795,6 C10.5026427,6 9.43252354,7.00383532 9.35,8.29355512 L9.35,8.35355512 L6.67,8.35355512 L6,15.1035551 C6,15.2035551 6,15.3035551 6,15.4035551 C6,17.0604094 7.34314575,18.4035551 9,18.4035551 L14.67,18.4035551 C15.4618425,18.3204142 16.1881571,17.9259105 16.6889599,17.3069408 C17.1897626,16.6879711 17.4239723,15.8953098 17.34,15.1035551 L16.67,8.35355512 Z M10.35,8.29355512 C10.4125763,7.54198716 11.0408315,6.96386722 11.795,6.96386722 C12.5491685,6.96386722 13.1774237,7.54198716 13.24,8.29355512 L13.24,8.35355512 L10.35,8.35355512 L10.35,8.29355512 Z M14.56,17.2935551 L8.98,17.2935551 C7.8754305,17.2935551 6.98,16.3981246 6.98,15.2935551 C6.98,15.2235551 6.98,15.1635551 6.98,15.0935551 L7.57,9.29355512 L15.75,9.29355512 L16.34,15.0935551 C16.4103461,15.6294004 16.2608404,16.1709059 15.9255306,16.5947527 C15.5902207,17.0185994 15.0976524,17.2887042 14.56,17.3435551 L14.56,17.2935551 Z" id="Shape" fill="#000000" fill-rule="nonzero"></path>
        </g>
    </g>
</svg>