<?xml version="1.0" encoding="utf-8"?>
<!-- Generator: Adobe Illustrator 22.0.1, SVG Export Plug-In . SVG Version: 6.00 Build 0)  -->
<svg version="1.1" id="Capa_1" xmlns="http://www.w3.org/2000/svg" xmlns:xlink="http://www.w3.org/1999/xlink" x="0px" y="0px"
	 viewBox="0 0 24 24" style="enable-background:new 0 0 24 24;" xml:space="preserve">
<style type="text/css">
	.st0{fill:#1D1D1B;}
</style>
<title>Keyicons/Music/Sound</title>
<desc>Created with Sketch.</desc>
<path class="st0" d="M18,7.7c-0.2-1.1-1.2-1.8-2.3-1.6l-5,0.8c-1,0.2-1.7,1-1.7,2V14H7.5C6.1,14,5,15.1,5,16.5S6.1,19,7.5,19
	s2.5-1.1,2.5-2.5v-2.3V14V8.9c0-0.5,0.4-0.9,0.8-1l5-0.8C16.4,7,16.9,7.3,17,7.9C17,7.9,17,8,17,8v5h-1.5c-1.4,0-2.5,1.1-2.5,2.5
	s1.1,2.5,2.5,2.5s2.5-1.1,2.5-2.5v-1.7V13V8C18,7.9,18,7.8,18,7.7z M9,16.5C9,17.3,8.3,18,7.5,18S6,17.3,6,16.5S6.7,15,7.5,15H9
	V16.5z M17,15.5c0,0.8-0.7,1.5-1.5,1.5S14,16.3,14,15.5s0.7-1.5,1.5-1.5H17V15.5z"/>
</svg>
