<?xml version="1.0" encoding="UTF-8"?>
<svg width="24px" height="24px" viewBox="0 0 24 24" version="1.1" xmlns="http://www.w3.org/2000/svg" xmlns:xlink="http://www.w3.org/1999/xlink">
    <!-- Generator: Sketch 48.2 (47327) - http://www.bohemiancoding.com/sketch -->
    <title>Text-Bold</title>
    <desc>Created with Sketch.</desc>
    <defs></defs>
    <g id="SVG👌" stroke="none" stroke-width="1" fill="none" fill-rule="evenodd">
        <g id="Text-Bold">
            <rect id="24x24" x="0" y="0" width="24" height="24"></rect>
            <path d="M7.54999981,17 L7.54999981,15.18 L8.36199981,15.18 L8.36199981,9.02 L7.54999981,9.02 L7.54999981,7.214 L12.7719998,7.214 C15.0959998,7.214 16.2019998,8.082 16.2019998,9.608 C16.2019998,10.784 15.8799998,11.358 14.8299998,11.778 C15.8379998,12.058 16.6779998,12.8 16.6779998,14.158 C16.6779998,16.132 15.5719998,17 12.8699998,17 L7.54999981,17 Z M11.2599998,9.062 L11.2599998,11.162 L12.1139998,11.162 C12.8559998,11.162 13.0659998,10.756 13.0659998,10.084 C13.0659998,9.44 12.6739998,9.062 12.1419998,9.062 L11.2599998,9.062 Z M11.2599998,15.18 L12.3799998,15.18 C12.9679998,15.18 13.5139998,14.732 13.5139998,13.976 C13.5139998,13.262 13.1079998,12.744 12.3379998,12.744 L11.2599998,12.744 L11.2599998,15.18 Z" id="B" fill="#000000"></path>
        </g>
    </g>
</svg>