<?xml version="1.0" encoding="UTF-8"?>
<svg width="24px" height="24px" viewBox="0 0 24 24" version="1.1" xmlns="http://www.w3.org/2000/svg" xmlns:xlink="http://www.w3.org/1999/xlink">
    <!-- Generator: Sketch 48.2 (47327) - http://www.bohemiancoding.com/sketch -->
    <title>Text-Underline</title>
    <desc>Created with Sketch.</desc>
    <defs></defs>
    <g id="SVG👌" stroke="none" stroke-width="1" fill="none" fill-rule="evenodd">
        <g id="Text-Underline">
            <rect id="24x24" x="0" y="0" width="24" height="24"></rect>
            <path d="M6.659863,6.63671875 L10.3690513,6.63671875 L10.3690513,7.81933594 L9.1981263,7.81933594 L9.1981263,12.6455078 C9.1981263,13.2242867 9.20111073,13.6599915 9.34464419,14.0678711 C9.48817766,14.4757507 9.68710702,14.8084297 9.94143824,15.065918 C10.1957695,15.3234062 10.4979407,15.5113926 10.8479609,15.6298828 C11.1979811,15.748373 11.5819903,15.8076172 12,15.8076172 C12.4331185,15.8076172 12.8309772,15.7552089 13.1935881,15.6503906 C13.556199,15.5455724 13.8671835,15.3689791 14.126551,15.1206055 C14.3859184,14.8722318 15.0149797,14.3909912 15.0149797,12.6455078 L15.0149797,7.81933594 L13.7760655,7.81933594 L13.7760655,6.63671875 L17.4852538,6.63671875 L17.4852538,7.81933594 L16.4654159,7.81933594 L16.4654159,12.4951172 C16.4654159,13.2425168 16.3508426,13.9055961 16.1216927,14.484375 C15.8925428,15.0631539 15.5790402,15.5485006 15.1811755,15.9404297 C14.7833108,16.3323587 14.3149455,16.629719 13.7760655,16.8325195 C13.2371854,17.03532 12.658024,17.1367188 12.0385638,17.1367188 C11.4342124,17.1367188 10.8689005,17.0364593 10.3426111,16.8359375 C9.81632172,16.6354157 9.35802877,16.3414733 8.96771847,15.9541016 C8.57740817,15.5667298 8.2702008,15.0939156 8.04608715,14.5356445 C7.8219735,13.9773735 7.70991835,13.3382197 7.70991835,12.6181641 L7.70991835,7.81933594 L6.659863,7.81933594 L6.659863,6.63671875 Z M18,18 L18,19 L6,19 L6,18 L18,18 Z" id="Combined-Shape" fill="#000000"></path>
        </g>
    </g>
</svg>