<?xml version="1.0" encoding="UTF-8"?>
<svg width="24px" height="24px" viewBox="0 0 24 24" version="1.1" xmlns="http://www.w3.org/2000/svg" xmlns:xlink="http://www.w3.org/1999/xlink">
    <!-- Generator: Sketch 48.1 (47250) - http://www.bohemiancoding.com/sketch -->
    <title>24x24</title>
    <desc>Created with Sketch.</desc>
    <defs></defs>
    <g id="Page-1" stroke="none" stroke-width="1" fill="none" fill-rule="evenodd">
        <g id="Trash">
            <rect id="24x24" x="0" y="0" width="24" height="24"></rect>
            <path d="M18,7.02052705 L13.83,7.02052705 L13.83,6.61052705 C13.7330777,5.69487699 12.9607654,5 12.04,5 C11.1192346,5 10.3469223,5.69487699 10.25,6.61052705 L10.25,7.02052705 L6,7.02052705 L6,8.02052705 L7.08,8.02052705 L7.92,18.100527 C7.96179703,18.621349 8.39750629,19.0222015 8.92,19.020527 L15.08,19.020527 C15.6024937,19.0222015 16.038203,18.621349 16.08,18.100527 L16.92,8.02052705 L18,8.02052705 L18,7.02052705 Z M15.08,18.020527 L8.92,18.020527 L8.09,8.02052705 L15.91,8.02052705 L15.08,18.020527 Z M11.21,6.77052705 C11.271968,6.38229066 11.6068492,6.09662225 12,6.09662225 C12.3931508,6.09662225 12.728032,6.38229066 12.79,6.77052705 L12.79,7.07052705 L11.17,7.07052705 L11.21,6.77052705 Z M10,10.020527 L11,10.020527 L11,16.020527 L10,16.020527 L10,10.020527 Z M13,10.020527 L14,10.020527 L14,16.020527 L13,16.020527 L13,10.020527 Z" id="Shape" fill="#000000" fill-rule="nonzero"></path>
        </g>
    </g>
</svg>